<?xml version="1.0" encoding="UTF-8"?>
<svg xmlns="http://www.w3.org/2000/svg" version="1.1" xmlns:xlink="http://www.w3.org/1999/xlink" viewBox="0 0 703 254.8">
  <defs>
    <style>
      .cls-1 {
        fill: url(#linear-gradient-2);
      }

      .cls-2 {
        fill: url(#linear-gradient-4);
      }

      .cls-3 {
        fill: url(#linear-gradient-3);
      }

      .cls-4 {
        fill: url(#linear-gradient);
      }

      .cls-5 {
        fill: #e3b2b3;
      }

      .cls-6 {
        fill: #e97d83;
      }
    </style>
    <linearGradient id="linear-gradient" x1="-12812.3" y1="58.8" x2="-12611.7" y2="58.8" gradientTransform="translate(-12577.4 256) rotate(-180)" gradientUnits="userSpaceOnUse">
      <stop offset="0" stop-color="#dd7c85"/>
      <stop offset=".8" stop-color="#e97d83"/>
      <stop offset=".8" stop-color="#efa2a6"/>
      <stop offset=".9" stop-color="#f7d4d6"/>
      <stop offset=".9" stop-color="#fdf3f3"/>
      <stop offset="1" stop-color="#fff"/>
    </linearGradient>
    <linearGradient id="linear-gradient-2" x1="-11666" y1="85.7" x2="-11741.5" y2="204.9" gradientTransform="translate(-11568.1 256) rotate(-180)" gradientUnits="userSpaceOnUse">
      <stop offset="0" stop-color="#dd7c85"/>
      <stop offset=".4" stop-color="#e37c83"/>
      <stop offset="1" stop-color="#e97d83"/>
    </linearGradient>
    <linearGradient id="linear-gradient-3" x1="-778.5" y1="154.3" x2="-577.9" y2="154.3" gradientTransform="translate(778.5 256) scale(1 -1)" gradientUnits="userSpaceOnUse">
      <stop offset="0" stop-color="#c66d76"/>
      <stop offset=".8" stop-color="#e97d83"/>
      <stop offset="1" stop-color="#fff"/>
    </linearGradient>
    <linearGradient id="linear-gradient-4" x1="367.7" y1="181.2" x2="292.3" y2="300.4" gradientTransform="translate(-230.8 256) scale(1 -1)" gradientUnits="userSpaceOnUse">
      <stop offset="0" stop-color="#c66d76"/>
      <stop offset=".2" stop-color="#d3737b"/>
      <stop offset=".7" stop-color="#e37a80"/>
      <stop offset="1" stop-color="#e97d83"/>
    </linearGradient>
  </defs>
  <!-- Generator: Adobe Illustrator 28.6.0, SVG Export Plug-In . SVG Version: 1.2.0 Build 709)  -->
  <g>
    <g id="Layer_2">
      <g id="Layer_1-2">
        <g>
          <path class="cls-4" d="M118.8,163l-2.8-1.2-49.5-20.7s-1-.4-1-1.5v44.2c0,.6.3,1.1.9,1.3l168.6,69.7v-44.4l-116.1-47.4h0Z"/>
          <path class="cls-1" d="M65.4,139.6h0c0,.6.4,1.3,1,1.6l49.5,20.7,53.5-21.9v-44.4l-103,42.6s0,0,0,0c0,0,0,0,0,0,0,0-.2.1-.3.2l-.2.2c0,0-.1.1-.2.2,0,0,0,.1,0,.2,0,0,0,.2-.1.3,0,.1,0,.2,0,.4h0Z"/>
          <path class="cls-3" d="M0,114.9v44.4l168.6-69.7c.5-.2.9-.7.9-1.3v-44.2c0,1.1-1,1.5-1,1.5l-49.5,20.7-2.8,1.2L0,114.9Z"/>
          <path class="cls-2" d="M169.4,44.1h0c0,.6-.4,1.3-1,1.6l-49.5,20.7-53.5-21.9V0l103,42.6s0,0,0,0c0,0,0,0,0,0,0,0,.2.1.4.2l.2.2c0,0,.1.2.2.2,0,0,0,.1,0,.2,0,0,0,.2.1.3,0,.1,0,.2,0,.4h0Z"/>
        </g>
        <g>
          <g>
            <g>
              <path class="cls-5" d="M327.5,93.3c-3.1,1.5-6.3,2.2-9.8,2.2s-6.1-.5-8.7-1.6c-2.6-1.1-4.9-2.6-6.8-4.5-1.9-1.9-3.5-4.2-4.6-6.8-1.1-2.6-1.7-5.5-1.7-8.5s.5-6.1,1.6-8.6c1.1-2.6,2.6-4.9,4.5-6.8,1.9-1.9,4.2-3.4,6.8-4.6,2.6-1.1,5.4-1.7,8.4-1.7s7,.7,10.2,2.2c3.2,1.5,5.9,3.7,8.3,6.7l9.3-9.1c-2.1-2.6-4.6-4.8-7.6-6.7-2.9-1.8-6.1-3.3-9.6-4.3-3.4-1-7-1.5-10.6-1.5s-9.6.9-13.8,2.6c-4.3,1.8-8,4.2-11.3,7.3-3.2,3.2-5.8,6.8-7.6,10.9-1.8,4.1-2.7,8.6-2.7,13.5s.9,9.3,2.7,13.5c1.8,4.2,4.3,7.8,7.5,10.9,3.2,3.1,7,5.5,11.3,7.3s8.9,2.6,13.9,2.6,6.9-.5,10.4-1.5c3.4-1,6.6-2.4,9.5-4.2,2.9-1.8,5.4-4,7.5-6.6l-8.9-8.9c-2.3,2.7-4.9,4.8-8,6.3h0Z"/>
              <path class="cls-5" d="M387.4,57.7l-14,33.8-12.3-33.8h-14.5l19.3,49.9-.8,2c-1.8,4.5-5.1,6.8-9.9,6.8s-3.3-.1-4.5-.4v11.1c.6.2,1.5.4,2.5.5,1,.1,2.1.1,3.3.1,3.6,0,6.7-.5,9.4-1.7,2.6-1.1,5-2.9,7-5.3,2-2.4,3.9-5.6,5.6-9.6l22.8-53.5h-14.1,0Z"/>
              <path class="cls-5" d="M455.4,69.5c-2.2-3.8-5.3-6.9-9.1-9.2-3.8-2.3-8.1-3.4-12.7-3.3-5.3,0-10,1.5-13.9,4.7v-23.2l-13,2.2v66.6h12.8v-3.4c2,1.3,4.2,2.3,6.5,3,2.3.7,4.7,1,7.2,1,4.8,0,9.1-1.1,12.9-3.4,3.9-2.2,6.9-5.3,9.2-9.1,2.3-3.8,3.4-8.1,3.4-12.9s-1.1-9.1-3.4-13h0ZM444,89.8c-1.3,2.2-3,3.9-5.2,5.2-2.2,1.2-4.7,1.8-7.4,1.8s-4.6-.4-6.6-1.2-3.8-2-5.2-3.4v-19.3c1.4-1.6,3.1-2.8,5.1-3.6,2-.8,4.2-1.2,6.7-1.2s5.2.6,7.4,1.9,3.9,3,5.2,5.1c1.3,2.2,1.9,4.6,1.9,7.3s-.6,5.1-1.9,7.3h0Z"/>
              <path class="cls-5" d="M492.9,56.5c-2.8,0-5.3.6-7.6,1.7s-4.1,2.8-5.7,4.9v-5.5h-13.1v49.6h13.1v-32.2c1.3-2.3,2.9-4.2,5-5.5,2.1-1.3,4.4-2,6.9-2s2.4.1,3.5.4c1.1.3,2.2.6,3.2,1v-11.5c-1.1-.6-2.9-1-5.4-1h0Z"/>
              <path class="cls-5" d="M550.6,69.5c-2.3-3.9-5.5-7-9.5-9.2-4-2.3-8.5-3.4-13.4-3.4s-9.4,1.1-13.4,3.4-7.2,5.3-9.5,9.2c-2.3,3.9-3.5,8.3-3.5,13.1s1.2,9.1,3.5,13c2.3,3.9,5.5,7,9.5,9.3,4,2.3,8.5,3.4,13.4,3.4s9.5-1.2,13.5-3.4c4-2.3,7.1-5.4,9.5-9.3,2.3-3.9,3.5-8.2,3.5-13s-1.2-9.2-3.5-13.1h0ZM539.7,89.8c-1.2,2.2-2.9,3.9-5,5.2-2.1,1.3-4.4,2-7,2s-4.9-.7-7-2c-2.1-1.3-3.7-3-4.9-5.2-1.2-2.2-1.8-4.6-1.8-7.3s.6-5.1,1.8-7.2c1.2-2.2,2.9-3.9,5-5.1,2.1-1.3,4.4-1.9,7-1.9s4.8.6,6.9,1.9c2.1,1.3,3.7,3,4.9,5.1,1.2,2.2,1.8,4.6,1.8,7.2s-.6,5.2-1.8,7.3h0Z"/>
              <path class="cls-5" d="M598.4,82.4c-2.6-2.5-6.4-4.1-11.3-4.8l-9.5-1.3c-2.4-.4-4.1-1-5.1-1.7s-1.5-1.8-1.5-3.1.7-2.6,2.1-3.5c1.4-.9,3.3-1.3,5.7-1.3s5,.4,7.5,1.1c2.5.8,5.1,2,7.9,3.7l6.3-8.5c-3-2.1-6.3-3.6-9.8-4.7-3.4-1-7-1.5-10.7-1.5s-7.7.6-10.8,1.9c-3.1,1.3-5.5,3.1-7.2,5.4-1.7,2.3-2.5,5.1-2.5,8.4s1.3,7.2,3.8,9.7c2.6,2.4,6.3,4,11.2,4.8l9.5,1.4c2.2.3,3.7.9,4.7,1.6s1.5,1.8,1.5,3-.9,2.9-2.6,3.9c-1.7,1-4.1,1.5-7,1.5s-5.2-.5-7.8-1.4c-2.6-.9-5.4-2.4-8.2-4.3l-6.5,8.7c2.8,2.2,6.2,3.8,10.1,5,3.9,1.2,8.1,1.8,12.5,1.8s7.9-.7,11.2-2.2,5.9-3.4,7.8-5.8c1.9-2.5,2.8-5.3,2.8-8.4s-1.3-6.9-3.9-9.4h0Z"/>
              <path class="cls-5" d="M643.4,57.7l-14,33.8-12.3-33.8h-14.5l19.3,49.9-.8,2c-1.8,4.5-5.1,6.8-9.9,6.8s-3.3-.1-4.5-.4v11.1c.6.2,1.5.4,2.5.5,1,.1,2.1.1,3.3.1,3.6,0,6.7-.5,9.4-1.7,2.6-1.1,5-2.9,7-5.3,2-2.4,3.9-5.6,5.6-9.6l22.8-53.5h-14.1,0Z"/>
              <path class="cls-5" d="M699.1,82.4c-2.6-2.5-6.4-4.1-11.3-4.8l-9.5-1.3c-2.4-.4-4.1-1-5.1-1.7-1-.8-1.5-1.8-1.5-3.1s.7-2.6,2.1-3.5c1.4-.9,3.3-1.3,5.7-1.3s5,.4,7.5,1.1,5.1,2,7.9,3.7l6.3-8.5c-3-2.1-6.3-3.6-9.8-4.7-3.5-1-7-1.5-10.7-1.5s-7.7.6-10.8,1.9c-3.1,1.3-5.5,3.1-7.2,5.4-1.7,2.3-2.5,5.1-2.5,8.4s1.3,7.2,3.8,9.7c2.6,2.4,6.3,4,11.2,4.8l9.5,1.4c2.2.3,3.7.9,4.7,1.6s1.5,1.8,1.5,3-.9,2.9-2.6,3.9c-1.7,1-4.1,1.5-7,1.5s-5.2-.5-7.8-1.4c-2.6-.9-5.4-2.4-8.2-4.3l-6.5,8.7c2.8,2.2,6.2,3.8,10.1,5,3.9,1.2,8.1,1.8,12.5,1.8s7.9-.7,11.2-2.2,5.9-3.4,7.8-5.8c1.9-2.5,2.8-5.3,2.8-8.4s-1.3-6.9-3.9-9.4h0Z"/>
              <path class="cls-5" d="M321.3,154.8h-16l-27.4,66.6h14.4l6.8-17.4h27.6l6.8,17.4h14.9l-27-66.6h0ZM303.4,192.9l9.7-24.5,9.4,24.5h-19.1Z"/>
              <path class="cls-5" d="M390.9,196.6c-2.6-2.5-6.4-4.1-11.3-4.7l-9.5-1.3c-2.4-.4-4.1-.9-5.1-1.7-1-.8-1.5-1.8-1.5-3.1s.7-2.6,2.1-3.5c1.4-.9,3.3-1.3,5.7-1.3s5,.4,7.5,1.1c2.5.8,5.1,2,7.8,3.7l6.3-8.5c-3-2.1-6.3-3.6-9.7-4.7-3.5-1-7-1.5-10.7-1.5s-7.7.6-10.8,1.9c-3.1,1.3-5.5,3.1-7.2,5.4-1.7,2.3-2.5,5.1-2.5,8.4s1.3,7.2,3.9,9.6c2.6,2.5,6.3,4.1,11.2,4.8l9.5,1.4c2.2.3,3.7.9,4.7,1.6,1,.8,1.5,1.8,1.5,3s-.9,2.9-2.6,3.9-4.1,1.5-7,1.5-5.2-.5-7.9-1.4c-2.6-1-5.4-2.4-8.2-4.3l-6.5,8.8c2.9,2.2,6.2,3.8,10.1,5,3.9,1.2,8.1,1.8,12.5,1.8s7.9-.7,11.2-2.1c3.3-1.4,5.9-3.4,7.7-5.8s2.9-5.2,2.9-8.4-1.3-6.9-3.9-9.4h0Z"/>
              <path class="cls-5" d="M437.6,196.6c-2.6-2.5-6.4-4.1-11.3-4.7l-9.5-1.3c-2.4-.4-4.1-.9-5.1-1.7-1-.8-1.5-1.8-1.5-3.1s.7-2.6,2.1-3.5c1.4-.9,3.3-1.3,5.7-1.3s5,.4,7.5,1.1c2.5.8,5.1,2,7.9,3.7l6.3-8.5c-3-2.1-6.3-3.6-9.8-4.7-3.4-1-7-1.5-10.7-1.5s-7.7.6-10.8,1.9c-3.1,1.3-5.5,3.1-7.2,5.4-1.7,2.3-2.5,5.1-2.5,8.4s1.3,7.2,3.9,9.6c2.6,2.5,6.3,4.1,11.2,4.8l9.5,1.4c2.2.3,3.7.9,4.7,1.6,1,.8,1.5,1.8,1.5,3s-.9,2.9-2.6,3.9c-1.7,1-4.1,1.5-7,1.5s-5.2-.5-7.9-1.4c-2.6-1-5.4-2.4-8.2-4.3l-6.5,8.8c2.8,2.2,6.2,3.8,10.1,5,3.9,1.2,8.1,1.8,12.5,1.8s7.9-.7,11.2-2.1,5.9-3.4,7.8-5.8,2.8-5.2,2.8-8.4-1.3-6.9-3.9-9.4h0Z"/>
              <path class="cls-5" d="M448,171.9v49.6h13v-49.6h-13ZM459.7,153.2c-1.4-1.4-3.2-2.1-5.3-2.1s-3.8.7-5.2,2.1-2.2,3.2-2.2,5.2.7,3.9,2.2,5.3,3.2,2.2,5.2,2.2,3.9-.7,5.3-2.2c1.4-1.5,2.1-3.2,2.1-5.3s-.7-3.8-2.1-5.2Z"/>
              <path class="cls-5" d="M507.5,196.6c-2.6-2.5-6.4-4.1-11.3-4.7l-9.5-1.3c-2.4-.4-4.1-.9-5.1-1.7-1-.8-1.5-1.8-1.5-3.1s.7-2.6,2.1-3.5c1.4-.9,3.3-1.3,5.7-1.3s5,.4,7.5,1.1c2.5.8,5.1,2,7.8,3.7l6.3-8.5c-3-2.1-6.3-3.6-9.8-4.7-3.4-1-7-1.5-10.7-1.5s-7.7.6-10.8,1.9c-3.1,1.3-5.5,3.1-7.2,5.4-1.7,2.3-2.5,5.1-2.5,8.4s1.3,7.2,3.9,9.6c2.6,2.5,6.3,4.1,11.2,4.8l9.5,1.4c2.2.3,3.7.9,4.7,1.6,1,.8,1.5,1.8,1.5,3s-.9,2.9-2.6,3.9c-1.7,1-4.1,1.5-7,1.5s-5.2-.5-7.9-1.4c-2.6-1-5.4-2.4-8.2-4.3l-6.5,8.8c2.9,2.2,6.2,3.8,10.1,5,3.9,1.2,8.1,1.8,12.5,1.8s7.9-.7,11.2-2.1c3.3-1.4,5.9-3.4,7.8-5.8s2.9-5.2,2.9-8.4-1.3-6.9-3.9-9.4h0Z"/>
              <path class="cls-5" d="M594.6,175.7c-3.7-3.2-8.9-4.8-15.7-4.8s-7.1.5-10.6,1.3c-2.1.5-4.3,1.2-6.6,2v11.6c3.1-1.4,5.9-2.4,8.4-3.1,2.5-.7,4.7-1,6.8-1,3.4,0,6,.7,7.8,2.2,1.8,1.5,2.7,3.6,2.7,6.5v3.6c-3.8-1.3-7.9-2-12.2-2-6.3,0-11.3,1.3-14.8,3.9-3.6,2.6-5.3,6.3-5.3,11.1s.8,5.6,2.3,7.9c1.5,2.3,3.6,4.1,6.4,5.4,2.7,1.3,5.8,2,9.3,2s5.4-.4,7.8-1,4.5-1.8,6.6-3.3v3.5h12.8v-32.1c0-5.8-1.8-10.4-5.5-13.6h0ZM587.3,209.7c-1.5,1.1-3.2,2-5,2.5-1.8.5-3.8.8-5.9.8s-4.9-.6-6.6-1.7c-1.7-1.1-2.5-2.6-2.5-4.5s.8-3.5,2.5-4.6c1.7-1.1,4-1.6,7-1.6s3.8.1,5.5.4c1.7.3,3.4.8,4.9,1.5v7.2h0Z"/>
            </g>
            <path class="cls-5" d="M536.6,182.7v22.1c0,2.3.5,3.9,1.6,4.9,1,1,2.8,1.5,5.3,1.5s2.5,0,3.6-.2,2.2-.4,3.5-.8v10.7c-1.3.4-3,.8-4.9,1-2,.3-3.7.4-5.2.4-5.4,0-9.6-1.2-12.4-3.7-2.8-2.5-4.2-6.1-4.2-10.9v-24.8h-10.2v-10.8h10.2v-15.6l12.9,6.1v9.5h14.3v10.8h-14.3,0Z"/>
          </g>
          <g>
            <g>
              <path class="cls-6" d="M327.5,93.3c-3.1,1.5-6.3,2.2-9.8,2.2s-6.1-.5-8.7-1.6c-2.6-1.1-4.9-2.6-6.8-4.5-1.9-1.9-3.5-4.2-4.6-6.8-1.1-2.6-1.7-5.5-1.7-8.5s.5-6.1,1.6-8.6c1.1-2.6,2.6-4.9,4.5-6.8,1.9-1.9,4.2-3.4,6.8-4.6,2.6-1.1,5.4-1.7,8.4-1.7s7,.7,10.2,2.2c3.2,1.5,5.9,3.7,8.3,6.7l9.3-9.1c-2.1-2.6-4.6-4.8-7.6-6.7-2.9-1.8-6.1-3.3-9.6-4.3-3.4-1-7-1.5-10.6-1.5s-9.6.9-13.8,2.6c-4.3,1.8-8,4.2-11.3,7.3-3.2,3.2-5.8,6.8-7.6,10.9-1.8,4.1-2.7,8.6-2.7,13.5s.9,9.3,2.7,13.5c1.8,4.2,4.3,7.8,7.5,10.9,3.2,3.1,7,5.5,11.3,7.3s8.9,2.6,13.9,2.6,6.9-.5,10.4-1.5c3.4-1,6.6-2.4,9.5-4.2,2.9-1.8,5.4-4,7.5-6.6l-8.9-8.9c-2.3,2.7-4.9,4.8-8,6.3h0Z"/>
              <path class="cls-6" d="M387.4,57.7l-14,33.8-12.3-33.8h-14.5l19.3,49.9-.8,2c-1.8,4.5-5.1,6.8-9.9,6.8s-3.3-.1-4.5-.4v11.1c.6.2,1.5.4,2.5.5,1,.1,2.1.1,3.3.1,3.6,0,6.7-.5,9.4-1.7,2.6-1.1,5-2.9,7-5.3,2-2.4,3.9-5.6,5.6-9.6l22.8-53.5h-14.1,0Z"/>
              <path class="cls-6" d="M455.4,69.5c-2.2-3.8-5.3-6.9-9.1-9.2-3.8-2.3-8.1-3.4-12.7-3.3-5.3,0-10,1.5-13.9,4.7v-23.2l-13,2.2v66.6h12.8v-3.4c2,1.3,4.2,2.3,6.5,3,2.3.7,4.7,1,7.2,1,4.8,0,9.1-1.1,12.9-3.4,3.9-2.2,6.9-5.3,9.2-9.1,2.3-3.8,3.4-8.1,3.4-12.9s-1.1-9.1-3.4-13h0ZM444,89.8c-1.3,2.2-3,3.9-5.2,5.2-2.2,1.2-4.7,1.8-7.4,1.8s-4.6-.4-6.6-1.2-3.8-2-5.2-3.4v-19.3c1.4-1.6,3.1-2.8,5.1-3.6,2-.8,4.2-1.2,6.7-1.2s5.2.6,7.4,1.9,3.9,3,5.2,5.1c1.3,2.2,1.9,4.6,1.9,7.3s-.6,5.1-1.9,7.3h0Z"/>
              <path class="cls-6" d="M492.9,56.5c-2.8,0-5.3.6-7.6,1.7s-4.1,2.8-5.7,4.9v-5.5h-13.1v49.6h13.1v-32.2c1.3-2.3,2.9-4.2,5-5.5,2.1-1.3,4.4-2,6.9-2s2.4.1,3.5.4c1.1.3,2.2.6,3.2,1v-11.5c-1.1-.6-2.9-1-5.4-1h0Z"/>
              <path class="cls-6" d="M550.6,69.5c-2.3-3.9-5.5-7-9.5-9.2-4-2.3-8.5-3.4-13.4-3.4s-9.4,1.1-13.4,3.4-7.2,5.3-9.5,9.2c-2.3,3.9-3.5,8.3-3.5,13.1s1.2,9.1,3.5,13c2.3,3.9,5.5,7,9.5,9.3,4,2.3,8.5,3.4,13.4,3.4s9.5-1.2,13.5-3.4c4-2.3,7.1-5.4,9.5-9.3,2.3-3.9,3.5-8.2,3.5-13s-1.2-9.2-3.5-13.1h0ZM539.7,89.8c-1.2,2.2-2.9,3.9-5,5.2-2.1,1.3-4.4,2-7,2s-4.9-.7-7-2c-2.1-1.3-3.7-3-4.9-5.2-1.2-2.2-1.8-4.6-1.8-7.3s.6-5.1,1.8-7.2c1.2-2.2,2.9-3.9,5-5.1,2.1-1.3,4.4-1.9,7-1.9s4.8.6,6.9,1.9c2.1,1.3,3.7,3,4.9,5.1,1.2,2.2,1.8,4.6,1.8,7.2s-.6,5.2-1.8,7.3h0Z"/>
              <path class="cls-6" d="M598.4,82.4c-2.6-2.5-6.4-4.1-11.3-4.8l-9.5-1.3c-2.4-.4-4.1-1-5.1-1.7s-1.5-1.8-1.5-3.1.7-2.6,2.1-3.5c1.4-.9,3.3-1.3,5.7-1.3s5,.4,7.5,1.1c2.5.8,5.1,2,7.9,3.7l6.3-8.5c-3-2.1-6.3-3.6-9.8-4.7-3.4-1-7-1.5-10.7-1.5s-7.7.6-10.8,1.9c-3.1,1.3-5.5,3.1-7.2,5.4-1.7,2.3-2.5,5.1-2.5,8.4s1.3,7.2,3.8,9.7c2.6,2.4,6.3,4,11.2,4.8l9.5,1.4c2.2.3,3.7.9,4.7,1.6s1.5,1.8,1.5,3-.9,2.9-2.6,3.9c-1.7,1-4.1,1.5-7,1.5s-5.2-.5-7.8-1.4c-2.6-.9-5.4-2.4-8.2-4.3l-6.5,8.7c2.8,2.2,6.2,3.8,10.1,5,3.9,1.2,8.1,1.8,12.5,1.8s7.9-.7,11.2-2.2,5.9-3.4,7.8-5.8c1.9-2.5,2.8-5.3,2.8-8.4s-1.3-6.9-3.9-9.4h0Z"/>
              <path class="cls-6" d="M643.4,57.7l-14,33.8-12.3-33.8h-14.5l19.3,49.9-.8,2c-1.8,4.5-5.1,6.8-9.9,6.8s-3.3-.1-4.5-.4v11.1c.6.2,1.5.4,2.5.5,1,.1,2.1.1,3.3.1,3.6,0,6.7-.5,9.4-1.7,2.6-1.1,5-2.9,7-5.3,2-2.4,3.9-5.6,5.6-9.6l22.8-53.5h-14.1,0Z"/>
              <path class="cls-6" d="M699.1,82.4c-2.6-2.5-6.4-4.1-11.3-4.8l-9.5-1.3c-2.4-.4-4.1-1-5.1-1.7-1-.8-1.5-1.8-1.5-3.1s.7-2.6,2.1-3.5c1.4-.9,3.3-1.3,5.7-1.3s5,.4,7.5,1.1,5.1,2,7.9,3.7l6.3-8.5c-3-2.1-6.3-3.6-9.8-4.7-3.5-1-7-1.5-10.7-1.5s-7.7.6-10.8,1.9c-3.1,1.3-5.5,3.1-7.2,5.4-1.7,2.3-2.5,5.1-2.5,8.4s1.3,7.2,3.8,9.7c2.6,2.4,6.3,4,11.2,4.8l9.5,1.4c2.2.3,3.7.9,4.7,1.6s1.5,1.8,1.5,3-.9,2.9-2.6,3.9c-1.7,1-4.1,1.5-7,1.5s-5.2-.5-7.8-1.4c-2.6-.9-5.4-2.4-8.2-4.3l-6.5,8.7c2.8,2.2,6.2,3.8,10.1,5,3.9,1.2,8.1,1.8,12.5,1.8s7.9-.7,11.2-2.2,5.9-3.4,7.8-5.8c1.9-2.5,2.8-5.3,2.8-8.4s-1.3-6.9-3.9-9.4h0Z"/>
              <path class="cls-6" d="M321.3,154.8h-16l-27.4,66.6h14.4l6.8-17.4h27.6l6.8,17.4h14.9l-27-66.6h0ZM303.4,192.9l9.7-24.5,9.4,24.5h-19.1Z"/>
              <path class="cls-6" d="M390.9,196.6c-2.6-2.5-6.4-4.1-11.3-4.7l-9.5-1.3c-2.4-.4-4.1-.9-5.1-1.7-1-.8-1.5-1.8-1.5-3.1s.7-2.6,2.1-3.5c1.4-.9,3.3-1.3,5.7-1.3s5,.4,7.5,1.1c2.5.8,5.1,2,7.8,3.7l6.3-8.5c-3-2.1-6.3-3.6-9.7-4.7-3.5-1-7-1.5-10.7-1.5s-7.7.6-10.8,1.9c-3.1,1.3-5.5,3.1-7.2,5.4-1.7,2.3-2.5,5.1-2.5,8.4s1.3,7.2,3.9,9.6c2.6,2.5,6.3,4.1,11.2,4.8l9.5,1.4c2.2.3,3.7.9,4.7,1.6,1,.8,1.5,1.8,1.5,3s-.9,2.9-2.6,3.9-4.1,1.5-7,1.5-5.2-.5-7.9-1.4c-2.6-1-5.4-2.4-8.2-4.3l-6.5,8.8c2.9,2.2,6.2,3.8,10.1,5,3.9,1.2,8.1,1.8,12.5,1.8s7.9-.7,11.2-2.1c3.3-1.4,5.9-3.4,7.7-5.8s2.9-5.2,2.9-8.4-1.3-6.9-3.9-9.4h0Z"/>
              <path class="cls-6" d="M437.6,196.6c-2.6-2.5-6.4-4.1-11.3-4.7l-9.5-1.3c-2.4-.4-4.1-.9-5.1-1.7-1-.8-1.5-1.8-1.5-3.1s.7-2.6,2.1-3.5c1.4-.9,3.3-1.3,5.7-1.3s5,.4,7.5,1.1c2.5.8,5.1,2,7.9,3.7l6.3-8.5c-3-2.1-6.3-3.6-9.8-4.7-3.4-1-7-1.5-10.7-1.5s-7.7.6-10.8,1.9c-3.1,1.3-5.5,3.1-7.2,5.4-1.7,2.3-2.5,5.1-2.5,8.4s1.3,7.2,3.9,9.6c2.6,2.5,6.3,4.1,11.2,4.8l9.5,1.4c2.2.3,3.7.9,4.7,1.6,1,.8,1.5,1.8,1.5,3s-.9,2.9-2.6,3.9c-1.7,1-4.1,1.5-7,1.5s-5.2-.5-7.9-1.4c-2.6-1-5.4-2.4-8.2-4.3l-6.5,8.8c2.8,2.2,6.2,3.8,10.1,5,3.9,1.2,8.1,1.8,12.5,1.8s7.9-.7,11.2-2.1,5.9-3.4,7.8-5.8,2.8-5.2,2.8-8.4-1.3-6.9-3.9-9.4h0Z"/>
              <path class="cls-6" d="M448,171.9v49.6h13v-49.6h-13ZM459.7,153.2c-1.4-1.4-3.2-2.1-5.3-2.1s-3.8.7-5.2,2.1-2.2,3.2-2.2,5.2.7,3.9,2.2,5.3,3.2,2.2,5.2,2.2,3.9-.7,5.3-2.2c1.4-1.5,2.1-3.2,2.1-5.3s-.7-3.8-2.1-5.2Z"/>
              <path class="cls-6" d="M507.5,196.6c-2.6-2.5-6.4-4.1-11.3-4.7l-9.5-1.3c-2.4-.4-4.1-.9-5.1-1.7-1-.8-1.5-1.8-1.5-3.1s.7-2.6,2.1-3.5c1.4-.9,3.3-1.3,5.7-1.3s5,.4,7.5,1.1c2.5.8,5.1,2,7.8,3.7l6.3-8.5c-3-2.1-6.3-3.6-9.8-4.7-3.4-1-7-1.5-10.7-1.5s-7.7.6-10.8,1.9c-3.1,1.3-5.5,3.1-7.2,5.4-1.7,2.3-2.5,5.1-2.5,8.4s1.3,7.2,3.9,9.6c2.6,2.5,6.3,4.1,11.2,4.8l9.5,1.4c2.2.3,3.7.9,4.7,1.6,1,.8,1.5,1.8,1.5,3s-.9,2.9-2.6,3.9c-1.7,1-4.1,1.5-7,1.5s-5.2-.5-7.9-1.4c-2.6-1-5.4-2.4-8.2-4.3l-6.5,8.8c2.9,2.2,6.2,3.8,10.1,5,3.9,1.2,8.1,1.8,12.5,1.8s7.9-.7,11.2-2.1c3.3-1.4,5.9-3.4,7.8-5.8s2.9-5.2,2.9-8.4-1.3-6.9-3.9-9.4h0Z"/>
              <path class="cls-6" d="M594.6,175.7c-3.7-3.2-8.9-4.8-15.7-4.8s-7.1.5-10.6,1.3c-2.1.5-4.3,1.2-6.6,2v11.6c3.1-1.4,5.9-2.4,8.4-3.1,2.5-.7,4.7-1,6.8-1,3.4,0,6,.7,7.8,2.2,1.8,1.5,2.7,3.6,2.7,6.5v3.6c-3.8-1.3-7.9-2-12.2-2-6.3,0-11.3,1.3-14.8,3.9-3.6,2.6-5.3,6.3-5.3,11.1s.8,5.6,2.3,7.9c1.5,2.3,3.6,4.1,6.4,5.4,2.7,1.3,5.8,2,9.3,2s5.4-.4,7.8-1,4.5-1.8,6.6-3.3v3.5h12.8v-32.1c0-5.8-1.8-10.4-5.5-13.6h0ZM587.3,209.7c-1.5,1.1-3.2,2-5,2.5-1.8.5-3.8.8-5.9.8s-4.9-.6-6.6-1.7c-1.7-1.1-2.5-2.6-2.5-4.5s.8-3.5,2.5-4.6c1.7-1.1,4-1.6,7-1.6s3.8.1,5.5.4c1.7.3,3.4.8,4.9,1.5v7.2h0Z"/>
            </g>
            <path class="cls-6" d="M536.6,182.7v22.1c0,2.3.5,3.9,1.6,4.9,1,1,2.8,1.5,5.3,1.5s2.5,0,3.6-.2,2.2-.4,3.5-.8v10.7c-1.3.4-3,.8-4.9,1-2,.3-3.7.4-5.2.4-5.4,0-9.6-1.2-12.4-3.7-2.8-2.5-4.2-6.1-4.2-10.9v-24.8h-10.2v-10.8h10.2v-15.6l12.9,6.1v9.5h14.3v10.8h-14.3,0Z"/>
          </g>
        </g>
      </g>
    </g>
  </g>
</svg>