<?xml version="1.0" encoding="UTF-8"?>
<svg id="Layer_2" data-name="Layer 2" xmlns="http://www.w3.org/2000/svg" xmlns:xlink="http://www.w3.org/1999/xlink" viewBox="0 0 615.18 254.77">
  <defs>
    <style>
      .cls-1 {
        fill: url(#linear-gradient-2);
      }

      .cls-2 {
        fill: #bc8487;
      }

      .cls-3 {
        fill: url(#linear-gradient-4);
      }

      .cls-4 {
        fill: url(#linear-gradient-3);
      }

      .cls-5 {
        fill: url(#linear-gradient);
      }

      .cls-6 {
        fill: #e3b2b3;
      }
    </style>
    <linearGradient id="linear-gradient" x1="-10040.2" y1="197.19" x2="-9839.57" y2="197.19" gradientTransform="translate(-9805.32) rotate(-180) scale(1 -1)" gradientUnits="userSpaceOnUse">
      <stop offset="0" stop-color="#bc8487"/>
      <stop offset=".79" stop-color="#e3b2b3"/>
      <stop offset=".85" stop-color="#efd4d4"/>
      <stop offset=".92" stop-color="#faf3f3"/>
      <stop offset=".96" stop-color="#fff"/>
    </linearGradient>
    <linearGradient id="linear-gradient-2" x1="-8893.91" y1="170.28" x2="-8969.34" y2="51.08" gradientTransform="translate(-8795.95) rotate(-180) scale(1 -1)" gradientUnits="userSpaceOnUse">
      <stop offset="0" stop-color="#bc8487"/>
      <stop offset=".36" stop-color="#d09c9e"/>
      <stop offset=".7" stop-color="#deacad"/>
      <stop offset=".97" stop-color="#e3b2b3"/>
    </linearGradient>
    <linearGradient id="linear-gradient-3" x1="-778.53" y1="101.73" x2="-577.91" y2="101.73" gradientTransform="translate(778.53)" gradientUnits="userSpaceOnUse">
      <stop offset="0" stop-color="#bc8487"/>
      <stop offset=".79" stop-color="#e3b2b3"/>
      <stop offset=".97" stop-color="#fff"/>
    </linearGradient>
    <linearGradient id="linear-gradient-4" x1="367.75" y1="74.82" x2="292.32" y2="-44.39" gradientTransform="translate(-230.84)" xlink:href="#linear-gradient-2"/>
  </defs>
  <g id="Layer_1-2" data-name="Layer 1">
    <g>
      <g>
        <path class="cls-5" d="M118.79,162.99l-2.84-1.16-49.46-20.68s-.98-.39-1.04-1.54v44.16c0,.57.35,1.08.87,1.31l168.56,69.69v-44.39l-116.09-47.4Z"/>
        <path class="cls-1" d="M65.44,139.58v.03c.02.62.36,1.23,1.04,1.54l49.46,20.68,53.51-21.91v-44.45s-102.97,42.57-102.97,42.57c-.01,0-.03.02-.04.02-.03.02-.04.03-.06.03-.06.03-.2.11-.35.23l-.18.18c-.06.06-.12.15-.18.24-.03.05-.06.11-.07.17-.04.09-.09.2-.11.3-.03.12-.05.24-.05.39Z"/>
        <path class="cls-4" d="M0,114.92v44.39s168.56-69.69,168.56-69.69c.53-.23.87-.74.87-1.31v-44.16c-.06,1.14-1.04,1.54-1.04,1.54l-49.46,20.68-2.84,1.16L0,114.92Z"/>
        <path class="cls-3" d="M169.44,44.12v.03c-.02.62-.36,1.23-1.04,1.54l-49.46,20.68-53.51-21.91V0l102.97,42.57s.03.02.04.02c.03.02.04.03.06.03.06.03.2.11.35.23l.18.18c.06.06.12.15.18.24.03.05.06.11.07.17.04.09.09.2.11.3.03.12.05.24.05.39Z"/>
      </g>
      <g>
        <path class="cls-2" d="M118.79,162.99l-2.84-1.16-49.46-20.68s-.98-.39-1.04-1.54v44.16c0,.57.35,1.08.87,1.31l168.56,69.69v-44.39l-116.09-47.4Z"/>
        <path class="cls-2" d="M65.44,139.58v.03c.02.62.36,1.23,1.04,1.54l49.46,20.68,53.51-21.91v-44.45s-102.97,42.57-102.97,42.57c-.01,0-.03.02-.04.02-.03.02-.04.03-.06.03-.06.03-.2.11-.35.23l-.18.18c-.06.06-.12.15-.18.24-.03.05-.06.11-.07.17-.04.09-.09.2-.11.3-.03.12-.05.24-.05.39Z"/>
        <path class="cls-2" d="M0,114.92v44.39s168.56-69.69,168.56-69.69c.53-.23.87-.74.87-1.31v-44.16c-.06,1.14-1.04,1.54-1.04,1.54l-49.46,20.68-2.84,1.16L0,114.92Z"/>
        <path class="cls-2" d="M169.44,44.12v.03c-.02.62-.36,1.23-1.04,1.54l-49.46,20.68-53.51-21.91V0l102.97,42.57s.03.02.04.02c.03.02.04.03.06.03.06.03.2.11.35.23l.18.18c.06.06.12.15.18.24.03.05.06.11.07.17.04.09.09.2.11.3.03.12.05.24.05.39Z"/>
      </g>
    </g>
    <g>
      <g>
        <g>
          <path class="cls-6" d="M306.53,99.88c-2.51,1.21-5.2,1.8-8.06,1.8-2.61,0-4.99-.44-7.16-1.33-2.16-.88-4.04-2.12-5.63-3.72-1.6-1.58-2.84-3.46-3.75-5.63-.92-2.17-1.37-4.49-1.37-7.01s.44-4.98,1.33-7.11c.88-2.13,2.11-4,3.67-5.59,1.56-1.58,3.42-2.83,5.55-3.75,2.13-.92,4.43-1.37,6.89-1.37,2.96,0,5.76.61,8.36,1.83,2.61,1.23,4.87,3.07,6.8,5.52l7.67-7.51c-1.73-2.13-3.79-3.96-6.22-5.47-2.42-1.51-5.04-2.68-7.87-3.51-2.81-.83-5.73-1.25-8.75-1.25-4.07,0-7.87.71-11.38,2.15-3.53,1.44-6.61,3.45-9.27,6.02-2.66,2.59-4.73,5.58-6.22,9-1.49,3.41-2.23,7.1-2.23,11.06s.74,7.65,2.23,11.07c1.49,3.42,3.55,6.4,6.18,8.96,2.64,2.55,5.72,4.55,9.27,5.98,3.55,1.43,7.35,2.16,11.42,2.16,2.87,0,5.7-.41,8.52-1.22,2.81-.81,5.4-1.96,7.78-3.48,2.37-1.51,4.42-3.31,6.13-5.4l-7.35-7.35c-1.87,2.24-4.06,3.97-6.56,5.16h0Z"/>
          <path class="cls-6" d="M355.72,70.64l-11.5,27.75-10.09-27.75h-11.89l15.87,41.05-.62,1.64c-1.51,3.71-4.22,5.56-8.14,5.56-1.51,0-2.74-.11-3.67-.31v9.15c.53.2,1.22.35,2.08.42.85.09,1.76.12,2.69.12,2.98,0,5.54-.45,7.7-1.37,2.16-.91,4.07-2.37,5.75-4.38,1.67-2,3.21-4.62,4.61-7.86l18.77-44.02h-11.58Z"/>
          <path class="cls-6" d="M411.66,80.37c-1.84-3.16-4.33-5.67-7.47-7.55-3.13-1.87-6.62-2.79-10.48-2.74-4.38,0-8.18,1.27-11.41,3.83v-19.08l-10.71,1.8v54.74h10.55v-2.81c1.67,1.09,3.44,1.93,5.32,2.5,1.87.57,3.86.86,5.94.86,3.91,0,7.46-.93,10.64-2.78,3.18-1.84,5.71-4.35,7.59-7.5,1.87-3.16,2.81-6.69,2.81-10.61s-.93-7.51-2.78-10.67h0ZM402.31,97.06c-1.04,1.82-2.46,3.24-4.26,4.27-1.8,1.01-3.83,1.52-6.06,1.52-1.94,0-3.75-.33-5.44-1.01-1.69-.68-3.11-1.62-4.26-2.82v-15.87c1.14-1.29,2.55-2.27,4.22-2.93,1.66-.65,3.49-.97,5.47-.97,2.23,0,4.26.52,6.06,1.56s3.21,2.45,4.26,4.22c1.04,1.77,1.56,3.77,1.56,6.01s-.52,4.2-1.56,6.02h0Z"/>
          <path class="cls-6" d="M442.51,69.69c-2.29,0-4.37.47-6.22,1.41s-3.41,2.29-4.66,4.06v-4.53h-10.79v40.74h10.79v-26.44c1.04-1.93,2.42-3.43,4.15-4.49,1.73-1.07,3.62-1.61,5.71-1.61.98,0,1.94.11,2.84.31.92.22,1.79.49,2.62.86v-9.46c-.94-.52-2.41-.81-4.45-.86h0Z"/>
          <path class="cls-6" d="M489.9,80.3c-1.93-3.21-4.54-5.73-7.82-7.59-3.28-1.85-6.95-2.78-11.03-2.78s-7.74.93-11.03,2.78c-3.29,1.85-5.88,4.38-7.81,7.59-1.93,3.2-2.9,6.79-2.9,10.74s.97,7.47,2.9,10.68c1.93,3.2,4.53,5.75,7.81,7.62,3.29,1.87,6.96,2.82,11.03,2.82s7.82-.95,11.11-2.82c3.28-1.87,5.87-4.42,7.78-7.62,1.9-3.21,2.86-6.77,2.86-10.68s-.97-7.55-2.9-10.74ZM480.91,96.99c-.99,1.77-2.35,3.19-4.07,4.26-1.71,1.07-3.64,1.61-5.79,1.61s-4.05-.54-5.75-1.61c-1.69-1.07-3.04-2.49-4.03-4.26-.99-1.78-1.49-3.78-1.49-6.02s.49-4.17,1.49-5.94c.99-1.78,2.35-3.18,4.07-4.22,1.71-1.04,3.64-1.56,5.79-1.56s3.97.52,5.67,1.56c1.69,1.04,3.05,2.45,4.06,4.22,1.01,1.77,1.52,3.75,1.52,5.94s-.49,4.25-1.48,6.02h0Z"/>
          <path class="cls-6" d="M529.24,90.97c-2.15-2.04-5.24-3.33-9.31-3.91l-7.81-1.09c-1.98-.31-3.4-.79-4.22-1.41s-1.25-1.49-1.25-2.58c0-1.21.58-2.17,1.76-2.9,1.18-.72,2.73-1.09,4.66-1.09,2.04,0,4.07.31,6.13.94,2.07.62,4.21,1.64,6.46,3.05l5.16-6.96c-2.5-1.73-5.17-3-8.02-3.84-2.83-.83-5.78-1.25-8.79-1.25-3.4,0-6.36.53-8.91,1.56-2.55,1.04-4.53,2.53-5.9,4.46-1.38,1.93-2.07,4.22-2.07,6.88,0,3.29,1.06,5.94,3.16,7.94,2.11,2,5.18,3.32,9.19,3.95l7.82,1.18c1.77.27,3.06.71,3.87,1.34s1.21,1.45,1.21,2.5c0,1.3-.71,2.36-2.15,3.17-1.43.81-3.35,1.21-5.76,1.21-2.13,0-4.29-.39-6.44-1.18-2.17-.78-4.42-1.95-6.77-3.51l-5.31,7.19c2.34,1.78,5.12,3.15,8.33,4.1,3.2.97,6.63,1.45,10.28,1.45,3.44,0,6.5-.59,9.18-1.77,2.68-1.18,4.82-2.76,6.38-4.76,1.56-2.02,2.34-4.32,2.34-6.93,0-3.13-1.07-5.7-3.2-7.74h0Z"/>
          <path class="cls-6" d="M566.23,70.64l-11.5,27.75-10.09-27.75h-11.89l15.87,41.05-.62,1.64c-1.51,3.71-4.21,5.56-8.12,5.56-1.52,0-2.74-.11-3.67-.31v9.15c.52.2,1.21.35,2.07.42.86.09,1.76.12,2.69.12,2.98,0,5.54-.45,7.7-1.37,2.17-.91,4.08-2.37,5.75-4.38,1.67-2,3.21-4.62,4.61-7.86l18.77-44.02h-11.58Z"/>
          <path class="cls-6" d="M611.97,90.97c-2.15-2.04-5.24-3.33-9.31-3.91l-7.81-1.09c-1.98-.31-3.4-.79-4.22-1.41-.84-.62-1.25-1.49-1.25-2.58,0-1.21.58-2.17,1.76-2.9,1.18-.72,2.73-1.09,4.66-1.09,2.03,0,4.07.31,6.13.94s4.21,1.64,6.46,3.05l5.16-6.96c-2.5-1.73-5.17-3-8.02-3.84-2.84-.83-5.78-1.25-8.79-1.25-3.4,0-6.36.53-8.91,1.56-2.55,1.04-4.53,2.53-5.9,4.46-1.38,1.93-2.07,4.22-2.07,6.88,0,3.29,1.06,5.94,3.16,7.94,2.11,2,5.17,3.32,9.19,3.95l7.82,1.18c1.77.27,3.06.71,3.87,1.34s1.21,1.45,1.21,2.5c0,1.3-.71,2.36-2.15,3.17-1.43.81-3.35,1.21-5.76,1.21-2.13,0-4.29-.39-6.44-1.18-2.17-.78-4.42-1.95-6.77-3.51l-5.31,7.19c2.34,1.78,5.12,3.15,8.33,4.1,3.2.97,6.63,1.45,10.28,1.45,3.44,0,6.5-.59,9.18-1.77,2.68-1.18,4.82-2.76,6.38-4.76,1.56-2.02,2.34-4.32,2.34-6.93,0-3.13-1.07-5.7-3.2-7.74h0Z"/>
          <path class="cls-6" d="M301.44,150.48h-13.14l-22.52,54.74h11.81l5.55-14.31h22.68l5.56,14.31h12.28l-22.21-54.74h0ZM286.67,181.75l7.98-20.17,7.74,20.17h-15.71Z"/>
          <path class="cls-6" d="M358.6,184.8c-2.13-2.03-5.24-3.33-9.3-3.9l-7.82-1.1c-1.98-.31-3.38-.78-4.22-1.41-.83-.62-1.25-1.48-1.25-2.58,0-1.2.59-2.17,1.76-2.89,1.18-.73,2.73-1.1,4.66-1.1,2.04,0,4.08.31,6.14.94,2.06.62,4.2,1.64,6.44,3.05l5.16-6.96c-2.5-1.71-5.17-3-8.01-3.83-2.84-.84-5.78-1.25-8.81-1.25-3.38,0-6.36.52-8.91,1.56-2.55,1.04-4.53,2.52-5.9,4.45-1.38,1.93-2.07,4.22-2.07,6.89,0,3.29,1.06,5.93,3.17,7.93,2.11,2.02,5.17,3.33,9.18,3.96l7.82,1.18c1.77.26,3.06.7,3.87,1.33.81.62,1.22,1.45,1.22,2.5,0,1.3-.72,2.36-2.16,3.17s-3.35,1.22-5.75,1.22c-2.15,0-4.29-.4-6.46-1.18-2.17-.79-4.42-1.96-6.77-3.53l-5.31,7.2c2.35,1.77,5.12,3.14,8.33,4.1,3.2.96,6.63,1.44,10.28,1.44,3.44,0,6.5-.58,9.19-1.76,2.68-1.18,4.81-2.77,6.37-4.77,1.56-2,2.35-4.31,2.35-6.92,0-3.13-1.08-5.71-3.21-7.75h0Z"/>
          <path class="cls-6" d="M397,184.8c-2.13-2.03-5.24-3.33-9.31-3.9l-7.81-1.1c-1.98-.31-3.4-.78-4.22-1.41-.83-.62-1.25-1.48-1.25-2.58,0-1.2.58-2.17,1.76-2.89,1.18-.73,2.73-1.1,4.66-1.1,2.04,0,4.07.31,6.13.94,2.07.62,4.21,1.64,6.46,3.05l5.16-6.96c-2.5-1.71-5.17-3-8.02-3.83-2.83-.84-5.78-1.25-8.79-1.25-3.4,0-6.36.52-8.91,1.56-2.55,1.04-4.53,2.52-5.9,4.45-1.38,1.93-2.07,4.22-2.07,6.89,0,3.29,1.06,5.93,3.17,7.93,2.1,2.02,5.17,3.33,9.18,3.96l7.82,1.18c1.77.26,3.06.7,3.87,1.33.81.62,1.21,1.45,1.21,2.5,0,1.3-.71,2.36-2.15,3.17-1.43.81-3.35,1.22-5.75,1.22-2.15,0-4.29-.4-6.46-1.18-2.17-.79-4.42-1.96-6.77-3.53l-5.31,7.2c2.34,1.77,5.12,3.14,8.33,4.1,3.2.96,6.63,1.44,10.28,1.44,3.44,0,6.5-.58,9.18-1.76,2.68-1.18,4.82-2.77,6.38-4.77,1.56-2,2.34-4.31,2.34-6.92,0-3.13-1.07-5.71-3.2-7.75h0Z"/>
          <path class="cls-6" d="M405.53,164.48v40.74h10.71v-40.74h-10.71ZM415.18,149.18c-1.18-1.18-2.62-1.76-4.34-1.76s-3.1.58-4.3,1.76-1.8,2.6-1.8,4.27.6,3.18,1.8,4.38,2.63,1.8,4.3,1.8,3.17-.6,4.34-1.8c1.18-1.2,1.76-2.66,1.76-4.38s-.58-3.09-1.76-4.27Z"/>
          <path class="cls-6" d="M454.48,184.8c-2.13-2.03-5.24-3.33-9.3-3.9l-7.82-1.1c-1.98-.31-3.4-.78-4.22-1.41-.83-.62-1.25-1.48-1.25-2.58,0-1.2.58-2.17,1.76-2.89,1.18-.73,2.73-1.1,4.66-1.1,2.04,0,4.07.31,6.14.94,2.06.62,4.2,1.64,6.44,3.05l5.16-6.96c-2.5-1.71-5.17-3-8.02-3.83-2.83-.84-5.77-1.25-8.79-1.25-3.38,0-6.36.52-8.91,1.56-2.55,1.04-4.53,2.52-5.9,4.45-1.38,1.93-2.07,4.22-2.07,6.89,0,3.29,1.06,5.93,3.17,7.93,2.11,2.02,5.17,3.33,9.18,3.96l7.82,1.18c1.77.26,3.06.7,3.87,1.33.81.62,1.22,1.45,1.22,2.5,0,1.3-.72,2.36-2.16,3.17-1.43.81-3.35,1.22-5.75,1.22-2.15,0-4.29-.4-6.46-1.18-2.17-.79-4.42-1.96-6.77-3.53l-5.31,7.2c2.35,1.77,5.12,3.14,8.33,4.1,3.2.96,6.63,1.44,10.28,1.44,3.44,0,6.5-.58,9.18-1.76,2.69-1.18,4.82-2.77,6.38-4.77,1.56-2,2.35-4.31,2.35-6.92,0-3.13-1.08-5.71-3.21-7.75h0Z"/>
          <path class="cls-6" d="M526.11,167.64c-3.03-2.63-7.33-3.96-12.91-3.96-2.92,0-5.83.37-8.75,1.1-1.75.44-3.55.99-5.4,1.67v9.52c2.55-1.15,4.85-1.99,6.89-2.54,2.03-.55,3.88-.82,5.55-.82,2.81,0,4.95.59,6.41,1.79,1.45,1.21,2.19,2.98,2.19,5.32v2.98c-3.13-1.1-6.47-1.65-10.01-1.65-5.22,0-9.28,1.09-12.2,3.24-2.92,2.17-4.38,5.21-4.38,9.12,0,2.45.62,4.61,1.87,6.49,1.25,1.87,3,3.35,5.24,4.42,2.24,1.07,4.8,1.61,7.66,1.61,2.35,0,4.48-.29,6.41-.86,1.93-.57,3.73-1.49,5.4-2.74v2.89h10.56v-26.42c0-4.8-1.52-8.51-4.54-11.14h0ZM520.09,195.6c-1.25.94-2.62,1.62-4.1,2.03-1.49.42-3.11.64-4.89.64-2.24,0-4.03-.46-5.39-1.37-1.36-.92-2.04-2.16-2.04-3.72s.69-2.87,2.07-3.75c1.39-.89,3.3-1.34,5.76-1.34,1.62,0,3.13.12,4.54.36,1.4.24,2.76.64,4.06,1.21v5.95h0Z"/>
        </g>
        <path class="cls-6" d="M478.4,173.39v18.15c0,1.87.43,3.21,1.29,4.02.86.81,2.31,1.22,4.34,1.22,1.09,0,2.07-.06,2.93-.19.86-.13,1.81-.36,2.86-.67v8.76c-1.1.36-2.46.65-4.06.85-1.62.22-3.05.31-4.31.31-4.48,0-7.88-1.02-10.2-3.08-2.33-2.06-3.48-5.04-3.48-8.96v-20.41h-8.37v-8.91h8.37v-12.83l10.63,5.05v7.77h11.74v8.91h-11.74Z"/>
      </g>
      <g>
        <g>
          <path class="cls-2" d="M306.53,99.88c-2.51,1.21-5.2,1.8-8.06,1.8-2.61,0-4.99-.44-7.16-1.33-2.16-.88-4.04-2.12-5.63-3.72-1.6-1.58-2.84-3.46-3.75-5.63-.92-2.17-1.37-4.49-1.37-7.01s.44-4.98,1.33-7.11c.88-2.13,2.11-4,3.67-5.59,1.56-1.58,3.42-2.83,5.55-3.75,2.13-.92,4.43-1.37,6.89-1.37,2.96,0,5.76.61,8.36,1.83,2.61,1.23,4.87,3.07,6.8,5.52l7.67-7.51c-1.73-2.13-3.79-3.96-6.22-5.47-2.42-1.51-5.04-2.68-7.87-3.51-2.81-.83-5.73-1.25-8.75-1.25-4.07,0-7.87.71-11.38,2.15-3.53,1.44-6.61,3.45-9.27,6.02-2.66,2.59-4.73,5.58-6.22,9-1.49,3.41-2.23,7.1-2.23,11.06s.74,7.65,2.23,11.07c1.49,3.42,3.55,6.4,6.18,8.96,2.64,2.55,5.72,4.55,9.27,5.98,3.55,1.43,7.35,2.16,11.42,2.16,2.87,0,5.7-.41,8.52-1.22,2.81-.81,5.4-1.96,7.78-3.48,2.37-1.51,4.42-3.31,6.13-5.4l-7.35-7.35c-1.87,2.24-4.06,3.97-6.56,5.16h0Z"/>
          <path class="cls-2" d="M355.72,70.64l-11.5,27.75-10.09-27.75h-11.89l15.87,41.05-.62,1.64c-1.51,3.71-4.22,5.56-8.14,5.56-1.51,0-2.74-.11-3.67-.31v9.15c.53.2,1.22.35,2.08.42.85.09,1.76.12,2.69.12,2.98,0,5.54-.45,7.7-1.37,2.16-.91,4.07-2.37,5.75-4.38,1.67-2,3.21-4.62,4.61-7.86l18.77-44.02h-11.58Z"/>
          <path class="cls-2" d="M411.66,80.37c-1.84-3.16-4.33-5.67-7.47-7.55-3.13-1.87-6.62-2.79-10.48-2.74-4.38,0-8.18,1.27-11.41,3.83v-19.08l-10.71,1.8v54.74h10.55v-2.81c1.67,1.09,3.44,1.93,5.32,2.5,1.87.57,3.86.86,5.94.86,3.91,0,7.46-.93,10.64-2.78,3.18-1.84,5.71-4.35,7.59-7.5,1.87-3.16,2.81-6.69,2.81-10.61s-.93-7.51-2.78-10.67h0ZM402.31,97.06c-1.04,1.82-2.46,3.24-4.26,4.27-1.8,1.01-3.83,1.52-6.06,1.52-1.94,0-3.75-.33-5.44-1.01-1.69-.68-3.11-1.62-4.26-2.82v-15.87c1.14-1.29,2.55-2.27,4.22-2.93,1.66-.65,3.49-.97,5.47-.97,2.23,0,4.26.52,6.06,1.56s3.21,2.45,4.26,4.22c1.04,1.77,1.56,3.77,1.56,6.01s-.52,4.2-1.56,6.02h0Z"/>
          <path class="cls-2" d="M442.51,69.69c-2.29,0-4.37.47-6.22,1.41s-3.41,2.29-4.66,4.06v-4.53h-10.79v40.74h10.79v-26.44c1.04-1.93,2.42-3.43,4.15-4.49,1.73-1.07,3.62-1.61,5.71-1.61.98,0,1.94.11,2.84.31.92.22,1.79.49,2.62.86v-9.46c-.94-.52-2.41-.81-4.45-.86h0Z"/>
          <path class="cls-2" d="M489.9,80.3c-1.93-3.21-4.54-5.73-7.82-7.59-3.28-1.85-6.95-2.78-11.03-2.78s-7.74.93-11.03,2.78c-3.29,1.85-5.88,4.38-7.81,7.59-1.93,3.2-2.9,6.79-2.9,10.74s.97,7.47,2.9,10.68c1.93,3.2,4.53,5.75,7.81,7.62,3.29,1.87,6.96,2.82,11.03,2.82s7.82-.95,11.11-2.82c3.28-1.87,5.87-4.42,7.78-7.62,1.9-3.21,2.86-6.77,2.86-10.68s-.97-7.55-2.9-10.74ZM480.91,96.99c-.99,1.77-2.35,3.19-4.07,4.26-1.71,1.07-3.64,1.61-5.79,1.61s-4.05-.54-5.75-1.61c-1.69-1.07-3.04-2.49-4.03-4.26-.99-1.78-1.49-3.78-1.49-6.02s.49-4.17,1.49-5.94c.99-1.78,2.35-3.18,4.07-4.22,1.71-1.04,3.64-1.56,5.79-1.56s3.97.52,5.67,1.56c1.69,1.04,3.05,2.45,4.06,4.22,1.01,1.77,1.52,3.75,1.52,5.94s-.49,4.25-1.48,6.02h0Z"/>
          <path class="cls-2" d="M529.24,90.97c-2.15-2.04-5.24-3.33-9.31-3.91l-7.81-1.09c-1.98-.31-3.4-.79-4.22-1.41s-1.25-1.49-1.25-2.58c0-1.21.58-2.17,1.76-2.9,1.18-.72,2.73-1.09,4.66-1.09,2.04,0,4.07.31,6.13.94,2.07.62,4.21,1.64,6.46,3.05l5.16-6.96c-2.5-1.73-5.17-3-8.02-3.84-2.83-.83-5.78-1.25-8.79-1.25-3.4,0-6.36.53-8.91,1.56-2.55,1.04-4.53,2.53-5.9,4.46-1.38,1.93-2.07,4.22-2.07,6.88,0,3.29,1.06,5.94,3.16,7.94,2.11,2,5.18,3.32,9.19,3.95l7.82,1.18c1.77.27,3.06.71,3.87,1.34s1.21,1.45,1.21,2.5c0,1.3-.71,2.36-2.15,3.17-1.43.81-3.35,1.21-5.76,1.21-2.13,0-4.29-.39-6.44-1.18-2.17-.78-4.42-1.95-6.77-3.51l-5.31,7.19c2.34,1.78,5.12,3.15,8.33,4.1,3.2.97,6.63,1.45,10.28,1.45,3.44,0,6.5-.59,9.18-1.77,2.68-1.18,4.82-2.76,6.38-4.76,1.56-2.02,2.34-4.32,2.34-6.93,0-3.13-1.07-5.7-3.2-7.74h0Z"/>
          <path class="cls-2" d="M566.23,70.64l-11.5,27.75-10.09-27.75h-11.89l15.87,41.05-.62,1.64c-1.51,3.71-4.21,5.56-8.12,5.56-1.52,0-2.74-.11-3.67-.31v9.15c.52.2,1.21.35,2.07.42.86.09,1.76.12,2.69.12,2.98,0,5.54-.45,7.7-1.37,2.17-.91,4.08-2.37,5.75-4.38,1.67-2,3.21-4.62,4.61-7.86l18.77-44.02h-11.58Z"/>
          <path class="cls-2" d="M611.97,90.97c-2.15-2.04-5.24-3.33-9.31-3.91l-7.81-1.09c-1.98-.31-3.4-.79-4.22-1.41-.84-.62-1.25-1.49-1.25-2.58,0-1.21.58-2.17,1.76-2.9,1.18-.72,2.73-1.09,4.66-1.09,2.03,0,4.07.31,6.13.94s4.21,1.64,6.46,3.05l5.16-6.96c-2.5-1.73-5.17-3-8.02-3.84-2.84-.83-5.78-1.25-8.79-1.25-3.4,0-6.36.53-8.91,1.56-2.55,1.04-4.53,2.53-5.9,4.46-1.38,1.93-2.07,4.22-2.07,6.88,0,3.29,1.06,5.94,3.16,7.94,2.11,2,5.17,3.32,9.19,3.95l7.82,1.18c1.77.27,3.06.71,3.87,1.34s1.21,1.45,1.21,2.5c0,1.3-.71,2.36-2.15,3.17-1.43.81-3.35,1.21-5.76,1.21-2.13,0-4.29-.39-6.44-1.18-2.17-.78-4.42-1.95-6.77-3.51l-5.31,7.19c2.34,1.78,5.12,3.15,8.33,4.1,3.2.97,6.63,1.45,10.28,1.45,3.44,0,6.5-.59,9.18-1.77,2.68-1.18,4.82-2.76,6.38-4.76,1.56-2.02,2.34-4.32,2.34-6.93,0-3.13-1.07-5.7-3.2-7.74h0Z"/>
          <path class="cls-2" d="M301.44,150.48h-13.14l-22.52,54.74h11.81l5.55-14.31h22.68l5.56,14.31h12.28l-22.21-54.74h0ZM286.67,181.75l7.98-20.17,7.74,20.17h-15.71Z"/>
          <path class="cls-2" d="M358.6,184.8c-2.13-2.03-5.24-3.33-9.3-3.9l-7.82-1.1c-1.98-.31-3.38-.78-4.22-1.41-.83-.62-1.25-1.48-1.25-2.58,0-1.2.59-2.17,1.76-2.89,1.18-.73,2.73-1.1,4.66-1.1,2.04,0,4.08.31,6.14.94,2.06.62,4.2,1.64,6.44,3.05l5.16-6.96c-2.5-1.71-5.17-3-8.01-3.83-2.84-.84-5.78-1.25-8.81-1.25-3.38,0-6.36.52-8.91,1.56-2.55,1.04-4.53,2.52-5.9,4.45-1.38,1.93-2.07,4.22-2.07,6.89,0,3.29,1.06,5.93,3.17,7.93,2.11,2.02,5.17,3.33,9.18,3.96l7.82,1.18c1.77.26,3.06.7,3.87,1.33.81.62,1.22,1.45,1.22,2.5,0,1.3-.72,2.36-2.16,3.17s-3.35,1.22-5.75,1.22c-2.15,0-4.29-.4-6.46-1.18-2.17-.79-4.42-1.96-6.77-3.53l-5.31,7.2c2.35,1.77,5.12,3.14,8.33,4.1,3.2.96,6.63,1.44,10.28,1.44,3.44,0,6.5-.58,9.19-1.76,2.68-1.18,4.81-2.77,6.37-4.77,1.56-2,2.35-4.31,2.35-6.92,0-3.13-1.08-5.71-3.21-7.75h0Z"/>
          <path class="cls-2" d="M397,184.8c-2.13-2.03-5.24-3.33-9.31-3.9l-7.81-1.1c-1.98-.31-3.4-.78-4.22-1.41-.83-.62-1.25-1.48-1.25-2.58,0-1.2.58-2.17,1.76-2.89,1.18-.73,2.73-1.1,4.66-1.1,2.04,0,4.07.31,6.13.94,2.07.62,4.21,1.64,6.46,3.05l5.16-6.96c-2.5-1.71-5.17-3-8.02-3.83-2.83-.84-5.78-1.25-8.79-1.25-3.4,0-6.36.52-8.91,1.56-2.55,1.04-4.53,2.52-5.9,4.45-1.38,1.93-2.07,4.22-2.07,6.89,0,3.29,1.06,5.93,3.17,7.93,2.1,2.02,5.17,3.33,9.18,3.96l7.82,1.18c1.77.26,3.06.7,3.87,1.33.81.62,1.21,1.45,1.21,2.5,0,1.3-.71,2.36-2.15,3.17-1.43.81-3.35,1.22-5.75,1.22-2.15,0-4.29-.4-6.46-1.18-2.17-.79-4.42-1.96-6.77-3.53l-5.31,7.2c2.34,1.77,5.12,3.14,8.33,4.1,3.2.96,6.63,1.44,10.28,1.44,3.44,0,6.5-.58,9.18-1.76,2.68-1.18,4.82-2.77,6.38-4.77,1.56-2,2.34-4.31,2.34-6.92,0-3.13-1.07-5.71-3.2-7.75h0Z"/>
          <path class="cls-2" d="M405.53,164.48v40.74h10.71v-40.74h-10.71ZM415.18,149.18c-1.18-1.18-2.62-1.76-4.34-1.76s-3.1.58-4.3,1.76-1.8,2.6-1.8,4.27.6,3.18,1.8,4.38,2.63,1.8,4.3,1.8,3.17-.6,4.34-1.8c1.18-1.2,1.76-2.66,1.76-4.38s-.58-3.09-1.76-4.27Z"/>
          <path class="cls-2" d="M454.48,184.8c-2.13-2.03-5.24-3.33-9.3-3.9l-7.82-1.1c-1.98-.31-3.4-.78-4.22-1.41-.83-.62-1.25-1.48-1.25-2.58,0-1.2.58-2.17,1.76-2.89,1.18-.73,2.73-1.1,4.66-1.1,2.04,0,4.07.31,6.14.94,2.06.62,4.2,1.64,6.44,3.05l5.16-6.96c-2.5-1.71-5.17-3-8.02-3.83-2.83-.84-5.77-1.25-8.79-1.25-3.38,0-6.36.52-8.91,1.56-2.55,1.04-4.53,2.52-5.9,4.45-1.38,1.93-2.07,4.22-2.07,6.89,0,3.29,1.06,5.93,3.17,7.93,2.11,2.02,5.17,3.33,9.18,3.96l7.82,1.18c1.77.26,3.06.7,3.87,1.33.81.62,1.22,1.45,1.22,2.5,0,1.3-.72,2.36-2.16,3.17-1.43.81-3.35,1.22-5.75,1.22-2.15,0-4.29-.4-6.46-1.18-2.17-.79-4.42-1.96-6.77-3.53l-5.31,7.2c2.35,1.77,5.12,3.14,8.33,4.1,3.2.96,6.63,1.44,10.28,1.44,3.44,0,6.5-.58,9.18-1.76,2.69-1.18,4.82-2.77,6.38-4.77,1.56-2,2.35-4.31,2.35-6.92,0-3.13-1.08-5.71-3.21-7.75h0Z"/>
          <path class="cls-2" d="M526.11,167.64c-3.03-2.63-7.33-3.96-12.91-3.96-2.92,0-5.83.37-8.75,1.1-1.75.44-3.55.99-5.4,1.67v9.52c2.55-1.15,4.85-1.99,6.89-2.54,2.03-.55,3.88-.82,5.55-.82,2.81,0,4.95.59,6.41,1.79,1.45,1.21,2.19,2.98,2.19,5.32v2.98c-3.13-1.1-6.47-1.65-10.01-1.65-5.22,0-9.28,1.09-12.2,3.24-2.92,2.17-4.38,5.21-4.38,9.12,0,2.45.62,4.61,1.87,6.49,1.25,1.87,3,3.35,5.24,4.42,2.24,1.07,4.8,1.61,7.66,1.61,2.35,0,4.48-.29,6.41-.86,1.93-.57,3.73-1.49,5.4-2.74v2.89h10.56v-26.42c0-4.8-1.52-8.51-4.54-11.14h0ZM520.09,195.6c-1.25.94-2.62,1.62-4.1,2.03-1.49.42-3.11.64-4.89.64-2.24,0-4.03-.46-5.39-1.37-1.36-.92-2.04-2.16-2.04-3.72s.69-2.87,2.07-3.75c1.39-.89,3.3-1.34,5.76-1.34,1.62,0,3.13.12,4.54.36,1.4.24,2.76.64,4.06,1.21v5.95h0Z"/>
        </g>
        <path class="cls-2" d="M478.4,173.39v18.15c0,1.87.43,3.21,1.29,4.02.86.81,2.31,1.22,4.34,1.22,1.09,0,2.07-.06,2.93-.19.86-.13,1.81-.36,2.86-.67v8.76c-1.1.36-2.46.65-4.06.85-1.62.22-3.05.31-4.31.31-4.48,0-7.88-1.02-10.2-3.08-2.33-2.06-3.48-5.04-3.48-8.96v-20.41h-8.37v-8.91h8.37v-12.83l10.63,5.05v7.77h11.74v8.91h-11.74Z"/>
      </g>
    </g>
  </g>
</svg>