<?xml version="1.0" encoding="UTF-8"?>
<svg id="Layer_2" data-name="Layer 2" xmlns="http://www.w3.org/2000/svg" viewBox="0 0 774.01 93.51">
  <g id="Layer_1-2" data-name="Layer 1">
    <g>
      <path d="M6.96,73.31l-6.96-6.96V11.24l6.96-6.86h34.42l6.86,6.86v15.62h-10.25v-13.13H10.35v50.14h27.65v-13.03h10.25v15.52l-6.86,6.96H6.96Z"/>
      <path d="M70.61,76.69v8.16h22.38v-14.42h-25.86l-6.87-6.86V19.89h9.95v41.78h22.78V19.89h9.95v66.75l-7.06,6.86h-27.85l-7.06-6.86v-9.95h9.65Z"/>
      <path d="M115.71,0h9.95v19.89h24.97l6.96,6.87v39.59l-6.96,6.96h-20.39l-5.57-5.67v5.67h-8.95V0ZM130.43,63.96h17.21V28.95h-21.98v30.74l4.77,4.28Z"/>
      <path d="M170.28,73.31V19.89h8.95v6.76l6.87-6.76h12.33v9.55h-12.53l-5.67,5.37v38.5h-9.95Z"/>
      <path d="M243.09,19.89l6.86,6.87v39.59l-6.86,6.96h-28.15l-6.86-6.96V26.76l6.86-6.87h28.15ZM240.01,29.05h-21.99v35.11h21.99V29.05Z"/>
      <path d="M294.38,59.68l-31.43-21.49v-11.44l6.86-6.87h26.66l6.96,6.87v10.05h-9.55v-9.05h-21.09v5.77l31.43,21.39v11.44l-6.86,6.96h-27.85l-6.96-6.96v-8.75h9.45v7.86h22.38v-5.77Z"/>
      <path d="M326.85,76.69v8.16h22.38v-14.42h-25.86l-6.87-6.86V19.89h9.95v41.78h22.78V19.89h9.95v66.75l-7.06,6.86h-27.85l-7.06-6.86v-9.95h9.65Z"/>
      <path d="M403.65,59.68l-31.43-21.49v-11.44l6.86-6.87h26.66l6.96,6.87v10.05h-9.55v-9.05h-21.09v5.77l31.44,21.39v11.44l-6.86,6.96h-27.85l-6.96-6.96v-8.75h9.45v7.86h22.38v-5.77Z"/>
      <path d="M443.83,73.31v-13.33l20.29-55.61h13.63l20.29,55.51v13.43h-10.35v-12.24l-2.49-6.76h-28.55l-2.49,6.76v12.24h-10.35ZM459.15,45.56h23.58l-11.84-32.03-11.74,32.03Z"/>
      <path d="M540.94,59.68l-31.43-21.49v-11.44l6.86-6.87h26.66l6.96,6.87v10.05h-9.55v-9.05h-21.09v5.77l31.43,21.39v11.44l-6.86,6.96h-27.85l-6.96-6.96v-8.75h9.45v7.86h22.38v-5.77Z"/>
      <path d="M594.89,59.68l-31.43-21.49v-11.44l6.86-6.87h26.66l6.96,6.87v10.05h-9.55v-9.05h-21.09v5.77l31.43,21.39v11.44l-6.86,6.96h-27.85l-6.96-6.96v-8.75h9.45v7.86h22.38v-5.77Z"/>
      <path d="M616.9,10.25V.9h10.35v9.35h-10.35ZM617.1,73.31V19.89h9.95v53.42h-9.95Z"/>
      <path d="M671.55,59.68l-31.43-21.49v-11.44l6.86-6.87h26.66l6.96,6.87v10.05h-9.55v-9.05h-21.09v5.77l31.44,21.39v11.44l-6.86,6.96h-27.85l-6.96-6.96v-8.75h9.45v7.86h22.38v-5.77Z"/>
      <path d="M704.99,73.31l-6.96-6.96V28.15h-7.36v-8.26h7.36v-10.84h9.95v10.84h13.73v8.26h-13.73v35.81h14.82v9.35h-17.81Z"/>
      <path d="M774.01,73.31h-8.55v-5.77l-5.67,5.77h-20.09l-6.96-6.96v-15.92l6.96-6.96h24.57v-14.82h-21.59v7.16h-9.55v-9.05l6.96-6.87h27.06l6.86,6.87v46.55ZM742.37,49.74v15.32h17.21l4.68-4.18v-11.14h-21.88Z"/>
    </g>
  </g>
</svg>