<?xml version="1.0" encoding="UTF-8"?>
<svg id="Layer_2" data-name="Layer 2" xmlns="http://www.w3.org/2000/svg" viewBox="0 0 851.92 84.55">
  <g id="Layer_1-2" data-name="Layer 1">
    <g>
      <path d="M35.61,68.63c-7.29,0-13.61-1.41-18.95-4.23-5.34-2.82-9.45-6.8-12.33-11.94C1.44,47.33,0,41.28,0,34.32s1.44-13.01,4.33-18.15,6.99-9.12,12.33-11.94C22,1.41,28.31,0,35.61,0s12.98,1.09,18.05,3.28c5.07,2.19,9,5.31,11.79,9.35,2.78,4.05,4.18,8.92,4.18,14.62v1.49h-16.61v-1.49c0-4.38-1.34-7.62-4.03-9.75-2.69-2.12-7.05-3.18-13.08-3.18-4.84,0-8.74.65-11.69,1.94-2.95,1.29-5.09,3.38-6.42,6.27-1.33,2.88-1.99,6.81-1.99,11.79s.66,8.82,1.99,11.74c1.33,2.92,3.47,5.02,6.42,6.32,2.95,1.29,6.85,1.94,11.69,1.94,6.03,0,10.39-1.06,13.08-3.18,2.69-2.12,4.03-5.37,4.03-9.75v-1.49h16.61v1.49c0,5.64-1.39,10.49-4.18,14.57-2.79,4.08-6.72,7.21-11.79,9.4-5.07,2.19-11.09,3.28-18.05,3.28Z"/>
      <path d="M85.5,84.55h-8.16v-13.53h12.24c1.86,0,3.25-.27,4.18-.8.93-.53,1.69-1.46,2.29-2.79l2.09-4.87-1.49,6.96-25.16-51.72h16.91l10.54,22.78,4.18,11.74h.99l3.98-11.84,9.45-22.68h16.61l-24.67,53.41c-1.59,3.45-3.45,6.15-5.57,8.11-2.12,1.95-4.68,3.32-7.66,4.08-2.98.76-6.57,1.14-10.74,1.14Z"/>
      <path d="M150.77,67.64h-13.83V.99h14.92v50.63l-1.09,1.29v14.72ZM171.56,68.63c-5.77,0-10.29-1.24-13.58-3.73-3.28-2.49-5.39-6.18-6.32-11.09h-2.78l1.09-10.74h1.89c0,2.85.55,5.16,1.64,6.91s2.72,3.03,4.87,3.83c2.15.8,4.82,1.19,8.01,1.19s5.9-.4,7.96-1.19c2.05-.8,3.58-2.09,4.58-3.88.99-1.79,1.49-4.18,1.49-7.16s-.5-5.55-1.49-7.31-2.52-3.03-4.58-3.83c-2.06-.8-4.68-1.19-7.86-1.19-4.84,0-8.49.89-10.94,2.69-2.46,1.79-3.68,4.84-3.68,9.15h-1.89v-11.24h2.69c.86-4.18,2.87-7.59,6.02-10.25,3.15-2.65,7.67-3.98,13.58-3.98,4.97,0,9.18,1.06,12.63,3.18,3.45,2.12,6.08,5.12,7.91,9,1.82,3.88,2.74,8.47,2.74,13.78s-.91,9.8-2.74,13.68c-1.83,3.88-4.53,6.88-8.11,9-3.58,2.12-7.96,3.18-13.13,3.18Z"/>
      <path d="M216.34,67.64h-14.92V17.81h13.83v14.22l1.09.5v35.11ZM216.34,38.79h-2.98v-7.76h2.79c.46-2.72,1.38-5.15,2.73-7.31s3.2-3.85,5.52-5.07c2.32-1.23,5.14-1.84,8.46-1.84,3.78,0,6.81.78,9.1,2.34,2.29,1.56,3.96,3.65,5.02,6.27,1.06,2.62,1.59,5.55,1.59,8.8v8.25h-14.92v-5.17c0-2.79-.61-4.79-1.84-6.02-1.23-1.23-3.37-1.84-6.42-1.84-3.32,0-5.65.76-7.01,2.29-1.36,1.53-2.04,3.88-2.04,7.06Z"/>
      <path d="M279.78,68.63c-5.64,0-10.59-1.06-14.87-3.18-4.28-2.12-7.61-5.12-10-9s-3.58-8.44-3.58-13.68,1.19-9.9,3.58-13.78c2.39-3.88,5.72-6.88,10-9,4.28-2.12,9.23-3.18,14.87-3.18s10.67,1.06,14.92,3.18c4.24,2.12,7.56,5.12,9.95,9,2.39,3.88,3.58,8.47,3.58,13.78s-1.19,9.8-3.58,13.68-5.7,6.88-9.95,9c-4.24,2.12-9.22,3.18-14.92,3.18ZM279.78,55.4c5.04,0,8.57-1.01,10.59-3.03s3.03-5.22,3.03-9.6-1.01-7.69-3.03-9.75-5.55-3.08-10.59-3.08-8.57,1.03-10.59,3.08-3.03,5.31-3.03,9.75,1.01,7.58,3.03,9.6,5.55,3.03,10.59,3.03Z"/>
      <path d="M338.37,68.63c-8.36,0-14.79-1.57-19.3-4.73-4.51-3.15-6.76-7.61-6.76-13.38v-.3h14.92v.9c0,2.25.81,3.76,2.44,4.53,1.62.76,4.56,1.14,8.8,1.14,3.98,0,6.62-.35,7.91-1.04,1.29-.7,1.94-1.77,1.94-3.23s-.5-2.37-1.49-2.93c-.99-.56-2.95-1.04-5.87-1.44l-14.03-1.69c-4.97-.53-8.8-1.92-11.49-4.18-2.69-2.25-4.03-5.5-4.03-9.75,0-2.92.86-5.55,2.59-7.91,1.72-2.35,4.39-4.24,8.01-5.67,3.61-1.43,8.27-2.14,13.98-2.14s10.06.68,13.88,2.04c3.81,1.36,6.71,3.4,8.7,6.12,1.99,2.72,2.98,6.1,2.98,10.14v.3h-14.92v-.6c0-1.39-.28-2.54-.84-3.43-.57-.9-1.66-1.58-3.28-2.04-1.63-.46-3.96-.7-7.01-.7-3.72,0-6.2.35-7.46,1.05s-1.89,1.84-1.89,3.43c0,1.26.51,2.21,1.54,2.84,1.03.63,3.17,1.18,6.42,1.64l10.64,1.29c6.63.73,11.34,2.26,14.13,4.58,2.78,2.32,4.18,5.54,4.18,9.65,0,3.12-.99,5.84-2.98,8.16-1.99,2.32-4.81,4.13-8.46,5.42s-8.06,1.94-13.23,1.94Z"/>
      <path d="M375.36,84.55h-8.16v-13.53h12.23c1.86,0,3.25-.27,4.18-.8.93-.53,1.69-1.46,2.29-2.79l2.09-4.87-1.49,6.96-25.17-51.72h16.91l10.54,22.78,4.18,11.74h.99l3.98-11.84,9.45-22.68h16.61l-24.67,53.41c-1.59,3.45-3.45,6.15-5.57,8.11-2.12,1.95-4.67,3.32-7.66,4.08-2.98.76-6.56,1.14-10.74,1.14Z"/>
      <path d="M450.58,68.63c-8.36,0-14.79-1.57-19.3-4.73-4.51-3.15-6.76-7.61-6.76-13.38v-.3h14.92v.9c0,2.25.81,3.76,2.44,4.53,1.62.76,4.56,1.14,8.8,1.14,3.98,0,6.62-.35,7.91-1.04,1.29-.7,1.94-1.77,1.94-3.23s-.5-2.37-1.49-2.93c-.99-.56-2.95-1.04-5.87-1.44l-14.03-1.69c-4.97-.53-8.8-1.92-11.49-4.18-2.69-2.25-4.03-5.5-4.03-9.75,0-2.92.86-5.55,2.59-7.91,1.72-2.35,4.39-4.24,8.01-5.67,3.61-1.43,8.27-2.14,13.98-2.14s10.06.68,13.88,2.04c3.81,1.36,6.71,3.4,8.7,6.12,1.99,2.72,2.98,6.1,2.98,10.14v.3h-14.92v-.6c0-1.39-.28-2.54-.84-3.43-.57-.9-1.66-1.58-3.28-2.04-1.63-.46-3.96-.7-7.01-.7-3.72,0-6.2.35-7.46,1.05s-1.89,1.84-1.89,3.43c0,1.26.51,2.21,1.54,2.84,1.03.63,3.17,1.18,6.42,1.64l10.64,1.29c6.63.73,11.34,2.26,14.13,4.58,2.78,2.32,4.18,5.54,4.18,9.65,0,3.12-.99,5.84-2.98,8.16-1.99,2.32-4.81,4.13-8.46,5.42s-8.06,1.94-13.23,1.94Z"/>
      <path d="M508.86,67.64h-16.71L521.3.99h21.29l29.34,66.64h-17.11l-18.3-42.67-4.08-10.35h-1.09l-4.08,10.35-18.4,42.67ZM555.02,52.92h-46.95v-13.43h46.95v13.43Z"/>
      <path d="M597.93,68.63c-8.36,0-14.79-1.57-19.3-4.73-4.51-3.15-6.76-7.61-6.76-13.38v-.3h14.92v.9c0,2.25.81,3.76,2.44,4.53,1.62.76,4.56,1.14,8.8,1.14,3.98,0,6.62-.35,7.91-1.04,1.29-.7,1.94-1.77,1.94-3.23s-.5-2.37-1.49-2.93c-.99-.56-2.95-1.04-5.87-1.44l-14.03-1.69c-4.97-.53-8.8-1.92-11.49-4.18-2.69-2.25-4.03-5.5-4.03-9.75,0-2.92.86-5.55,2.59-7.91,1.72-2.35,4.39-4.24,8.01-5.67,3.61-1.43,8.27-2.14,13.98-2.14s10.06.68,13.88,2.04c3.81,1.36,6.71,3.4,8.7,6.12,1.99,2.72,2.98,6.1,2.98,10.14v.3h-14.92v-.6c0-1.39-.28-2.54-.84-3.43-.57-.9-1.66-1.58-3.28-2.04-1.63-.46-3.96-.7-7.01-.7-3.72,0-6.2.35-7.46,1.05s-1.89,1.84-1.89,3.43c0,1.26.51,2.21,1.54,2.84,1.03.63,3.17,1.18,6.42,1.64l10.64,1.29c6.63.73,11.34,2.26,14.13,4.58,2.78,2.32,4.18,5.54,4.18,9.65,0,3.12-.99,5.84-2.98,8.16-1.99,2.32-4.81,4.13-8.46,5.42s-8.06,1.94-13.23,1.94Z"/>
      <path d="M652.93,68.63c-8.36,0-14.79-1.57-19.3-4.73-4.51-3.15-6.76-7.61-6.76-13.38v-.3h14.92v.9c0,2.25.81,3.76,2.44,4.53,1.62.76,4.56,1.14,8.8,1.14,3.98,0,6.62-.35,7.91-1.04,1.29-.7,1.94-1.77,1.94-3.23s-.5-2.37-1.49-2.93c-.99-.56-2.95-1.04-5.87-1.44l-14.03-1.69c-4.97-.53-8.8-1.92-11.49-4.18-2.69-2.25-4.03-5.5-4.03-9.75,0-2.92.86-5.55,2.59-7.91,1.72-2.35,4.39-4.24,8.01-5.67,3.61-1.43,8.27-2.14,13.98-2.14s10.06.68,13.88,2.04c3.81,1.36,6.71,3.4,8.7,6.12,1.99,2.72,2.98,6.1,2.98,10.14v.3h-14.92v-.6c0-1.39-.28-2.54-.84-3.43-.57-.9-1.66-1.58-3.28-2.04-1.63-.46-3.96-.7-7.01-.7-3.72,0-6.2.35-7.46,1.05s-1.89,1.84-1.89,3.43c0,1.26.51,2.21,1.54,2.84,1.03.63,3.17,1.18,6.42,1.64l10.64,1.29c6.63.73,11.34,2.26,14.13,4.58,2.78,2.32,4.18,5.54,4.18,9.65,0,3.12-.99,5.84-2.98,8.16-1.99,2.32-4.81,4.13-8.46,5.42s-8.06,1.94-13.23,1.94Z"/>
      <path d="M698.31,12.73h-14.92V.99h14.92v11.74ZM698.31,67.64h-14.92V17.81h14.92v49.83Z"/>
      <path d="M731.25,68.63c-8.36,0-14.79-1.57-19.3-4.73-4.51-3.15-6.76-7.61-6.76-13.38v-.3h14.92v.9c0,2.25.81,3.76,2.44,4.53,1.62.76,4.56,1.14,8.8,1.14,3.98,0,6.61-.35,7.91-1.04,1.29-.7,1.94-1.77,1.94-3.23s-.5-2.37-1.49-2.93c-.99-.56-2.95-1.04-5.87-1.44l-14.03-1.69c-4.97-.53-8.8-1.92-11.49-4.18-2.69-2.25-4.03-5.5-4.03-9.75,0-2.92.86-5.55,2.59-7.91,1.72-2.35,4.39-4.24,8.01-5.67,3.61-1.43,8.27-2.14,13.98-2.14s10.06.68,13.88,2.04c3.81,1.36,6.72,3.4,8.7,6.12s2.98,6.1,2.98,10.14v.3h-14.92v-.6c0-1.39-.28-2.54-.85-3.43-.56-.9-1.66-1.58-3.28-2.04-1.63-.46-3.96-.7-7.01-.7-3.71,0-6.2.35-7.46,1.05-1.26.7-1.89,1.84-1.89,3.43,0,1.26.51,2.21,1.54,2.84,1.03.63,3.17,1.18,6.42,1.64l10.64,1.29c6.63.73,11.34,2.26,14.12,4.58,2.79,2.32,4.18,5.54,4.18,9.65,0,3.12-.99,5.84-2.98,8.16-1.99,2.32-4.81,4.13-8.45,5.42-3.65,1.29-8.06,1.94-13.23,1.94Z"/>
      <path d="M796.11,30.14h-38.89v-12.33h38.89v12.33ZM796.11,67.64h-12.33c-5.83,0-10.41-1.43-13.73-4.28-3.32-2.85-4.97-7.43-4.97-13.73V8.16h14.92v39.79c0,2.52.54,4.2,1.64,5.02,1.1.83,2.94,1.24,5.52,1.24h8.95v13.43Z"/>
      <path d="M816.9,68.63c-5.37,0-9.58-1.19-12.63-3.58-3.05-2.39-4.58-5.64-4.58-9.75,0-2.52.6-4.67,1.79-6.47,1.19-1.79,2.98-3.23,5.37-4.33,2.39-1.09,5.37-1.84,8.95-2.24l22.38-2.29v8.55l-18.3,2.09c-1.79.13-3.1.48-3.93,1.04-.83.56-1.24,1.44-1.24,2.64,0,1.33.53,2.29,1.59,2.88,1.06.6,2.69.9,4.87.9,3.58,0,6.53-.33,8.85-.99s4.09-1.74,5.32-3.23c1.23-1.49,1.84-3.5,1.84-6.02l1.39-.1v8.46h-1.39c-1.13,3.85-3.4,6.88-6.81,9.1-3.42,2.22-7.91,3.33-13.48,3.33ZM851.92,67.64h-13.92v-11.84l-.8-.2v-17.41c0-3.25-.81-5.44-2.44-6.56-1.63-1.13-4.43-1.69-8.4-1.69s-6.5.56-8.16,1.69c-1.66,1.13-2.49,3.12-2.49,5.97v.4h-15.02v-.3c0-4.11,1.09-7.74,3.28-10.89,2.19-3.15,5.29-5.6,9.3-7.36,4.01-1.76,8.74-2.64,14.17-2.64s10.16.9,13.78,2.69c3.61,1.79,6.3,4.29,8.06,7.51,1.76,3.22,2.64,7.01,2.64,11.39v29.24Z"/>
    </g>
  </g>
</svg>