<?xml version="1.0" encoding="UTF-8"?>
<svg xmlns="http://www.w3.org/2000/svg" version="1.1" viewBox="0 0 615.2 254.8">
  <defs>
    <style>
      .cls-1 {
        fill: #e97d83;
      }
    </style>
  </defs>
  <!-- Generator: Adobe Illustrator 28.6.0, SVG Export Plug-In . SVG Version: 1.2.0 Build 709)  -->
  <g>
    <g id="Layer_2">
      <g id="Layer_1-2">
        <g>
          <g>
            <path class="cls-1" d="M118.8,163l-2.8-1.2-49.5-20.7s-1-.4-1-1.5v44.2c0,.6.3,1.1.9,1.3l168.6,69.7v-44.4l-116.1-47.4h0Z"/>
            <path class="cls-1" d="M65.4,139.6h0c0,.6.4,1.3,1,1.6l49.5,20.7,53.5-21.9v-44.4l-103,42.6s0,0,0,0c0,0,0,0,0,0,0,0-.2.1-.3.2l-.2.2c0,0-.1.1-.2.2,0,0,0,.1,0,.2,0,0,0,.2-.1.3,0,.1,0,.2,0,.4h0Z"/>
            <path class="cls-1" d="M0,114.9v44.4l168.6-69.7c.5-.2.9-.7.9-1.3v-44.2c0,1.1-1,1.5-1,1.5l-49.5,20.7-2.8,1.2L0,114.9Z"/>
            <path class="cls-1" d="M169.4,44.1h0c0,.6-.4,1.3-1,1.6l-49.5,20.7-53.5-21.9V0l103,42.6s0,0,0,0c0,0,0,0,0,0,0,0,.2.1.4.2l.2.2c0,0,.1.2.2.2,0,0,0,.1,0,.2,0,0,0,.2.1.3,0,.1,0,.2,0,.4h0Z"/>
          </g>
          <g>
            <path class="cls-1" d="M118.8,163l-2.8-1.2-49.5-20.7s-1-.4-1-1.5v44.2c0,.6.3,1.1.9,1.3l168.6,69.7v-44.4l-116.1-47.4h0Z"/>
            <path class="cls-1" d="M65.4,139.6h0c0,.6.4,1.3,1,1.6l49.5,20.7,53.5-21.9v-44.4l-103,42.6s0,0,0,0c0,0,0,0,0,0,0,0-.2.1-.3.2l-.2.2c0,0-.1.1-.2.2,0,0,0,.1,0,.2,0,0,0,.2-.1.3,0,.1,0,.2,0,.4h0Z"/>
            <path class="cls-1" d="M0,114.9v44.4l168.6-69.7c.5-.2.9-.7.9-1.3v-44.2c0,1.1-1,1.5-1,1.5l-49.5,20.7-2.8,1.2L0,114.9Z"/>
            <path class="cls-1" d="M169.4,44.1h0c0,.6-.4,1.3-1,1.6l-49.5,20.7-53.5-21.9V0l103,42.6s0,0,0,0c0,0,0,0,0,0,0,0,.2.1.4.2l.2.2c0,0,.1.2.2.2,0,0,0,.1,0,.2,0,0,0,.2.1.3,0,.1,0,.2,0,.4h0Z"/>
          </g>
        </g>
        <g>
          <g>
            <g>
              <path class="cls-1" d="M306.5,99.9c-2.5,1.2-5.2,1.8-8.1,1.8s-5-.4-7.2-1.3c-2.2-.9-4-2.1-5.6-3.7-1.6-1.6-2.8-3.5-3.8-5.6-.9-2.2-1.4-4.5-1.4-7s.4-5,1.3-7.1c.9-2.1,2.1-4,3.7-5.6,1.6-1.6,3.4-2.8,5.5-3.8,2.1-.9,4.4-1.4,6.9-1.4s5.8.6,8.4,1.8c2.6,1.2,4.9,3.1,6.8,5.5l7.7-7.5c-1.7-2.1-3.8-4-6.2-5.5-2.4-1.5-5-2.7-7.9-3.5-2.8-.8-5.7-1.2-8.8-1.2s-7.9.7-11.4,2.2c-3.5,1.4-6.6,3.5-9.3,6-2.7,2.6-4.7,5.6-6.2,9-1.5,3.4-2.2,7.1-2.2,11.1s.7,7.7,2.2,11.1c1.5,3.4,3.5,6.4,6.2,9,2.6,2.6,5.7,4.6,9.3,6s7.4,2.2,11.4,2.2,5.7-.4,8.5-1.2c2.8-.8,5.4-2,7.8-3.5,2.4-1.5,4.4-3.3,6.1-5.4l-7.4-7.3c-1.9,2.2-4.1,4-6.6,5.2h0Z"/>
              <path class="cls-1" d="M355.7,70.6l-11.5,27.8-10.1-27.8h-11.9l15.9,41.1-.6,1.6c-1.5,3.7-4.2,5.6-8.1,5.6s-2.7-.1-3.7-.3v9.2c.5.2,1.2.3,2.1.4.9,0,1.8.1,2.7.1,3,0,5.5-.4,7.7-1.4,2.2-.9,4.1-2.4,5.8-4.4,1.7-2,3.2-4.6,4.6-7.9l18.8-44h-11.6,0Z"/>
              <path class="cls-1" d="M411.7,80.4c-1.8-3.2-4.3-5.7-7.5-7.6-3.1-1.9-6.6-2.8-10.5-2.7-4.4,0-8.2,1.3-11.4,3.8v-19.1l-10.7,1.8v54.7h10.5v-2.8c1.7,1.1,3.4,1.9,5.3,2.5,1.9.6,3.9.9,5.9.9,3.9,0,7.5-.9,10.6-2.8,3.2-1.8,5.7-4.3,7.6-7.5,1.9-3.2,2.8-6.7,2.8-10.6s-.9-7.5-2.8-10.7h0ZM402.3,97.1c-1,1.8-2.5,3.2-4.3,4.3-1.8,1-3.8,1.5-6.1,1.5s-3.8-.3-5.4-1-3.1-1.6-4.3-2.8v-15.9c1.1-1.3,2.5-2.3,4.2-2.9,1.7-.7,3.5-1,5.5-1s4.3.5,6.1,1.6,3.2,2.4,4.3,4.2c1,1.8,1.6,3.8,1.6,6s-.5,4.2-1.6,6h0Z"/>
              <path class="cls-1" d="M442.5,69.7c-2.3,0-4.4.5-6.2,1.4s-3.4,2.3-4.7,4.1v-4.5h-10.8v40.7h10.8v-26.4c1-1.9,2.4-3.4,4.1-4.5,1.7-1.1,3.6-1.6,5.7-1.6s1.9.1,2.8.3c.9.2,1.8.5,2.6.9v-9.5c-.9-.5-2.4-.8-4.5-.9h0Z"/>
              <path class="cls-1" d="M489.9,80.3c-1.9-3.2-4.5-5.7-7.8-7.6-3.3-1.8-7-2.8-11-2.8s-7.7.9-11,2.8-5.9,4.4-7.8,7.6c-1.9,3.2-2.9,6.8-2.9,10.7s1,7.5,2.9,10.7c1.9,3.2,4.5,5.8,7.8,7.6,3.3,1.9,7,2.8,11,2.8s7.8-.9,11.1-2.8c3.3-1.9,5.9-4.4,7.8-7.6,1.9-3.2,2.9-6.8,2.9-10.7s-1-7.6-2.9-10.7h0ZM480.9,97c-1,1.8-2.4,3.2-4.1,4.3-1.7,1.1-3.6,1.6-5.8,1.6s-4-.5-5.8-1.6c-1.7-1.1-3-2.5-4-4.3-1-1.8-1.5-3.8-1.5-6s.5-4.2,1.5-5.9c1-1.8,2.4-3.2,4.1-4.2,1.7-1,3.6-1.6,5.8-1.6s4,.5,5.7,1.6c1.7,1,3,2.4,4.1,4.2,1,1.8,1.5,3.8,1.5,5.9s-.5,4.2-1.5,6h0Z"/>
              <path class="cls-1" d="M529.2,91c-2.2-2-5.2-3.3-9.3-3.9l-7.8-1.1c-2-.3-3.4-.8-4.2-1.4s-1.2-1.5-1.2-2.6.6-2.2,1.8-2.9c1.2-.7,2.7-1.1,4.7-1.1s4.1.3,6.1.9c2.1.6,4.2,1.6,6.5,3.1l5.2-7c-2.5-1.7-5.2-3-8-3.8-2.8-.8-5.8-1.2-8.8-1.2s-6.4.5-8.9,1.6c-2.5,1-4.5,2.5-5.9,4.5-1.4,1.9-2.1,4.2-2.1,6.9s1.1,5.9,3.2,7.9c2.1,2,5.2,3.3,9.2,3.9l7.8,1.2c1.8.3,3.1.7,3.9,1.3s1.2,1.4,1.2,2.5-.7,2.4-2.2,3.2c-1.4.8-3.3,1.2-5.8,1.2s-4.3-.4-6.4-1.2c-2.2-.8-4.4-1.9-6.8-3.5l-5.3,7.2c2.3,1.8,5.1,3.2,8.3,4.1,3.2,1,6.6,1.4,10.3,1.4s6.5-.6,9.2-1.8,4.8-2.8,6.4-4.8c1.6-2,2.3-4.3,2.3-6.9s-1.1-5.7-3.2-7.7h0Z"/>
              <path class="cls-1" d="M566.2,70.6l-11.5,27.8-10.1-27.8h-11.9l15.9,41.1-.6,1.6c-1.5,3.7-4.2,5.6-8.1,5.6s-2.7-.1-3.7-.3v9.2c.5.2,1.2.3,2.1.4.9,0,1.8.1,2.7.1,3,0,5.5-.4,7.7-1.4,2.2-.9,4.1-2.4,5.8-4.4,1.7-2,3.2-4.6,4.6-7.9l18.8-44h-11.6,0Z"/>
              <path class="cls-1" d="M612,91c-2.2-2-5.2-3.3-9.3-3.9l-7.8-1.1c-2-.3-3.4-.8-4.2-1.4-.8-.6-1.2-1.5-1.2-2.6s.6-2.2,1.8-2.9c1.2-.7,2.7-1.1,4.7-1.1s4.1.3,6.1.9,4.2,1.6,6.5,3.1l5.2-7c-2.5-1.7-5.2-3-8-3.8-2.8-.8-5.8-1.2-8.8-1.2s-6.4.5-8.9,1.6c-2.5,1-4.5,2.5-5.9,4.5-1.4,1.9-2.1,4.2-2.1,6.9s1.1,5.9,3.2,7.9c2.1,2,5.2,3.3,9.2,3.9l7.8,1.2c1.8.3,3.1.7,3.9,1.3s1.2,1.4,1.2,2.5-.7,2.4-2.2,3.2c-1.4.8-3.3,1.2-5.8,1.2s-4.3-.4-6.4-1.2c-2.2-.8-4.4-1.9-6.8-3.5l-5.3,7.2c2.3,1.8,5.1,3.2,8.3,4.1,3.2,1,6.6,1.4,10.3,1.4s6.5-.6,9.2-1.8,4.8-2.8,6.4-4.8c1.6-2,2.3-4.3,2.3-6.9s-1.1-5.7-3.2-7.7h0Z"/>
              <path class="cls-1" d="M301.4,150.5h-13.1l-22.5,54.7h11.8l5.5-14.3h22.7l5.6,14.3h12.3l-22.2-54.7h0ZM286.7,181.8l8-20.2,7.7,20.2h-15.7Z"/>
              <path class="cls-1" d="M358.6,184.8c-2.1-2-5.2-3.3-9.3-3.9l-7.8-1.1c-2-.3-3.4-.8-4.2-1.4-.8-.6-1.2-1.5-1.2-2.6s.6-2.2,1.8-2.9c1.2-.7,2.7-1.1,4.7-1.1s4.1.3,6.1.9c2.1.6,4.2,1.6,6.4,3.1l5.2-7c-2.5-1.7-5.2-3-8-3.8-2.8-.8-5.8-1.2-8.8-1.2s-6.4.5-8.9,1.6c-2.5,1-4.5,2.5-5.9,4.4-1.4,1.9-2.1,4.2-2.1,6.9s1.1,5.9,3.2,7.9c2.1,2,5.2,3.3,9.2,4l7.8,1.2c1.8.3,3.1.7,3.9,1.3.8.6,1.2,1.4,1.2,2.5s-.7,2.4-2.2,3.2-3.4,1.2-5.8,1.2-4.3-.4-6.5-1.2c-2.2-.8-4.4-2-6.8-3.5l-5.3,7.2c2.4,1.8,5.1,3.1,8.3,4.1,3.2,1,6.6,1.4,10.3,1.4s6.5-.6,9.2-1.8c2.7-1.2,4.8-2.8,6.4-4.8s2.4-4.3,2.4-6.9-1.1-5.7-3.2-7.8h0Z"/>
              <path class="cls-1" d="M397,184.8c-2.1-2-5.2-3.3-9.3-3.9l-7.8-1.1c-2-.3-3.4-.8-4.2-1.4-.8-.6-1.2-1.5-1.2-2.6s.6-2.2,1.8-2.9c1.2-.7,2.7-1.1,4.7-1.1s4.1.3,6.1.9c2.1.6,4.2,1.6,6.5,3.1l5.2-7c-2.5-1.7-5.2-3-8-3.8-2.8-.8-5.8-1.2-8.8-1.2s-6.4.5-8.9,1.6c-2.5,1-4.5,2.5-5.9,4.4-1.4,1.9-2.1,4.2-2.1,6.9s1.1,5.9,3.2,7.9c2.1,2,5.2,3.3,9.2,4l7.8,1.2c1.8.3,3.1.7,3.9,1.3.8.6,1.2,1.4,1.2,2.5s-.7,2.4-2.1,3.2c-1.4.8-3.4,1.2-5.8,1.2s-4.3-.4-6.5-1.2c-2.2-.8-4.4-2-6.8-3.5l-5.3,7.2c2.3,1.8,5.1,3.1,8.3,4.1,3.2,1,6.6,1.4,10.3,1.4s6.5-.6,9.2-1.8,4.8-2.8,6.4-4.8,2.3-4.3,2.3-6.9-1.1-5.7-3.2-7.8h0Z"/>
              <path class="cls-1" d="M405.5,164.5v40.7h10.7v-40.7h-10.7ZM415.2,149.2c-1.2-1.2-2.6-1.8-4.3-1.8s-3.1.6-4.3,1.8-1.8,2.6-1.8,4.3.6,3.2,1.8,4.4,2.6,1.8,4.3,1.8,3.2-.6,4.3-1.8c1.2-1.2,1.8-2.7,1.8-4.4s-.6-3.1-1.8-4.3Z"/>
              <path class="cls-1" d="M454.5,184.8c-2.1-2-5.2-3.3-9.3-3.9l-7.8-1.1c-2-.3-3.4-.8-4.2-1.4-.8-.6-1.2-1.5-1.2-2.6s.6-2.2,1.8-2.9c1.2-.7,2.7-1.1,4.7-1.1s4.1.3,6.1.9c2.1.6,4.2,1.6,6.4,3.1l5.2-7c-2.5-1.7-5.2-3-8-3.8-2.8-.8-5.8-1.2-8.8-1.2s-6.4.5-8.9,1.6c-2.5,1-4.5,2.5-5.9,4.4-1.4,1.9-2.1,4.2-2.1,6.9s1.1,5.9,3.2,7.9c2.1,2,5.2,3.3,9.2,4l7.8,1.2c1.8.3,3.1.7,3.9,1.3.8.6,1.2,1.4,1.2,2.5s-.7,2.4-2.2,3.2c-1.4.8-3.4,1.2-5.8,1.2s-4.3-.4-6.5-1.2c-2.2-.8-4.4-2-6.8-3.5l-5.3,7.2c2.4,1.8,5.1,3.1,8.3,4.1,3.2,1,6.6,1.4,10.3,1.4s6.5-.6,9.2-1.8c2.7-1.2,4.8-2.8,6.4-4.8s2.4-4.3,2.4-6.9-1.1-5.7-3.2-7.8h0Z"/>
              <path class="cls-1" d="M526.1,167.6c-3-2.6-7.3-4-12.9-4s-5.8.4-8.8,1.1c-1.8.4-3.5,1-5.4,1.7v9.5c2.5-1.1,4.9-2,6.9-2.5,2-.6,3.9-.8,5.5-.8,2.8,0,4.9.6,6.4,1.8,1.5,1.2,2.2,3,2.2,5.3v3c-3.1-1.1-6.5-1.6-10-1.6-5.2,0-9.3,1.1-12.2,3.2-2.9,2.2-4.4,5.2-4.4,9.1s.6,4.6,1.9,6.5c1.2,1.9,3,3.4,5.2,4.4,2.2,1.1,4.8,1.6,7.7,1.6s4.5-.3,6.4-.9,3.7-1.5,5.4-2.7v2.9h10.6v-26.4c0-4.8-1.5-8.5-4.5-11.1h0ZM520.1,195.6c-1.2.9-2.6,1.6-4.1,2-1.5.4-3.1.6-4.9.6s-4-.5-5.4-1.4c-1.4-.9-2-2.2-2-3.7s.7-2.9,2.1-3.8c1.4-.9,3.3-1.3,5.8-1.3s3.1.1,4.5.4c1.4.2,2.8.6,4.1,1.2v5.9h0Z"/>
            </g>
            <path class="cls-1" d="M478.4,173.4v18.1c0,1.9.4,3.2,1.3,4,.9.8,2.3,1.2,4.3,1.2s2.1,0,2.9-.2,1.8-.4,2.9-.7v8.8c-1.1.4-2.5.6-4.1.9-1.6.2-3,.3-4.3.3-4.5,0-7.9-1-10.2-3.1-2.3-2.1-3.5-5-3.5-9v-20.4h-8.4v-8.9h8.4v-12.8l10.6,5.1v7.8h11.7v8.9h-11.7,0Z"/>
          </g>
          <g>
            <g>
              <path class="cls-1" d="M306.5,99.9c-2.5,1.2-5.2,1.8-8.1,1.8s-5-.4-7.2-1.3c-2.2-.9-4-2.1-5.6-3.7-1.6-1.6-2.8-3.5-3.8-5.6-.9-2.2-1.4-4.5-1.4-7s.4-5,1.3-7.1c.9-2.1,2.1-4,3.7-5.6,1.6-1.6,3.4-2.8,5.5-3.8,2.1-.9,4.4-1.4,6.9-1.4s5.8.6,8.4,1.8c2.6,1.2,4.9,3.1,6.8,5.5l7.7-7.5c-1.7-2.1-3.8-4-6.2-5.5-2.4-1.5-5-2.7-7.9-3.5-2.8-.8-5.7-1.2-8.8-1.2s-7.9.7-11.4,2.2c-3.5,1.4-6.6,3.5-9.3,6-2.7,2.6-4.7,5.6-6.2,9-1.5,3.4-2.2,7.1-2.2,11.1s.7,7.7,2.2,11.1c1.5,3.4,3.5,6.4,6.2,9,2.6,2.6,5.7,4.6,9.3,6s7.4,2.2,11.4,2.2,5.7-.4,8.5-1.2c2.8-.8,5.4-2,7.8-3.5,2.4-1.5,4.4-3.3,6.1-5.4l-7.4-7.3c-1.9,2.2-4.1,4-6.6,5.2h0Z"/>
              <path class="cls-1" d="M355.7,70.6l-11.5,27.8-10.1-27.8h-11.9l15.9,41.1-.6,1.6c-1.5,3.7-4.2,5.6-8.1,5.6s-2.7-.1-3.7-.3v9.2c.5.2,1.2.3,2.1.4.9,0,1.8.1,2.7.1,3,0,5.5-.4,7.7-1.4,2.2-.9,4.1-2.4,5.8-4.4,1.7-2,3.2-4.6,4.6-7.9l18.8-44h-11.6,0Z"/>
              <path class="cls-1" d="M411.7,80.4c-1.8-3.2-4.3-5.7-7.5-7.6-3.1-1.9-6.6-2.8-10.5-2.7-4.4,0-8.2,1.3-11.4,3.8v-19.1l-10.7,1.8v54.7h10.5v-2.8c1.7,1.1,3.4,1.9,5.3,2.5,1.9.6,3.9.9,5.9.9,3.9,0,7.5-.9,10.6-2.8,3.2-1.8,5.7-4.3,7.6-7.5,1.9-3.2,2.8-6.7,2.8-10.6s-.9-7.5-2.8-10.7h0ZM402.3,97.1c-1,1.8-2.5,3.2-4.3,4.3-1.8,1-3.8,1.5-6.1,1.5s-3.8-.3-5.4-1-3.1-1.6-4.3-2.8v-15.9c1.1-1.3,2.5-2.3,4.2-2.9,1.7-.7,3.5-1,5.5-1s4.3.5,6.1,1.6,3.2,2.4,4.3,4.2c1,1.8,1.6,3.8,1.6,6s-.5,4.2-1.6,6h0Z"/>
              <path class="cls-1" d="M442.5,69.7c-2.3,0-4.4.5-6.2,1.4s-3.4,2.3-4.7,4.1v-4.5h-10.8v40.7h10.8v-26.4c1-1.9,2.4-3.4,4.1-4.5,1.7-1.1,3.6-1.6,5.7-1.6s1.9.1,2.8.3c.9.2,1.8.5,2.6.9v-9.5c-.9-.5-2.4-.8-4.5-.9h0Z"/>
              <path class="cls-1" d="M489.9,80.3c-1.9-3.2-4.5-5.7-7.8-7.6-3.3-1.8-7-2.8-11-2.8s-7.7.9-11,2.8-5.9,4.4-7.8,7.6c-1.9,3.2-2.9,6.8-2.9,10.7s1,7.5,2.9,10.7c1.9,3.2,4.5,5.8,7.8,7.6,3.3,1.9,7,2.8,11,2.8s7.8-.9,11.1-2.8c3.3-1.9,5.9-4.4,7.8-7.6,1.9-3.2,2.9-6.8,2.9-10.7s-1-7.6-2.9-10.7h0ZM480.9,97c-1,1.8-2.4,3.2-4.1,4.3-1.7,1.1-3.6,1.6-5.8,1.6s-4-.5-5.8-1.6c-1.7-1.1-3-2.5-4-4.3-1-1.8-1.5-3.8-1.5-6s.5-4.2,1.5-5.9c1-1.8,2.4-3.2,4.1-4.2,1.7-1,3.6-1.6,5.8-1.6s4,.5,5.7,1.6c1.7,1,3,2.4,4.1,4.2,1,1.8,1.5,3.8,1.5,5.9s-.5,4.2-1.5,6h0Z"/>
              <path class="cls-1" d="M529.2,91c-2.2-2-5.2-3.3-9.3-3.9l-7.8-1.1c-2-.3-3.4-.8-4.2-1.4s-1.2-1.5-1.2-2.6.6-2.2,1.8-2.9c1.2-.7,2.7-1.1,4.7-1.1s4.1.3,6.1.9c2.1.6,4.2,1.6,6.5,3.1l5.2-7c-2.5-1.7-5.2-3-8-3.8-2.8-.8-5.8-1.2-8.8-1.2s-6.4.5-8.9,1.6c-2.5,1-4.5,2.5-5.9,4.5-1.4,1.9-2.1,4.2-2.1,6.9s1.1,5.9,3.2,7.9c2.1,2,5.2,3.3,9.2,3.9l7.8,1.2c1.8.3,3.1.7,3.9,1.3s1.2,1.4,1.2,2.5-.7,2.4-2.2,3.2c-1.4.8-3.3,1.2-5.8,1.2s-4.3-.4-6.4-1.2c-2.2-.8-4.4-1.9-6.8-3.5l-5.3,7.2c2.3,1.8,5.1,3.2,8.3,4.1,3.2,1,6.6,1.4,10.3,1.4s6.5-.6,9.2-1.8,4.8-2.8,6.4-4.8c1.6-2,2.3-4.3,2.3-6.9s-1.1-5.7-3.2-7.7h0Z"/>
              <path class="cls-1" d="M566.2,70.6l-11.5,27.8-10.1-27.8h-11.9l15.9,41.1-.6,1.6c-1.5,3.7-4.2,5.6-8.1,5.6s-2.7-.1-3.7-.3v9.2c.5.2,1.2.3,2.1.4.9,0,1.8.1,2.7.1,3,0,5.5-.4,7.7-1.4,2.2-.9,4.1-2.4,5.8-4.4,1.7-2,3.2-4.6,4.6-7.9l18.8-44h-11.6,0Z"/>
              <path class="cls-1" d="M612,91c-2.2-2-5.2-3.3-9.3-3.9l-7.8-1.1c-2-.3-3.4-.8-4.2-1.4-.8-.6-1.2-1.5-1.2-2.6s.6-2.2,1.8-2.9c1.2-.7,2.7-1.1,4.7-1.1s4.1.3,6.1.9,4.2,1.6,6.5,3.1l5.2-7c-2.5-1.7-5.2-3-8-3.8-2.8-.8-5.8-1.2-8.8-1.2s-6.4.5-8.9,1.6c-2.5,1-4.5,2.5-5.9,4.5-1.4,1.9-2.1,4.2-2.1,6.9s1.1,5.9,3.2,7.9c2.1,2,5.2,3.3,9.2,3.9l7.8,1.2c1.8.3,3.1.7,3.9,1.3s1.2,1.4,1.2,2.5-.7,2.4-2.2,3.2c-1.4.8-3.3,1.2-5.8,1.2s-4.3-.4-6.4-1.2c-2.2-.8-4.4-1.9-6.8-3.5l-5.3,7.2c2.3,1.8,5.1,3.2,8.3,4.1,3.2,1,6.6,1.4,10.3,1.4s6.5-.6,9.2-1.8,4.8-2.8,6.4-4.8c1.6-2,2.3-4.3,2.3-6.9s-1.1-5.7-3.2-7.7h0Z"/>
              <path class="cls-1" d="M301.4,150.5h-13.1l-22.5,54.7h11.8l5.5-14.3h22.7l5.6,14.3h12.3l-22.2-54.7h0ZM286.7,181.8l8-20.2,7.7,20.2h-15.7Z"/>
              <path class="cls-1" d="M358.6,184.8c-2.1-2-5.2-3.3-9.3-3.9l-7.8-1.1c-2-.3-3.4-.8-4.2-1.4-.8-.6-1.2-1.5-1.2-2.6s.6-2.2,1.8-2.9c1.2-.7,2.7-1.1,4.7-1.1s4.1.3,6.1.9c2.1.6,4.2,1.6,6.4,3.1l5.2-7c-2.5-1.7-5.2-3-8-3.8-2.8-.8-5.8-1.2-8.8-1.2s-6.4.5-8.9,1.6c-2.5,1-4.5,2.5-5.9,4.4-1.4,1.9-2.1,4.2-2.1,6.9s1.1,5.9,3.2,7.9c2.1,2,5.2,3.3,9.2,4l7.8,1.2c1.8.3,3.1.7,3.9,1.3.8.6,1.2,1.4,1.2,2.5s-.7,2.4-2.2,3.2-3.4,1.2-5.8,1.2-4.3-.4-6.5-1.2c-2.2-.8-4.4-2-6.8-3.5l-5.3,7.2c2.4,1.8,5.1,3.1,8.3,4.1,3.2,1,6.6,1.4,10.3,1.4s6.5-.6,9.2-1.8c2.7-1.2,4.8-2.8,6.4-4.8s2.4-4.3,2.4-6.9-1.1-5.7-3.2-7.8h0Z"/>
              <path class="cls-1" d="M397,184.8c-2.1-2-5.2-3.3-9.3-3.9l-7.8-1.1c-2-.3-3.4-.8-4.2-1.4-.8-.6-1.2-1.5-1.2-2.6s.6-2.2,1.8-2.9c1.2-.7,2.7-1.1,4.7-1.1s4.1.3,6.1.9c2.1.6,4.2,1.6,6.5,3.1l5.2-7c-2.5-1.7-5.2-3-8-3.8-2.8-.8-5.8-1.2-8.8-1.2s-6.4.5-8.9,1.6c-2.5,1-4.5,2.5-5.9,4.4-1.4,1.9-2.1,4.2-2.1,6.9s1.1,5.9,3.2,7.9c2.1,2,5.2,3.3,9.2,4l7.8,1.2c1.8.3,3.1.7,3.9,1.3.8.6,1.2,1.4,1.2,2.5s-.7,2.4-2.1,3.2c-1.4.8-3.4,1.2-5.8,1.2s-4.3-.4-6.5-1.2c-2.2-.8-4.4-2-6.8-3.5l-5.3,7.2c2.3,1.8,5.1,3.1,8.3,4.1,3.2,1,6.6,1.4,10.3,1.4s6.5-.6,9.2-1.8,4.8-2.8,6.4-4.8,2.3-4.3,2.3-6.9-1.1-5.7-3.2-7.8h0Z"/>
              <path class="cls-1" d="M405.5,164.5v40.7h10.7v-40.7h-10.7ZM415.2,149.2c-1.2-1.2-2.6-1.8-4.3-1.8s-3.1.6-4.3,1.8-1.8,2.6-1.8,4.3.6,3.2,1.8,4.4,2.6,1.8,4.3,1.8,3.2-.6,4.3-1.8c1.2-1.2,1.8-2.7,1.8-4.4s-.6-3.1-1.8-4.3Z"/>
              <path class="cls-1" d="M454.5,184.8c-2.1-2-5.2-3.3-9.3-3.9l-7.8-1.1c-2-.3-3.4-.8-4.2-1.4-.8-.6-1.2-1.5-1.2-2.6s.6-2.2,1.8-2.9c1.2-.7,2.7-1.1,4.7-1.1s4.1.3,6.1.9c2.1.6,4.2,1.6,6.4,3.1l5.2-7c-2.5-1.7-5.2-3-8-3.8-2.8-.8-5.8-1.2-8.8-1.2s-6.4.5-8.9,1.6c-2.5,1-4.5,2.5-5.9,4.4-1.4,1.9-2.1,4.2-2.1,6.9s1.1,5.9,3.2,7.9c2.1,2,5.2,3.3,9.2,4l7.8,1.2c1.8.3,3.1.7,3.9,1.3.8.6,1.2,1.4,1.2,2.5s-.7,2.4-2.2,3.2c-1.4.8-3.4,1.2-5.8,1.2s-4.3-.4-6.5-1.2c-2.2-.8-4.4-2-6.8-3.5l-5.3,7.2c2.4,1.8,5.1,3.1,8.3,4.1,3.2,1,6.6,1.4,10.3,1.4s6.5-.6,9.2-1.8c2.7-1.2,4.8-2.8,6.4-4.8s2.4-4.3,2.4-6.9-1.1-5.7-3.2-7.8h0Z"/>
              <path class="cls-1" d="M526.1,167.6c-3-2.6-7.3-4-12.9-4s-5.8.4-8.8,1.1c-1.8.4-3.5,1-5.4,1.7v9.5c2.5-1.1,4.9-2,6.9-2.5,2-.6,3.9-.8,5.5-.8,2.8,0,4.9.6,6.4,1.8,1.5,1.2,2.2,3,2.2,5.3v3c-3.1-1.1-6.5-1.6-10-1.6-5.2,0-9.3,1.1-12.2,3.2-2.9,2.2-4.4,5.2-4.4,9.1s.6,4.6,1.9,6.5c1.2,1.9,3,3.4,5.2,4.4,2.2,1.1,4.8,1.6,7.7,1.6s4.5-.3,6.4-.9,3.7-1.5,5.4-2.7v2.9h10.6v-26.4c0-4.8-1.5-8.5-4.5-11.1h0ZM520.1,195.6c-1.2.9-2.6,1.6-4.1,2-1.5.4-3.1.6-4.9.6s-4-.5-5.4-1.4c-1.4-.9-2-2.2-2-3.7s.7-2.9,2.1-3.8c1.4-.9,3.3-1.3,5.8-1.3s3.1.1,4.5.4c1.4.2,2.8.6,4.1,1.2v5.9h0Z"/>
            </g>
            <path class="cls-1" d="M478.4,173.4v18.1c0,1.9.4,3.2,1.3,4,.9.8,2.3,1.2,4.3,1.2s2.1,0,2.9-.2,1.8-.4,2.9-.7v8.8c-1.1.4-2.5.6-4.1.9-1.6.2-3,.3-4.3.3-4.5,0-7.9-1-10.2-3.1-2.3-2.1-3.5-5-3.5-9v-20.4h-8.4v-8.9h8.4v-12.8l10.6,5.1v7.8h11.7v8.9h-11.7,0Z"/>
          </g>
        </g>
      </g>
    </g>
  </g>
</svg>