<?xml version="1.0" encoding="UTF-8"?>
<svg id="Layer_2" data-name="Layer 2" xmlns="http://www.w3.org/2000/svg" viewBox="0 0 762.01 105.45">
  <g id="Layer_1-2" data-name="Layer 1">
    <g>
      <path d="M29.73,77.57c-6.64,0-13.17-2.23-18.38-6.35-5.09-4.02-8.77-9.69-10.36-15.98C-.44,49.58.1,43.54.1,37.76s-.05-12.8,5.38-20.51c3.72-5.28,9.17-9.26,15.34-11.18,2.88-.9,5.89-1.35,8.91-1.35h25.11v14.36h-25.11c-7.88,0-14.05,5.76-15.15,12.99-.27,1.64-.19,16.97,0,18.09,1.13,7.5,7.4,13.03,15.16,13.03h25.11v14.37h-25.11Z"/>
      <path d="M98.37,77.52c0,15.42-12.5,27.93-27.93,27.93-2.41,0-4.75-.3-6.98-.88v-14.97c2.06,1.19,4.44,1.88,6.98,1.88,7.71,0,13.97-6.25,13.97-13.96-15.43,0-27.93-12.5-27.93-27.93v-27.93h13.97v27.93c0,7.71,6.25,13.96,13.97,13.96V21.66h13.96v55.86h0Z"/>
      <path d="M133.8,77.52c-15.43,0-27.93-12.5-27.93-27.93V.72h13.97v48.87c0,7.71,6.25,13.96,13.96,13.96s13.97-6.25,13.97-13.96-6.25-13.96-13.97-13.96c-2.55,0-4.93.69-6.98,1.88v-14.97c2.23-.58,4.57-.88,6.98-.88,15.42,0,27.93,12.5,27.93,27.93,0,15.42-12.5,27.93-27.93,27.93Z"/>
      <path d="M166.1,49.59c0-15.42,12.5-27.93,27.93-27.93v13.96c-7.71,0-13.96,6.25-13.96,13.96v27.93h-13.96v-27.93Z"/>
      <path d="M222.18,77.52c-15.43,0-27.93-12.5-27.93-27.93s12.5-27.93,27.93-27.93,27.93,12.5,27.93,27.93-12.5,27.93-27.93,27.93ZM236.14,49.59c0-7.82-6.41-13.96-13.96-13.96s-13.96,6.25-13.96,13.96,6.31,13.96,13.96,13.96c7.7,0,13.96-6.24,13.96-13.96Z"/>
      <path d="M280.18,77.5s-.07,0-.11,0h-25.49v-13.88h25.6c1.92,0,3.47-1.56,3.47-3.47s-1.55-3.47-3.47-3.47h-9.74c-9.51-.1-17.18-7.83-17.18-17.36s7.77-17.36,17.36-17.36c.01,0,.02,0,.04,0h0s23.42,0,23.42,0v13.89h-23.45c-1.92,0-3.47,1.56-3.47,3.47s1.55,3.47,3.47,3.47h9.74c9.51.1,17.18,7.83,17.18,17.36s-7.77,17.36-17.36,17.36Z"/>
      <path d="M343.67,77.52c0,15.42-12.5,27.93-27.93,27.93-2.41,0-4.75-.3-6.98-.88v-14.97c2.06,1.19,4.44,1.88,6.98,1.88,7.71,0,13.97-6.25,13.97-13.96-15.42,0-27.93-12.5-27.93-27.93v-27.93h13.97v27.93c0,7.71,6.25,13.96,13.97,13.96V21.66h13.96v55.86h0Z"/>
      <path d="M377.42,77.5s-.07,0-.11,0h-25.49v-13.88h25.6c1.92,0,3.47-1.56,3.47-3.47s-1.55-3.47-3.47-3.47h-9.74c-9.51-.1-17.18-7.83-17.18-17.36s7.77-17.36,17.36-17.36c.01,0,.02,0,.04,0h0s23.42,0,23.42,0v13.89h-23.45c-1.92,0-3.47,1.56-3.47,3.47s1.55,3.47,3.47,3.47h9.74c9.51.1,17.18,7.83,17.18,17.36s-7.77,17.36-17.36,17.36Z"/>
      <path d="M436.68,49.35c0-16.03-2.15-27.63,9.63-38.55,11.41-10.58,29.24-10.65,40.69.38,5.67,5.46,8.77,12.18,9.23,19.96v.14c.07,9.61.07,36.73.07,46.28h-14.44v-26.59h-30.74v26.59h-14.44c0-9.25,0-16.25,0-28.22ZM481.87,36.55c0-4.28.63-9.88-4.96-15.12-5.8-5.45-14.61-5.52-20.46-.37-5.98,5.27-5.32,11.13-5.32,15.49h30.74Z"/>
      <path d="M529.57,77.5s-.07,0-.11,0h-25.49v-13.88h25.6c1.92,0,3.47-1.56,3.47-3.47s-1.55-3.47-3.47-3.47h-9.74c-9.51-.1-17.18-7.83-17.18-17.36s7.77-17.36,17.36-17.36c.01,0,.02,0,.04,0h0s23.42,0,23.42,0v13.89h-23.45c-1.92,0-3.47,1.56-3.47,3.47s1.55,3.47,3.47,3.47h9.74c9.51.1,17.18,7.83,17.18,17.36s-7.77,17.36-17.36,17.36Z"/>
      <path d="M577.66,77.5s-.07,0-.11,0h-25.49v-13.88h25.6c1.92,0,3.47-1.56,3.47-3.47s-1.56-3.47-3.47-3.47h-9.74c-9.51-.1-17.18-7.83-17.18-17.36s7.77-17.36,17.36-17.36c.01,0,.02,0,.04,0h0s23.42,0,23.42,0v13.89h-23.45c-1.92,0-3.47,1.56-3.47,3.47s1.56,3.47,3.47,3.47h9.74c9.51.1,17.18,7.83,17.18,17.36,0,9.59-7.77,17.36-17.36,17.36Z"/>
      <path d="M600.44,7.7c0-4.25,3.44-7.7,7.7-7.7s7.7,3.45,7.7,7.7-3.45,7.7-7.7,7.7-7.7-3.45-7.7-7.7ZM601.15,77.52V21.66h13.97v55.86h-13.97Z"/>
      <path d="M648.69,77.5s-.07,0-.11,0h-25.49v-13.88h25.6c1.92,0,3.47-1.56,3.47-3.47s-1.55-3.47-3.47-3.47h-9.74c-9.51-.1-17.18-7.83-17.18-17.36s7.77-17.36,17.36-17.36c.01,0,.02,0,.04,0h0s23.42,0,23.42,0v13.89h-23.45c-1.92,0-3.47,1.56-3.47,3.47s1.55,3.47,3.47,3.47h9.74c9.51.1,17.18,7.83,17.18,17.36s-7.77,17.36-17.36,17.36Z"/>
      <path d="M698.22,77.52c-15.42,0-27.93-12.5-27.93-27.93V7.7h13.97v20.95h13.97v13.96h-13.97v6.98c0,7.71,6.25,13.97,13.97,13.97,2.55,0,4.93-.69,6.98-1.88v14.97c-2.23.57-4.57.88-6.98.88Z"/>
      <path d="M762.01,49.59v27.93h-13.96v-27.93c0-7.71-6.25-13.96-13.96-13.96s-13.96,6.25-13.96,13.96,6.25,13.96,13.96,13.96c2.55,0,4.93-.69,6.98-1.88v14.97c-2.23.57-4.57.88-6.98.88-15.42,0-27.93-12.51-27.93-27.93s12.5-27.93,27.93-27.93,27.93,12.5,27.93,27.93Z"/>
    </g>
  </g>
</svg>