<?xml version="1.0" encoding="UTF-8"?>
<svg id="Layer_2" data-name="Layer 2" xmlns="http://www.w3.org/2000/svg" viewBox="0 0 773.51 95.5">
  <g id="Layer_1-2" data-name="Layer 1">
    <g>
      <path d="M36.51,61.38c7.56,0,13.83-2.69,18.11-7.26l9.75,7.96c-6.36,7.26-16.02,11.54-27.85,11.54C14.62,73.61,0,58.99,0,37.1S14.62.6,36.51.6c11.84,0,21.49,4.28,27.85,11.54l-9.75,7.96c-4.28-4.58-10.55-7.26-18.11-7.26-14.52,0-24.27,9.75-24.27,24.27s9.75,24.27,24.27,24.27Z"/>
      <path d="M114.57,19.5v57.89c0,10.84-9.95,18.1-18.5,18.1h-19v-11.44h16.71c4.58,0,8.85-3.18,8.85-7.96v-4.77c-3.18,1.49-6.87,2.29-10.94,2.29-14.23,0-23.38-9.15-23.38-22.88v-31.23h11.94v29.44c0,7.86,4.48,12.53,11.24,12.53s11.14-4.68,11.14-12.53v-29.44h11.94Z"/>
      <path d="M122.71,1.59h11.94v20.99c4.28-2.69,9.65-4.18,15.72-4.18,16.51,0,27.55,11.04,27.55,27.65s-11.04,27.55-27.55,27.55-27.66-11.04-27.66-27.55V1.59ZM150.37,61.68c9.35,0,15.62-6.27,15.62-15.62s-6.27-15.72-15.62-15.72-15.72,6.27-15.72,15.72,6.27,15.62,15.72,15.62Z"/>
      <path d="M184.07,72.62v-35.02c0-10.84,9.95-18.1,18.5-18.1h13.13v11.44h-10.84c-4.58,0-8.85,3.18-8.85,7.96v33.72h-11.94Z"/>
      <path d="M246.37,18.4c16.51,0,27.55,11.04,27.55,27.55s-11.04,27.65-27.55,27.65-27.66-11.04-27.66-27.65,11.04-27.55,27.66-27.55ZM246.37,61.68c9.35,0,15.62-6.27,15.62-15.72s-6.27-15.62-15.62-15.62-15.72,6.27-15.72,15.62,6.27,15.72,15.72,15.72Z"/>
      <path d="M308.17,34.82c0-2.59-3.08-4.48-8.75-4.48-4.87,0-8.06,1.39-8.06,3.48,0,6.47,30.24,3.78,30.24,22.78,0,10.15-8.76,17.01-21.49,17.01s-21.69-7.16-21.69-17.81h11.94c0,3.78,3.48,5.87,9.55,5.87s9.75-1.99,9.75-4.87c0-8.26-30.24-4.48-30.24-22.58,0-9.45,8.16-15.82,20.19-15.82s20.49,6.57,20.49,16.41h-11.94Z"/>
      <path d="M373.75,19.5v57.89c0,10.84-9.95,18.1-18.5,18.1h-19v-11.44h16.71c4.57,0,8.85-3.18,8.85-7.96v-4.77c-3.18,1.49-6.86,2.29-10.94,2.29-14.22,0-23.37-9.15-23.37-22.88v-31.23h11.94v29.44c0,7.86,4.48,12.53,11.24,12.53s11.14-4.68,11.14-12.53v-29.44h11.94Z"/>
      <path d="M410.38,34.82c0-2.59-3.09-4.48-8.76-4.48-4.87,0-8.06,1.39-8.06,3.48,0,6.47,30.24,3.78,30.24,22.78,0,10.15-8.75,17.01-21.49,17.01s-21.69-7.16-21.69-17.81h11.94c0,3.78,3.48,5.87,9.55,5.87s9.75-1.99,9.75-4.87c0-8.26-30.24-4.48-30.24-22.58,0-9.45,8.16-15.82,20.19-15.82s20.49,6.57,20.49,16.41h-11.94Z"/>
      <path d="M482.1,1.59h12.14l24.97,71.02h-12.14l-6.37-18.2h-25.07l-6.37,18.2h-12.14L482.1,1.59ZM496.62,42.97l-8.46-24.07-8.46,24.07h16.91Z"/>
      <path d="M550.75,34.82c0-2.59-3.09-4.48-8.76-4.48-4.87,0-8.06,1.39-8.06,3.48,0,6.47,30.24,3.78,30.24,22.78,0,10.15-8.75,17.01-21.49,17.01s-21.69-7.16-21.69-17.81h11.94c0,3.78,3.48,5.87,9.55,5.87s9.75-1.99,9.75-4.87c0-8.26-30.24-4.48-30.24-22.58,0-9.45,8.16-15.82,20.19-15.82s20.49,6.57,20.49,16.41h-11.94Z"/>
      <path d="M598.89,34.82c0-2.59-3.08-4.48-8.75-4.48-4.87,0-8.06,1.39-8.06,3.48,0,6.47,30.24,3.78,30.24,22.78,0,10.15-8.76,17.01-21.49,17.01s-21.69-7.16-21.69-17.81h11.94c0,3.78,3.48,5.87,9.55,5.87s9.75-1.99,9.75-4.87c0-8.26-30.24-4.48-30.24-22.58,0-9.45,8.16-15.82,20.19-15.82s20.49,6.57,20.49,16.41h-11.94Z"/>
      <path d="M625.23,0c4.48,0,7.46,2.98,7.46,7.46s-2.98,7.46-7.46,7.46-7.46-2.98-7.46-7.46,2.99-7.46,7.46-7.46ZM619.26,19.5h11.94v53.12h-11.94V19.5Z"/>
      <path d="M667.77,34.82c0-2.59-3.09-4.48-8.76-4.48-4.87,0-8.06,1.39-8.06,3.48,0,6.47,30.24,3.78,30.24,22.78,0,10.15-8.75,17.01-21.49,17.01s-21.69-7.16-21.69-17.81h11.94c0,3.78,3.48,5.87,9.55,5.87s9.75-1.99,9.75-4.87c0-8.26-30.24-4.48-30.24-22.58,0-9.45,8.16-15.82,20.19-15.82s20.49,6.57,20.49,16.41h-11.94Z"/>
      <path d="M690.16,19.5V6.96h11.94v12.53h12.73v11.44h-12.73v22.28c0,4.77,4.28,7.96,8.85,7.96h3.88v11.44h-6.17c-8.55,0-18.5-7.26-18.5-18.1v-23.58h-4.97v-11.44h4.97Z"/>
      <path d="M773.51,72.62h-11.94v-3.18c-4.28,2.69-9.65,4.18-15.72,4.18-16.51,0-27.55-11.04-27.55-27.55s11.04-27.65,27.55-27.65,27.66,11.04,27.66,27.65v26.56ZM745.86,30.34c-9.35,0-15.62,6.27-15.62,15.72s6.27,15.62,15.62,15.62,15.72-6.27,15.72-15.62-6.27-15.72-15.72-15.72Z"/>
    </g>
  </g>
</svg>