<?xml version="1.0" encoding="UTF-8"?>
<svg xmlns="http://www.w3.org/2000/svg" version="1.1" viewBox="0 0 900.9 91.7">
  <!-- Generator: Adobe Illustrator 28.6.0, SVG Export Plug-In . SVG Version: 1.2.0 Build 709)  -->
  <g>
    <g id="Layer_2">
      <g id="Layer_1-2">
        <g>
          <path d="M49.8,71.7H16.5l-8.4-8.4V13.3l8.4-8.3h33.3l8.3,8.3v15.5h-14.2v-11.1h-21.7v41.2h21.7v-11h14.2v15.4l-8.3,8.4h0Z"/>
          <path d="M69.6,73.9h13.1v6h18v-11.5h-23.2l-8.4-8.3V19.6h13.7v37h17.9V19.6h13.7v63.5l-8.4,8.3h-28l-8.4-8.3v-9.2h0Z"/>
          <path d="M127.9,71.7V.5h13.7v19.2h23l8.4,8.4v35.2l-8.4,8.4h-18.7l-5.9-5.9v5.9s-12.2,0-12.2,0ZM141.6,55.8l3.6,3.2h14.1v-26.9h-17.6s0,23.8,0,23.8Z"/>
          <path d="M198.9,71.7h-13.7V19.6h12.2v7l7-7h11.7v13.1h-13.1l-4,3.7v35.2h0Z"/>
          <path d="M231.5,19.6h28.3l8.4,8.4v35.2l-8.4,8.4h-28.3l-8.3-8.4V28.1l8.3-8.4ZM254.6,59.3v-27.1h-17.6v27.1h17.6Z"/>
          <path d="M310.3,61.6v-4.4l-30.3-16.5v-12.6l8.3-8.4h26.3l8.4,8.4v8.2h-12.9v-6.5h-16.6v4.4l30.4,16.5v12.6l-8.4,8.4h-27.3l-8.4-8.4v-7.7h12.8v5.9s17.7,0,17.7,0Z"/>
          <path d="M335.7,73.9h13.1v6h18v-11.5h-23.2l-8.4-8.3V19.6h13.7v37h17.9V19.6h13.7v63.5l-8.4,8.3h-28l-8.4-8.3v-9.2h0Z"/>
          <path d="M423.5,61.6v-4.4l-30.3-16.5v-12.6l8.3-8.4h26.3l8.4,8.4v8.2h-12.9v-6.5h-16.6v4.4l30.4,16.5v12.6l-8.4,8.4h-27.3l-8.4-8.4v-7.7h12.8v5.9h17.7Z"/>
        </g>
        <path d="M483.8,91.6h-18.1v-16.5l23.4-68.7h24.7l23.4,68.6v16.6h-18.1v-14.6l-2-5.9h-31.3l-2,5.9v14.6h0ZM501.4,21.3l-12,35h24l-12-35Z"/>
        <path d="M586.5,78.6v-5.6l-38.7-21.1v-16l10.7-10.8h33.5l10.8,10.8v10.5h-16.5v-8.3h-21.2v5.6l38.8,21.1v16l-10.8,10.8h-34.9l-10.8-10.8v-9.8h16.4v7.6h22.7,0Z"/>
        <path d="M656.6,78.6v-5.6l-38.7-21.1v-16l10.6-10.8h33.6l10.8,10.8v10.5h-16.5v-8.3h-21.2v5.6l38.8,21.1v16l-10.8,10.8h-34.9l-10.8-10.8v-9.8h16.4v7.6h22.6,0Z"/>
        <path d="M706.6,15.3h-17.9V.6h17.9v14.7ZM706.3,91.6h-17.5V25.1h17.5v66.5Z"/>
        <path d="M760.6,78.6v-5.6l-38.7-21.1v-16l10.6-10.8h33.5l10.8,10.8v10.5h-16.5v-8.3h-21.2v5.6l38.8,21.1v16l-10.8,10.8h-34.9l-10.8-10.8v-9.8h16.4v7.6h22.6,0Z"/>
        <path d="M830.6,91.6h-24.9l-10.8-10.8v-41.8h-8.7v-14h8.7v-14.2h17.5v14.2h17.1v14h-17.1v36.2h18.1v16.3h0Z"/>
        <path d="M896.4,35.9v55.7h-14.7v-7.7l-7.6,7.7h-23l-10.8-10.8v-16.2l10.8-10.8h28.4v-13.7h-21.8v6.5h-16.5v-10.8l10.8-10.8h33.7l10.8,10.8h0ZM879.5,63.3h-22.3v14.4h17.9l4.4-3.8v-10.6h0Z"/>
      </g>
    </g>
  </g>
</svg>