<?xml version="1.0" encoding="UTF-8"?>
<svg xmlns="http://www.w3.org/2000/svg" version="1.1" xmlns:xlink="http://www.w3.org/1999/xlink" viewBox="0 0 709.8 254.8">
  <defs>
    <style>
      .cls-1 {
        fill: url(#linear-gradient-2);
      }

      .cls-2 {
        fill: url(#linear-gradient-4);
      }

      .cls-3 {
        fill: url(#linear-gradient-3);
      }

      .cls-4 {
        fill: #d78b8f;
      }

      .cls-5 {
        fill: url(#linear-gradient);
      }
    </style>
    <linearGradient id="linear-gradient" x1="-10036.2" y1="58.8" x2="-9835.6" y2="58.8" gradientTransform="translate(-9801.3 256) rotate(-180)" gradientUnits="userSpaceOnUse">
      <stop offset="0" stop-color="#bc8487"/>
      <stop offset=".8" stop-color="#e3b2b3"/>
      <stop offset=".8" stop-color="#efd4d4"/>
      <stop offset=".9" stop-color="#faf3f3"/>
      <stop offset="1" stop-color="#fff"/>
    </linearGradient>
    <linearGradient id="linear-gradient-2" x1="-8889.9" y1="85.7" x2="-8965.4" y2="204.9" gradientTransform="translate(-8792 256) rotate(-180)" gradientUnits="userSpaceOnUse">
      <stop offset="0" stop-color="#bc8487"/>
      <stop offset=".4" stop-color="#d09c9e"/>
      <stop offset=".7" stop-color="#deacad"/>
      <stop offset="1" stop-color="#e3b2b3"/>
    </linearGradient>
    <linearGradient id="linear-gradient-3" x1="-778.5" y1="154.3" x2="-577.9" y2="154.3" gradientTransform="translate(778.5 256) scale(1 -1)" gradientUnits="userSpaceOnUse">
      <stop offset="0" stop-color="#bc8487"/>
      <stop offset=".8" stop-color="#e3b2b3"/>
      <stop offset="1" stop-color="#fff"/>
    </linearGradient>
    <linearGradient id="linear-gradient-4" x1="367.7" y1="181.2" x2="292.3" y2="300.4" gradientTransform="translate(-230.8 256) scale(1 -1)" gradientUnits="userSpaceOnUse">
      <stop offset="0" stop-color="#bc8487"/>
      <stop offset=".4" stop-color="#d09c9e"/>
      <stop offset=".7" stop-color="#deacad"/>
      <stop offset="1" stop-color="#e3b2b3"/>
    </linearGradient>
  </defs>
  <!-- Generator: Adobe Illustrator 28.6.0, SVG Export Plug-In . SVG Version: 1.2.0 Build 709)  -->
  <g>
    <g id="Layer_2">
      <g id="Layer_1-2">
        <g>
          <path class="cls-5" d="M118.8,163l-2.8-1.2-49.5-20.7s-1-.4-1-1.5v44.2c0,.6.3,1.1.9,1.3l168.6,69.7v-44.4l-116.1-47.4h0Z"/>
          <path class="cls-1" d="M65.4,139.6h0c0,.6.4,1.3,1,1.6l49.5,20.7,53.5-21.9v-44.4l-103,42.6s0,0,0,0c0,0,0,0,0,0,0,0-.2.1-.3.2l-.2.2c0,0-.1.1-.2.2,0,0,0,.1,0,.2,0,0,0,.2-.1.3,0,.1,0,.2,0,.4h0Z"/>
          <path class="cls-3" d="M0,114.9v44.4l168.6-69.7c.5-.2.9-.7.9-1.3v-44.2c0,1.1-1,1.5-1,1.5l-49.5,20.7-2.8,1.2L0,114.9Z"/>
          <path class="cls-2" d="M169.4,44.1h0c0,.6-.4,1.3-1,1.6l-49.5,20.7-53.5-21.9V0l103,42.6s0,0,0,0c0,0,0,0,0,0,0,0,.2.1.4.2l.2.2c0,0,.1.2.2.2,0,0,0,.1,0,.2,0,0,0,.2.1.3,0,.1,0,.2,0,.4h0Z"/>
        </g>
        <g>
          <g>
            <path class="cls-4" d="M327.1,89.5c-3.1,1.5-6.4,2.2-10,2.2s-6.2-.5-8.9-1.6c-2.7-1.1-5-2.6-7-4.6-2-2-3.5-4.3-4.6-7-1.1-2.7-1.7-5.6-1.7-8.7s.5-6.2,1.6-8.8c1.1-2.6,2.6-5,4.6-6.9,1.9-2,4.2-3.5,6.9-4.6,2.6-1.1,5.5-1.7,8.5-1.7s7.1.8,10.4,2.3c3.2,1.5,6,3.8,8.4,6.8l9.5-9.3c-2.1-2.6-4.7-4.9-7.7-6.8-3-1.9-6.2-3.3-9.8-4.4-3.5-1-7.1-1.5-10.8-1.5s-9.8.9-14.1,2.7c-4.4,1.8-8.2,4.3-11.5,7.5-3.3,3.2-5.9,6.9-7.7,11.2-1.8,4.2-2.8,8.8-2.8,13.7s.9,9.5,2.8,13.7c1.8,4.2,4.4,7.9,7.7,11.1,3.3,3.2,7.1,5.6,11.5,7.4s9.1,2.7,14.2,2.7,7.1-.5,10.6-1.5c3.5-1,6.7-2.4,9.6-4.3,2.9-1.9,5.5-4.1,7.6-6.7l-9.1-9.1c-2.3,2.8-5,4.9-8.1,6.4h0Z"/>
            <path class="cls-4" d="M388.1,53.3l-14.3,34.4-12.5-34.4h-14.7l19.7,50.9-.8,2c-1.9,4.6-5.2,6.9-10.1,6.9s-3.4-.1-4.6-.4v11.3c.7.2,1.5.4,2.6.5,1.1.1,2.2.1,3.3.1,3.7,0,6.9-.6,9.5-1.7,2.7-1.1,5-2.9,7.1-5.4,2.1-2.5,4-5.7,5.7-9.7l23.3-54.6h-14.4,0Z"/>
            <path class="cls-4" d="M457.5,65.3c-2.3-3.9-5.4-7-9.3-9.4-3.9-2.3-8.2-3.5-13-3.4-5.4,0-10.1,1.6-14.1,4.7v-23.7l-13.3,2.2v67.9h13.1v-3.5c2.1,1.4,4.3,2.4,6.6,3.1,2.3.7,4.8,1.1,7.4,1.1,4.8,0,9.2-1.2,13.2-3.4,3.9-2.3,7.1-5.4,9.4-9.3,2.3-3.9,3.5-8.3,3.5-13.2s-1.2-9.3-3.4-13.2h0ZM445.9,86c-1.3,2.3-3,4-5.3,5.3-2.2,1.3-4.7,1.9-7.5,1.9s-4.6-.4-6.7-1.3-3.9-2-5.3-3.5v-19.7c1.4-1.6,3.2-2.8,5.2-3.6,2.1-.8,4.3-1.2,6.8-1.2s5.3.6,7.5,1.9,4,3,5.3,5.2c1.3,2.2,1.9,4.7,1.9,7.5s-.6,5.2-1.9,7.5h0Z"/>
            <path class="cls-4" d="M495.7,52.1c-2.8,0-5.4.6-7.7,1.7s-4.2,2.8-5.8,5v-5.6h-13.4v50.5h13.4v-32.8c1.3-2.4,3-4.3,5.1-5.6,2.1-1.3,4.5-2,7.1-2s2.4.1,3.5.4c1.1.3,2.2.6,3.2,1.1v-11.7c-1.2-.6-3-1-5.5-1.1h0Z"/>
            <path class="cls-4" d="M554.5,65.3c-2.4-4-5.6-7.1-9.7-9.4-4.1-2.3-8.6-3.4-13.7-3.4s-9.6,1.2-13.7,3.4-7.3,5.4-9.7,9.4c-2.4,4-3.6,8.4-3.6,13.3s1.2,9.3,3.6,13.2c2.4,4,5.6,7.1,9.7,9.4,4.1,2.3,8.6,3.5,13.7,3.5s9.7-1.2,13.8-3.5c4.1-2.3,7.3-5.5,9.6-9.4,2.4-4,3.5-8.4,3.5-13.2s-1.2-9.4-3.6-13.3h0ZM543.3,86c-1.2,2.2-2.9,4-5,5.3-2.1,1.3-4.5,2-7.2,2s-5-.7-7.1-2c-2.1-1.3-3.8-3.1-5-5.3-1.2-2.2-1.8-4.7-1.8-7.5s.6-5.2,1.8-7.4c1.2-2.2,2.9-3.9,5-5.2,2.1-1.3,4.5-1.9,7.2-1.9s4.9.6,7,1.9c2.1,1.3,3.8,3,5,5.2,1.3,2.2,1.9,4.6,1.9,7.4s-.6,5.3-1.8,7.5h0Z"/>
            <path class="cls-4" d="M603.3,78.5c-2.7-2.5-6.5-4.1-11.5-4.8l-9.7-1.4c-2.5-.4-4.2-1-5.2-1.7s-1.5-1.8-1.5-3.2.7-2.7,2.2-3.6c1.5-.9,3.4-1.4,5.8-1.4s5,.4,7.6,1.2c2.6.8,5.2,2,8,3.8l6.4-8.6c-3.1-2.1-6.4-3.7-9.9-4.8-3.5-1-7.2-1.5-10.9-1.5s-7.9.7-11,1.9c-3.2,1.3-5.6,3.1-7.3,5.5-1.7,2.4-2.6,5.2-2.6,8.5s1.3,7.4,3.9,9.8c2.6,2.5,6.4,4.1,11.4,4.9l9.7,1.5c2.2.3,3.8.9,4.8,1.7s1.5,1.8,1.5,3.1-.9,2.9-2.7,3.9c-1.8,1-4.2,1.5-7.1,1.5s-5.3-.5-8-1.5c-2.7-1-5.5-2.4-8.4-4.4l-6.6,8.9c2.9,2.2,6.3,3.9,10.3,5.1,4,1.2,8.2,1.8,12.7,1.8s8.1-.7,11.4-2.2,6-3.4,7.9-5.9c1.9-2.5,2.9-5.4,2.9-8.6s-1.3-7.1-4-9.6h0Z"/>
            <path class="cls-4" d="M649.1,53.3l-14.3,34.4-12.5-34.4h-14.7l19.7,50.9-.8,2c-1.9,4.6-5.2,6.9-10.1,6.9s-3.4-.1-4.6-.4v11.3c.6.2,1.5.4,2.6.5,1.1.1,2.2.1,3.3.1,3.7,0,6.9-.6,9.5-1.7,2.7-1.1,5.1-2.9,7.1-5.4,2.1-2.5,4-5.7,5.7-9.7l23.3-54.6h-14.4,0Z"/>
            <path class="cls-4" d="M705.8,78.5c-2.7-2.5-6.5-4.1-11.5-4.8l-9.7-1.4c-2.5-.4-4.2-1-5.2-1.7-1-.8-1.5-1.8-1.5-3.2s.7-2.7,2.2-3.6c1.5-.9,3.4-1.4,5.8-1.4s5,.4,7.6,1.2,5.2,2,8,3.8l6.4-8.6c-3.1-2.1-6.4-3.7-9.9-4.8-3.5-1-7.2-1.5-10.9-1.5s-7.9.7-11,1.9c-3.2,1.3-5.6,3.1-7.3,5.5-1.7,2.4-2.6,5.2-2.6,8.5s1.3,7.4,3.9,9.8c2.6,2.5,6.4,4.1,11.4,4.9l9.7,1.5c2.2.3,3.8.9,4.8,1.7s1.5,1.8,1.5,3.1-.9,2.9-2.7,3.9c-1.8,1-4.2,1.5-7.1,1.5s-5.3-.5-8-1.5c-2.7-1-5.5-2.4-8.4-4.4l-6.6,8.9c2.9,2.2,6.3,3.9,10.3,5.1,4,1.2,8.2,1.8,12.7,1.8s8.1-.7,11.4-2.2,6-3.4,7.9-5.9c1.9-2.5,2.9-5.4,2.9-8.6s-1.3-7.1-4-9.6h0Z"/>
            <path class="cls-4" d="M320.8,152.3h-16.3l-27.9,67.9h14.6l6.9-17.7h28.1l6.9,17.7h15.2l-27.5-67.9h0ZM302.5,191l9.9-25,9.6,25h-19.5Z"/>
            <path class="cls-4" d="M391.7,194.8c-2.6-2.5-6.5-4.1-11.5-4.8l-9.7-1.4c-2.5-.4-4.2-1-5.2-1.7-1-.8-1.5-1.8-1.5-3.2s.7-2.7,2.2-3.6c1.5-.9,3.4-1.4,5.8-1.4s5.1.4,7.6,1.2c2.6.8,5.2,2,8,3.8l6.4-8.6c-3.1-2.1-6.4-3.7-9.9-4.7-3.5-1-7.2-1.5-10.9-1.5s-7.9.6-11,1.9c-3.2,1.3-5.6,3.1-7.3,5.5-1.7,2.4-2.6,5.2-2.6,8.5s1.3,7.4,3.9,9.8c2.6,2.5,6.4,4.1,11.4,4.9l9.7,1.5c2.2.3,3.8.9,4.8,1.6,1,.8,1.5,1.8,1.5,3.1s-.9,2.9-2.7,3.9-4.2,1.5-7.1,1.5-5.3-.5-8-1.5c-2.7-1-5.5-2.4-8.4-4.4l-6.6,8.9c2.9,2.2,6.3,3.9,10.3,5.1,4,1.2,8.2,1.8,12.7,1.8s8.1-.7,11.4-2.2c3.3-1.5,6-3.4,7.9-5.9s2.9-5.3,2.9-8.6-1.3-7.1-4-9.6h0Z"/>
            <path class="cls-4" d="M439.3,194.8c-2.6-2.5-6.5-4.1-11.5-4.8l-9.7-1.4c-2.5-.4-4.2-1-5.2-1.7-1-.8-1.5-1.8-1.5-3.2s.7-2.7,2.2-3.6c1.5-.9,3.4-1.4,5.8-1.4s5,.4,7.6,1.2c2.6.8,5.2,2,8,3.8l6.4-8.6c-3.1-2.1-6.4-3.7-9.9-4.7-3.5-1-7.2-1.5-10.9-1.5s-7.9.6-11,1.9c-3.2,1.3-5.6,3.1-7.3,5.5-1.7,2.4-2.6,5.2-2.6,8.5s1.3,7.4,3.9,9.8c2.6,2.5,6.4,4.1,11.4,4.9l9.7,1.5c2.2.3,3.8.9,4.8,1.6,1,.8,1.5,1.8,1.5,3.1s-.9,2.9-2.7,3.9c-1.8,1-4.2,1.5-7.1,1.5s-5.3-.5-8-1.5c-2.7-1-5.5-2.4-8.4-4.4l-6.6,8.9c2.9,2.2,6.3,3.9,10.3,5.1,4,1.2,8.2,1.8,12.7,1.8s8.1-.7,11.4-2.2,6-3.4,7.9-5.9,2.9-5.3,2.9-8.6-1.3-7.1-4-9.6h0Z"/>
            <path class="cls-4" d="M449.9,169.6v50.5h13.3v-50.5h-13.3ZM461.9,150.7c-1.5-1.5-3.2-2.2-5.4-2.2s-3.8.7-5.3,2.2-2.2,3.2-2.2,5.3.7,3.9,2.2,5.4,3.3,2.2,5.3,2.2,3.9-.7,5.4-2.2c1.5-1.5,2.2-3.3,2.2-5.4s-.7-3.8-2.2-5.3Z"/>
            <path class="cls-4" d="M510.6,194.8c-2.6-2.5-6.5-4.1-11.5-4.8l-9.7-1.4c-2.5-.4-4.2-1-5.2-1.7-1-.8-1.5-1.8-1.5-3.2s.7-2.7,2.2-3.6c1.5-.9,3.4-1.4,5.8-1.4s5,.4,7.6,1.2c2.6.8,5.2,2,8,3.8l6.4-8.6c-3.1-2.1-6.4-3.7-9.9-4.7-3.5-1-7.2-1.5-10.9-1.5s-7.9.6-11,1.9c-3.2,1.3-5.6,3.1-7.3,5.5-1.7,2.4-2.6,5.2-2.6,8.5s1.3,7.4,3.9,9.8c2.6,2.5,6.4,4.1,11.4,4.9l9.7,1.5c2.2.3,3.8.9,4.8,1.6,1,.8,1.5,1.8,1.5,3.1s-.9,2.9-2.7,3.9c-1.8,1-4.2,1.5-7.1,1.5s-5.3-.5-8-1.5c-2.7-1-5.5-2.4-8.4-4.4l-6.6,8.9c2.9,2.2,6.3,3.9,10.3,5.1,4,1.2,8.2,1.8,12.7,1.8s8.1-.7,11.4-2.2c3.3-1.5,6-3.4,7.9-5.9s2.9-5.3,2.9-8.6-1.3-7.1-4-9.6h0Z"/>
            <path class="cls-4" d="M599.4,173.5c-3.8-3.3-9.1-4.9-16-4.9s-7.2.5-10.8,1.4c-2.2.5-4.4,1.2-6.7,2.1v11.8c3.2-1.4,6-2.5,8.5-3.1,2.5-.7,4.8-1,6.9-1,3.5,0,6.1.7,7.9,2.2,1.8,1.5,2.7,3.7,2.7,6.6v3.7c-3.9-1.4-8-2-12.4-2-6.5,0-11.5,1.4-15.1,4-3.6,2.7-5.4,6.5-5.4,11.3s.8,5.7,2.3,8c1.5,2.3,3.7,4.2,6.5,5.5,2.8,1.3,6,2,9.5,2s5.6-.4,7.9-1.1,4.6-1.8,6.7-3.4v3.6h13.1v-32.8c0-6-1.9-10.6-5.6-13.8h0ZM591.9,208.2c-1.5,1.2-3.2,2-5.1,2.5-1.8.5-3.9.8-6.1.8s-5-.6-6.7-1.7c-1.7-1.1-2.5-2.7-2.5-4.6s.9-3.6,2.6-4.6c1.7-1.1,4.1-1.7,7.1-1.7s3.9.1,5.6.4c1.7.3,3.4.8,5,1.5v7.4h0Z"/>
          </g>
          <path class="cls-4" d="M540.2,180.7v22.5c0,2.3.5,4,1.6,5,1.1,1,2.9,1.5,5.4,1.5s2.6,0,3.6-.2,2.2-.4,3.5-.8v10.9c-1.4.4-3,.8-5,1.1-2,.3-3.8.4-5.3.4-5.6,0-9.8-1.3-12.6-3.8-2.9-2.6-4.3-6.2-4.3-11.1v-25.3h-10.4v-11h10.4v-15.9l13.2,6.3v9.6h14.6v11h-14.6,0Z"/>
        </g>
      </g>
    </g>
  </g>
</svg>