<?xml version="1.0" encoding="UTF-8"?>
<svg xmlns="http://www.w3.org/2000/svg" version="1.1" viewBox="0 0 100 100">
  <defs>
    <style>
      .cls-1 {
        fill: #e97d83;
      }
    </style>
  </defs>
  <!-- Generator: Adobe Illustrator 28.6.0, SVG Export Plug-In . SVG Version: 1.2.0 Build 709)  -->
  <g>
    <g id="Layer_1">
      <path class="cls-1" d="M80.1,23.1c-22.2-1-43.1,13-46.6,30.5.6.2,1.2.6,1.8.5,9.7-1.1,16,4,21,11.4,3.9,5.7,6.9,11.9,7.7,18.9.2,2,.3,4,0,5.9-.9,7.5-5.7,10.7-13.2,8.9-4.9-1.2-8.7-4.2-12-7.9-5.8-6.6-9.6-14.3-11.5-22.9-.4-1.7-.7-3.4-1.2-5.9-10.2,6.1-14.1,16.1-19.6,25.4.2-1.8.2-3.7.8-5.3,3.3-8.8,7.8-16.9,15.6-22.7,2.2-1.6,3.8-3.3,4.2-6.3,1.7-11.7,8.2-20.4,17.8-26.9,7.2-4.9,15.2-8.2,23.8-9.8,2.1-.4,4.2-.9,7.8-1.6-5.5-5-10.2-9.2-14.9-13.4.2-.4.5-.8.7-1.2,1.2,0,2.6-.3,3.5.3,4.4,2.5,8.8,5,13.1,7.8,3.9,2.5,7.5,5.5,11.3,8.1,3.8,2.6,4.3,4.9.8,7.1-6.2,3.8-12.8,7-19.4,10.2-.9.4-2.4-.4-3.6-.6.5-1.3.5-3.1,1.5-3.8,3.2-2.3,6.6-4.3,10.6-6.8ZM32.5,59.2c.5,13.8,5.4,25,16.4,33.3,2.4,1.8,5.6,3.2,7.9,1.1,1.6-1.5,2.4-4.7,2.3-7.1-.2-9-4.2-16.6-10.1-23.2-4.2-4.7-9.2-6.6-16.5-4.1Z"/>
    </g>
  </g>
</svg>