<?xml version="1.0" encoding="UTF-8"?>
<svg xmlns="http://www.w3.org/2000/svg" version="1.1" viewBox="0 0 100 100">
  <defs>
    <style>
      .cls-1 {
        fill: #e97d83;
      }
    </style>
  </defs>
  <!-- Generator: Adobe Illustrator 28.6.0, SVG Export Plug-In . SVG Version: 1.2.0 Build 709)  -->
  <g>
    <g id="Elements">
      <path class="cls-1" d="M20.9,17.2c1.4-.8,2.7-1.6,4.1-2.3,7.9-4.4,16.3-6.7,25.3-6.6,8.7,0,16.8,2.2,24,7.3,10.9,7.8,13.6,18.9,7.2,30.8-1.4,2.6-3.3,5.1-4.4,6.7,2.3,5.3,4.9,9.5,5.9,14.1,1,4.4.8,9.3.2,13.8-1.3,10.3-1.9,11.3-4.9,12.7.8-4.4,1.5-8.6,2.2-12.9.9-6.1.8-12.2-2-17.9-1.1-2.2-2.1-4.7-4.5-5.8-2.4,1.4-4.5,2.8-6.8,3.9-3.5,1.7-7.2,2.8-11.2,2.1-2.6-.4-5-1.5-6-4.3-1-2.9.6-5,2.6-6.7,5-4.3,10.6-5.9,16.9-3.1,1.3.6,2.6,1.2,4.5,2,1.8-3.4,4-6.7,5.3-10.2,3.1-8.4,1.3-14.8-5.7-20.6-4.7-3.9-10.2-5.9-16.2-6.8-13-2-24.8,1.2-35.9,7.8-1.2.7-2.2,1.6-4,2.9,3.6.4,6.3.6,8.9,1,2.5.5,5.5-.2,7.5,2-.6,2.2-2.2,1.9-3.6,1.9-4.5-.1-9-.2-13.5-.5-5-.3-6.8-2.7-4.7-7.3,1.9-4.2,4.7-8,7.4-11.7,1.2-1.7,3.2-2.4,5.2-1.3-1.6,2.9-3,5.5-4.5,8.1.2.2.4.4.6.6ZM54,57.3c3.7,3.5,10.2,2.2,16.1-3.2-5.6-4.2-12.1-2.9-16.1,3.2Z"/>
    </g>
  </g>
</svg>