<?xml version="1.0" encoding="UTF-8"?>
<svg xmlns="http://www.w3.org/2000/svg" version="1.1" viewBox="0 0 100 100">
  <defs>
    <style>
      .cls-1 {
        fill: #db5a6b;
      }
    </style>
  </defs>
  <!-- Generator: Adobe Illustrator 28.6.0, SVG Export Plug-In . SVG Version: 1.2.0 Build 709)  -->
  <g>
    <g id="Layer_1">
      <g id="Layer_1-2" data-name="Layer_1">
        <g id="Layer_1-2">
          <path class="cls-1" d="M65.6,62c0-2.7-1.4-5.2-3-7.7-3.7-5.6-8.9-9.5-15.1-11.9-7.3-2.8-15-4-22.9-4.6,4.1,3.2,7.8,6.6,11.1,11.7-1.6.1-2.5.5-3.2.3-1-.4-1.8-1.3-2.8-1.9-3-2.2-5.9-4.3-9-6.3-4.1-2.6-4.7-4.4-1.9-8.2,4.4-6.3,8.9-12.4,13.4-18.6,1-1.4,2.2-3.1,4.5-2.7,1.3,1.8.3,3.2-.7,4.7-2.6,4.1-5.2,8.1-7.8,12.2-.7,1.2-1.6,2.3-2.6,3.9,1.2.1,2.1.3,3,.3,7.1,0,14.1,1.2,20.8,3.7,9.7,3.7,17,10.1,21,19.8.9,2.1,1.4,4.3,2.3,6.9,4.7,1,9.2,3.4,12.4,7.6,1.5,2,2.6,4.4,3.3,6.8.7,2.5-.3,3.5-3.2,4.6,2-3.4.4-5.8-1.7-8.1-3-3.2-6.3-5.7-11.1-6.5-.3,1.4-.6,2.5-.9,3.7-.8,4.3-2.3,8.2-4.8,11.7-1.8,2.5-4,4.4-7.1,5.2-7.9,2.1-14.8-4.4-12.9-12.4,1.3-5.4,4.8-8.9,9.9-10.9,2.8-1.2,5.9-1.9,9.1-3h0v-.2ZM66,67.6c-4.2-.6-9.3,1.1-12.2,4.4-1.1,1.3-1.9,2.8-2.5,4.3-.8,2.4,0,4.8,2,5.9,2.1,1.2,4.3,1.5,6.4,0,1-.8,1.9-1.7,2.6-2.7,2.4-3.6,3.7-7.6,3.6-12h0Z"/>
        </g>
      </g>
    </g>
  </g>
</svg>