<?xml version="1.0" encoding="UTF-8"?>
<svg xmlns="http://www.w3.org/2000/svg" version="1.1" viewBox="0 0 100 100">
  <defs>
    <style>
      .cls-1 {
        fill: #db5a6b;
      }
    </style>
  </defs>
  <!-- Generator: Adobe Illustrator 28.6.0, SVG Export Plug-In . SVG Version: 1.2.0 Build 709)  -->
  <g>
    <g id="Layer_1">
      <g id="Layer_1-2" data-name="Layer_1">
        <g id="Layer_1-2">
          <path class="cls-1" d="M74.3,28.3c-17.9-.8-34.8,10.5-37.7,24.7.5.2,1,.5,1.5.4,7.8-.9,12.9,3.2,17,9.2,3.2,4.6,5.6,9.6,6.2,15.3.2,1.6.2,3.2,0,4.8-.7,6.1-4.6,8.7-10.7,7.2-4-1-7-3.4-9.7-6.4-4.7-5.3-7.8-11.6-9.3-18.5-.3-1.4-.6-2.7-1-4.8-8.2,4.9-11.4,13-15.8,20.5.2-1.5.2-3,.6-4.3,2.7-7.1,6.3-13.7,12.6-18.4,1.8-1.3,3.1-2.7,3.4-5.1,1.4-9.5,6.6-16.5,14.4-21.7,5.8-4,12.3-6.6,19.2-7.9,1.7-.3,3.4-.7,6.3-1.3-4.4-4-8.2-7.4-12-10.8.2-.3.4-.6.6-1,1,0,2.1-.2,2.8.2,3.6,2,7.1,4,10.6,6.3,3.2,2,6.1,4.4,9.1,6.5,3.1,2.1,3.5,4,.6,5.7-5,3.1-10.3,5.7-15.7,8.2-.7.3-1.9-.3-2.9-.5.4-1.1.4-2.5,1.2-3.1,2.6-1.9,5.3-3.5,8.6-5.5h0ZM35.8,57.5c.4,11.2,4.4,20.2,13.3,26.9,1.9,1.5,4.5,2.6,6.4.9,1.3-1.2,1.9-3.8,1.9-5.7-.2-7.3-3.4-13.4-8.2-18.8-3.4-3.8-7.4-5.3-13.3-3.3Z"/>
        </g>
      </g>
    </g>
  </g>
</svg>