<?xml version="1.0" encoding="UTF-8"?>
<svg xmlns="http://www.w3.org/2000/svg" version="1.1" viewBox="0 0 100 100">
  <defs>
    <style>
      .cls-1 {
        fill: #e97d83;
      }
    </style>
  </defs>
  <!-- Generator: Adobe Illustrator 28.6.0, SVG Export Plug-In . SVG Version: 1.2.0 Build 709)  -->
  <g>
    <g id="Layer_1">
      <path class="cls-1" d="M66.9,65.7c.4-3.2-1.1-6.4-2.8-9.5-3.8-7.1-9.6-12.2-16.8-15.8-8.4-4.1-17.5-6.3-26.8-7.9,4.5,4.2,8.6,8.7,12,15.1-1.9,0-3,.3-3.8-.1-1.2-.6-2-1.7-3.1-2.6-3.3-2.9-6.6-5.8-10.1-8.5-4.6-3.5-5.1-5.7-1.4-10,5.9-7,11.9-13.9,17.9-20.8,1.4-1.6,2.9-3.5,5.6-2.7,1.4,2.3-.1,3.9-1.3,5.5-3.5,4.6-7.1,9.1-10.6,13.7-1,1.3-2.1,2.6-3.5,4.4,1.4.3,2.5.6,3.5.7,8.5.7,16.7,2.9,24.4,6.6,11.2,5.4,19.2,13.8,23,25.8.8,2.6,1.2,5.3,2,8.5,5.5,1.7,10.6,5,14,10.4,1.6,2.5,2.7,5.5,3.2,8.4.6,3-.7,4.1-4.3,5.2,2.7-3.8,1.1-6.9-1.2-9.8-3.2-4.1-6.9-7.4-12.5-8.9-.5,1.6-1,2.9-1.4,4.3-1.4,5-3.6,9.5-7,13.4-2.4,2.8-5.2,4.8-9,5.4-9.6,1.7-17.2-6.8-14.1-16.1,2.1-6.3,6.7-10.1,12.9-12,3.5-1.1,7.2-1.7,11.2-2.6ZM66.8,72.5c-4.9-1.2-11.2.3-15,4-1.4,1.4-2.6,3.1-3.4,4.9-1.2,2.8-.4,5.7,1.8,7.3,2.4,1.7,5,2.2,7.6.6,1.3-.8,2.5-1.8,3.4-3,3.2-4.1,5.2-8.7,5.6-13.9Z"/>
    </g>
  </g>
</svg>