<?xml version="1.0" encoding="UTF-8"?>
<svg xmlns="http://www.w3.org/2000/svg" version="1.1" xmlns:xlink="http://www.w3.org/1999/xlink" viewBox="0 0 800 800">
  <defs>
    <style>
      .cls-1 {
        fill: url(#linear-gradient-2);
      }

      .cls-2 {
        fill: #fff;
      }

      .cls-3 {
        fill: none;
      }

      .cls-4 {
        fill: url(#linear-gradient-4);
      }

      .cls-5 {
        fill: url(#linear-gradient-3);
      }

      .cls-6 {
        fill: url(#linear-gradient);
      }
    </style>
    <linearGradient id="linear-gradient" x1="522" y1="472.2" x2="212.1" y2="962.1" gradientTransform="translate(0 801) scale(1 -1)" gradientUnits="userSpaceOnUse">
      <stop offset="0" stop-color="#065e86"/>
      <stop offset="0" stop-color="#0b6484"/>
      <stop offset=".2" stop-color="#28897e"/>
      <stop offset=".2" stop-color="#3da37a"/>
      <stop offset=".3" stop-color="#4ab377"/>
      <stop offset=".4" stop-color="#4fb977"/>
      <stop offset=".5" stop-color="#33967c"/>
      <stop offset=".7" stop-color="#1a7781"/>
      <stop offset=".8" stop-color="#0b6484"/>
      <stop offset=".9" stop-color="#065e86"/>
    </linearGradient>
    <linearGradient id="linear-gradient-2" x1="365.3" y1="-52.5" x2="42.8" y2="731" gradientTransform="translate(0 801) scale(1 -1)" gradientUnits="userSpaceOnUse">
      <stop offset=".2" stop-color="#4fb977"/>
      <stop offset=".3" stop-color="#4cb577"/>
      <stop offset=".3" stop-color="#43aa79"/>
      <stop offset=".4" stop-color="#35987c"/>
      <stop offset=".5" stop-color="#207f80"/>
      <stop offset=".5" stop-color="#065f85"/>
      <stop offset=".5" stop-color="#065e86"/>
      <stop offset=".6" stop-color="#32957c"/>
      <stop offset=".6" stop-color="#4fb977"/>
      <stop offset=".7" stop-color="#47b477"/>
      <stop offset=".8" stop-color="#32a979"/>
      <stop offset="1" stop-color="#10977c"/>
      <stop offset="1" stop-color="#0d957d"/>
    </linearGradient>
    <linearGradient id="linear-gradient-3" x1="262.9" y1="800.4" x2="262.9" y2="800.5" gradientTransform="translate(0 801) scale(1 -1)" gradientUnits="userSpaceOnUse">
      <stop offset="0" stop-color="#065e86"/>
      <stop offset=".1" stop-color="#167282"/>
      <stop offset=".4" stop-color="#3fa57a"/>
      <stop offset=".5" stop-color="#4fb977"/>
      <stop offset=".6" stop-color="#47b477"/>
      <stop offset=".8" stop-color="#32a979"/>
      <stop offset="1" stop-color="#10977c"/>
      <stop offset="1" stop-color="#0d957d"/>
    </linearGradient>
    <linearGradient id="linear-gradient-4" x1="-11755.4" y1="407.8" x2="-10809.7" y2="407.8" gradientTransform="translate(11664.6 801) scale(1 -1)" gradientUnits="userSpaceOnUse">
      <stop offset="0" stop-color="#fff"/>
      <stop offset="0" stop-color="#d6efdf"/>
      <stop offset=".2" stop-color="#addec0"/>
      <stop offset=".2" stop-color="#8bd1a5"/>
      <stop offset=".3" stop-color="#70c691"/>
      <stop offset=".4" stop-color="#5dbe82"/>
      <stop offset=".5" stop-color="#52ba79"/>
      <stop offset=".6" stop-color="#4fb977"/>
      <stop offset=".7" stop-color="#49b278"/>
      <stop offset=".8" stop-color="#3a9e7b"/>
      <stop offset=".9" stop-color="#207f80"/>
      <stop offset="1" stop-color="#065e86"/>
    </linearGradient>
  </defs>
  <!-- Generator: Adobe Illustrator 28.6.0, SVG Export Plug-In . SVG Version: 1.2.0 Build 709)  -->
  <g>
    <g id="Layer_2">
      <g id="Layer_1-2">
        <g>
          <path class="cls-6" d="M689.5,181.3h0c0,2.6-1.4,5-4.1,6.2l-193.7,81c-.6.3-1.3.3-1.9,0l-209.6-85.9h0s-151.4-62-151.4-62c-1.2-.5-1.8-1.8-1.4-3l2.4-7.9c.1-.4.4-.8.7-1.1L231.4,20.2l.6,1.2,18.9-13.2,3.5-2.4,4.7-4,1.3-1,.9-.5h1c0-.1.6,0,.6,0h0l173.8,71.8,248.8,102.9s.1,0,.2,0c.1,0,.2.1.3.1.2.1.7.4,1.2.8,0,0,.2.1.3.2l.6.6c.2.2.5.6.7.9.1.2.2.4.3.7.2.3.4.8.4,1.2.1.5.2.9.2,1.5h0Z"/>
          <path class="cls-1" d="M262.8.5c-1.6.2-2.7.9-3.4,1.8,0,0,0,.1-.1.2,0,0,0,0,0,.1-1,1.4-1.2,3-1.2,3.6h0s-1.2,210.7-1.2,210.7h0s0,12.1,0,12.1v4.2s0,0,0,0v496.6l-162.1,70.3v-115.9c-.3-101.1-.8-439.2,0-569.9,0-5.8,3-11.1,7.9-14.2,24.1-15.1,48.7-30.6,73.3-46h0L260.2.8c.7-.4,1.5-.6,2.3-.4h.3c0,0,0,0,0,0h0Z"/>
          <path class="cls-5" d="M263,.6c0,0-.1,0-.2,0h0s0,0,.1,0Z"/>
          <path class="cls-4" d="M689.4,182.3c0,.3,0,.5-.2.7,0,.2-.1.4-.2.6,0,0,0,0,0,.1,0,.2-.2.4-.3.6-.2.4-.4.8-.7,1.1-.5.6-1,1.1-1.5,1.4-.1,0-.2.2-.3.2,0,0,0,0,0,0-.4.2-.7.4-.8.4h0l-194.6,81.4h0s-11.2,4.6-11.2,4.6l-227.1,92.7-157.8,64.4v174.3l159.1-65.7,432.3-178.7c2.1-.9,3.4-2.9,3.4-5.2v-173.8c0,.3,0,.5,0,.8h0Z"/>
          <path class="cls-3" d="M261.7,0h0"/>
          <path class="cls-2" d="M262.8.5h0s0,0,0,0h.1Z"/>
        </g>
      </g>
    </g>
  </g>
</svg>