<?xml version="1.0" encoding="UTF-8"?>
<svg id="Layer_2" data-name="Layer 2" xmlns="http://www.w3.org/2000/svg" xmlns:xlink="http://www.w3.org/1999/xlink" viewBox="0 0 800 800">
  <defs>
    <style>
      .cls-1 {
        fill: url(#linear-gradient-2);
      }

      .cls-2 {
        fill: #fff;
      }

      .cls-3 {
        fill: none;
      }

      .cls-4 {
        fill: url(#linear-gradient-4);
      }

      .cls-5 {
        fill: url(#linear-gradient-3);
      }

      .cls-6 {
        fill: url(#linear-gradient);
      }
    </style>
    <linearGradient id="linear-gradient" x1="530.12" y1="471.23" x2="220.17" y2="961.09" gradientTransform="translate(0 800) scale(1 -1)" gradientUnits="userSpaceOnUse">
      <stop offset=".04" stop-color="#065e86"/>
      <stop offset=".05" stop-color="#0b6484"/>
      <stop offset=".15" stop-color="#28897e"/>
      <stop offset=".24" stop-color="#3da37a"/>
      <stop offset=".32" stop-color="#4ab377"/>
      <stop offset=".38" stop-color="#4fb977"/>
      <stop offset=".51" stop-color="#33967c"/>
      <stop offset=".66" stop-color="#1a7781"/>
      <stop offset=".78" stop-color="#0b6484"/>
      <stop offset=".87" stop-color="#065e86"/>
    </linearGradient>
    <linearGradient id="linear-gradient-2" x1="373.39" y1="-53.5" x2="50.93" y2="730.03" gradientTransform="translate(0 800) scale(1 -1)" gradientUnits="userSpaceOnUse">
      <stop offset=".22" stop-color="#4fb977"/>
      <stop offset=".29" stop-color="#4cb577"/>
      <stop offset=".35" stop-color="#43aa79"/>
      <stop offset=".41" stop-color="#35987c"/>
      <stop offset=".46" stop-color="#207f80"/>
      <stop offset=".52" stop-color="#065f85"/>
      <stop offset=".52" stop-color="#065e86"/>
      <stop offset=".57" stop-color="#32957c"/>
      <stop offset=".61" stop-color="#4fb977"/>
      <stop offset=".69" stop-color="#47b477"/>
      <stop offset=".82" stop-color="#32a979"/>
      <stop offset=".98" stop-color="#10977c"/>
      <stop offset="1" stop-color="#0d957d"/>
    </linearGradient>
    <linearGradient id="linear-gradient-3" x1="271.01" y1="799.39" x2="270.96" y2="799.53" gradientTransform="translate(0 800) scale(1 -1)" gradientUnits="userSpaceOnUse">
      <stop offset="0" stop-color="#065e86"/>
      <stop offset=".14" stop-color="#167282"/>
      <stop offset=".42" stop-color="#3fa57a"/>
      <stop offset=".51" stop-color="#4fb977"/>
      <stop offset=".62" stop-color="#47b477"/>
      <stop offset=".78" stop-color="#32a979"/>
      <stop offset=".98" stop-color="#10977c"/>
      <stop offset="1" stop-color="#0d957d"/>
    </linearGradient>
    <linearGradient id="linear-gradient-4" x1="-11747.28" y1="406.83" x2="-10801.55" y2="406.83" gradientTransform="translate(11664.6 800) scale(1 -1)" gradientUnits="userSpaceOnUse">
      <stop offset="0" stop-color="#fff"/>
      <stop offset=".07" stop-color="#d6efdf"/>
      <stop offset=".15" stop-color="#addec0"/>
      <stop offset=".23" stop-color="#8bd1a5"/>
      <stop offset=".32" stop-color="#70c691"/>
      <stop offset=".4" stop-color="#5dbe82"/>
      <stop offset=".49" stop-color="#52ba79"/>
      <stop offset=".59" stop-color="#4fb977"/>
      <stop offset=".66" stop-color="#49b278"/>
      <stop offset=".77" stop-color="#3a9e7b"/>
      <stop offset=".89" stop-color="#207f80"/>
      <stop offset="1" stop-color="#065e86"/>
    </linearGradient>
  </defs>
  <g id="Layer_1-2" data-name="Layer 1-2">
    <g>
      <path class="cls-6" d="M697.64,181.32v.12c-.07,2.44-1.43,4.86-4.08,6.05l-193.7,80.99c-.6.25-1.28.26-1.89,0l-209.64-85.85v-.02l-151.45-62.01c-1.17-.48-1.79-1.78-1.43-2.99l2.36-7.88c.14-.45.39-.84.74-1.15L239.53,20.21l.56,1.22,18.91-13.18,3.48-2.36,4.72-3.97,1.35-.96.88-.46.96-.11.55.13h.02l173.75,71.83,248.84,102.86s.12.07.16.07c.14.04.19.12.26.12.22.11.68.38,1.23.79.09.07.17.14.25.22l.59.58c.24.24.47.59.7.94.12.19.24.42.31.66.16.35.35.77.4,1.2.12.47.19.94.19,1.53h0Z"/>
      <path class="cls-1" d="M270.91.51c-1.6.15-2.68.88-3.4,1.76l-.14.18s-.05.07-.07.11c-.95,1.37-1.17,3.02-1.22,3.63v.04l-1.19,210.64v.04l.04,12.06v4.2h-.04s0,496.57,0,496.57l-162.08,70.26-.06-115.94c-.2-101.05-.77-439.16,0-569.93.04-5.76,3.02-11.11,7.9-14.19,24.08-15.12,48.69-30.57,73.33-46.04h-.09L268.32.8c.68-.42,1.49-.56,2.26-.38l.26.06s.05,0,.07.03Z"/>
      <path class="cls-5" d="M271.07.56c-.06-.02-.11-.04-.16-.05h.03s.08.04.13.05Z"/>
      <path class="cls-4" d="M697.55,182.28c-.04.26-.09.49-.16.73-.05.21-.12.42-.19.61,0,.04,0,.07-.04.12-.09.21-.17.4-.26.56-.21.4-.42.75-.66,1.05-.47.61-1.01,1.1-1.48,1.43-.12.07-.21.16-.33.24-.02.02-.07.04-.09.07-.38.21-.66.35-.76.4h-.02l-194.65,81.38-.02.02-11.18,4.55-227.1,92.72-157.8,64.44v174.29l159.08-65.75,432.31-178.73c2.09-.89,3.45-2.91,3.45-5.16v-173.8c0,.28-.02.54-.09.82h0Z"/>
      <path class="cls-3" d="M269.77.02l-.06-.02"/>
      <path class="cls-2" d="M270.95.51h-.03s-.05-.03-.07-.03l.11.03h0Z"/>
    </g>
  </g>
</svg>