<?xml version="1.0" encoding="UTF-8"?>
<svg xmlns="http://www.w3.org/2000/svg" version="1.1" xmlns:xlink="http://www.w3.org/1999/xlink" viewBox="0 0 800 800">
  <defs>
    <style>
      .cls-1 {
        fill: url(#linear-gradient-2);
      }

      .cls-2 {
        fill: url(#linear-gradient-4);
      }

      .cls-3 {
        fill: url(#linear-gradient-3);
      }

      .cls-4 {
        fill: url(#linear-gradient-5);
      }

      .cls-5 {
        fill: url(#linear-gradient-7);
      }

      .cls-6 {
        fill: url(#linear-gradient-6);
      }

      .cls-7 {
        fill: url(#linear-gradient);
      }
    </style>
    <linearGradient id="linear-gradient" x1="-626.9" y1="470.2" x2="-38.7" y2="470.2" gradientTransform="translate(778.5 800.4) scale(1 -1)" gradientUnits="userSpaceOnUse">
      <stop offset="0" stop-color="#bc8487"/>
      <stop offset=".8" stop-color="#e3b2b3"/>
      <stop offset="1" stop-color="#fff"/>
    </linearGradient>
    <linearGradient id="linear-gradient-2" x1="-835.9" y1="225.2" x2="-284.6" y2="764.5" gradientTransform="translate(952.5 833.5) scale(1 -1)" gradientUnits="userSpaceOnUse">
      <stop offset=".2" stop-color="#19e5fb"/>
      <stop offset=".5" stop-color="#0096ea"/>
      <stop offset=".8" stop-color="#0dbdf9"/>
      <stop offset=".8" stop-color="#11c8fe"/>
      <stop offset=".9" stop-color="#12cdfd"/>
      <stop offset="1" stop-color="#19e5fb"/>
    </linearGradient>
    <linearGradient id="linear-gradient-3" x1="276.1" y1="750.6" x2="651.6" y2="560.3" gradientTransform="translate(0 800.4) scale(1 -1)" gradientUnits="userSpaceOnUse">
      <stop offset="0" stop-color="#0096ea"/>
      <stop offset=".2" stop-color="#07adf3"/>
      <stop offset=".3" stop-color="#0ec0fb"/>
      <stop offset=".5" stop-color="#11c8fe"/>
      <stop offset=".7" stop-color="#08adf3"/>
      <stop offset=".9" stop-color="#0096ea"/>
    </linearGradient>
    <linearGradient id="linear-gradient-4" x1="200.2" y1="38.5" x2="659.3" y2="232.7" gradientTransform="translate(0 800.4) scale(1 -1)" gradientUnits="userSpaceOnUse">
      <stop offset="0" stop-color="#0096ea"/>
      <stop offset=".2" stop-color="#07adf3"/>
      <stop offset=".4" stop-color="#0ec0fb"/>
      <stop offset=".6" stop-color="#11c8fe"/>
      <stop offset=".7" stop-color="#08adf3"/>
      <stop offset=".9" stop-color="#0096ea"/>
    </linearGradient>
    <linearGradient id="linear-gradient-5" x1="253.6" y1="798.7" x2="205.4" y2=".2" gradientTransform="translate(0 800.4) scale(1 -1)" gradientUnits="userSpaceOnUse">
      <stop offset="0" stop-color="#19e5fb"/>
      <stop offset="0" stop-color="#17defb"/>
      <stop offset=".2" stop-color="#12ccfd"/>
      <stop offset=".2" stop-color="#11c8fe"/>
      <stop offset=".3" stop-color="#0dbefa"/>
      <stop offset=".4" stop-color="#04a3ef"/>
      <stop offset=".5" stop-color="#0096ea"/>
      <stop offset=".7" stop-color="#0ab5f6"/>
      <stop offset=".8" stop-color="#11c8fe"/>
      <stop offset=".9" stop-color="#16dafc"/>
      <stop offset=".9" stop-color="#19e5fb"/>
    </linearGradient>
    <linearGradient id="linear-gradient-6" x1="-626.9" y1="10420.7" x2="-38.7" y2="10420.7" gradientTransform="translate(778.5 -9962.6)" gradientUnits="userSpaceOnUse">
      <stop offset="0" stop-color="#bc8487"/>
      <stop offset=".8" stop-color="#e3b2b3"/>
      <stop offset="1" stop-color="#fff"/>
    </linearGradient>
    <linearGradient id="linear-gradient-7" x1="-749.8" y1="375.4" x2="-133.3" y2="375.4" gradientTransform="translate(952.5 833.5) scale(1 -1)" gradientUnits="userSpaceOnUse">
      <stop offset="0" stop-color="#19e5fb"/>
      <stop offset=".1" stop-color="#14d5fc"/>
      <stop offset=".3" stop-color="#11cbfd"/>
      <stop offset=".4" stop-color="#11c8fe"/>
      <stop offset=".8" stop-color="#16ddfb"/>
      <stop offset="1" stop-color="#19e5fb"/>
    </linearGradient>
  </defs>
  <!-- Generator: Adobe Illustrator 28.6.0, SVG Export Plug-In . SVG Version: 1.2.0 Build 709)  -->
  <g>
    <g id="Layer_2">
      <g id="Layer_1-2">
        <g>
          <path class="cls-7" d="M648.3,150.9c0,.5-.2.9-.3,1.2-.2.6-.5,1-.8,1.4-.3.4-.7.7-1,1-.3.2-.5.4-.9.6-.2,0-.3.1-.4.2,0,0,0,0-.1,0l-168,70.5-9.7,3.9-172.1,70.5-143.5,58.8v150.9l126.6-52.5,16.9-7,350.3-145.3c1.8-.8,3-2.5,3-4.4v-150.5c0,.2,0,.5,0,.7h0Z"/>
          <path class="cls-1" d="M648.3,150.9c0,.5-.2.9-.3,1.2-.2.6-.5,1-.8,1.4-.3.4-.7.7-1,1-.3.2-.5.4-.9.6-.2,0-.3.1-.4.2,0,0,0,0-.1,0l-168,70.5-9.7,3.9-172.1,70.5-143.5,58.8v150.9l126.6-52.5,16.9-7,350.3-145.3c1.8-.8,3-2.5,3-4.4v-150.5c0,.2,0,.5,0,.7h0Z"/>
        </g>
        <path class="cls-3" d="M648.4,150.1h0c0,2.2-1.2,4.3-3.5,5.3l-168,70.5-181.8-74.7V0c.3,0,.6,0,.9.1l1.1.5,347.8,144.2s0,0,.1,0c0,0,.1,0,.2,0,.2.1.6.4,1.2.8l.6.6c.2.2.4.5.6.8.1.1.2.4.3.6.1.3.3.7.4,1,0,.4.2.8.2,1.3h0Z"/>
        <path class="cls-2" d="M648.4,644.6h0c0,.6,0,1-.1,1.5,0,.4-.2.7-.4,1,0,.2-.2.4-.3.6-.2.3-.4.6-.6.8l-.6.6c-.5.4-1,.7-1.2.8,0,0,0,0-.2.1,0,0-.1,0-.2,0l-343,147.5h0l-5,2.2c-.6.2-1.1.2-1.7.2v-156.5l181.7-77.4,168,73.1c2.3,1.1,3.5,3.2,3.5,5.4h0Z"/>
        <path class="cls-4" d="M301.8,797.7l-5,2.1c-.6.2-1.1.2-1.7.2-.6,0-1.1-.3-1.4-.4-.2-.1-.4-.2-.4-.2l-137.1-88.4c-2.9-1.8-4.6-5-4.6-8.4V97.7c0-3.4,1.7-6.6,4.6-8.4L294.5.2s0,0,0,0c0,0,.3-.1.6-.1.3,0,.6,0,.9.1l1.1.5c-1.9.5-2,6.9-2,6.9v777.6c0,3.1.4,15.2,6.7,12.7h0Z"/>
        <g>
          <path class="cls-6" d="M645.4,483.9l-493.8-212.3v156.4l325.2,138.1,168,73.1s0,0,.1,0c0,0,.2,0,.4.2.6.3,1.1.7,1.5,1.3,0,0,.2.2.3.3.1.1.2.3.3.5.4.6.7,1.4.8,2.3,0,.2,0,.5,0,.7v-156c0-2-1.2-3.8-3-4.6h0Z"/>
          <path class="cls-5" d="M645.4,483.9l-493.8-212.3v156.4l325.2,138.1,168,73.1s0,0,.1,0c0,0,.2,0,.4.2.6.3,1.1.7,1.5,1.3,0,0,.2.2.3.3.1.1.2.3.3.5.4.6.7,1.4.8,2.3,0,.2,0,.5,0,.7v-156c0-2-1.2-3.8-3-4.6h0Z"/>
        </g>
      </g>
    </g>
  </g>
</svg>