<?xml version="1.0" encoding="UTF-8"?>
<svg xmlns="http://www.w3.org/2000/svg" version="1.1" xmlns:xlink="http://www.w3.org/1999/xlink" viewBox="0 0 800 800">
  <defs>
    <style>
      .cls-1 {
        fill: url(#linear-gradient-2);
      }

      .cls-2 {
        fill: url(#linear-gradient-4);
      }

      .cls-3 {
        fill: url(#linear-gradient-3);
      }

      .cls-4 {
        fill: url(#linear-gradient-5);
      }

      .cls-5 {
        fill: url(#linear-gradient-6);
      }

      .cls-6 {
        fill: url(#linear-gradient);
      }
    </style>
    <linearGradient id="linear-gradient" x1="1382.1" y1="9548.5" x2="1931.5" y2="9548.5" gradientTransform="translate(9710.4 -1214.1) rotate(90)" gradientUnits="userSpaceOnUse">
      <stop offset="0" stop-color="#bc8487"/>
      <stop offset=".8" stop-color="#e3b2b3"/>
      <stop offset="1" stop-color="#fff"/>
    </linearGradient>
    <linearGradient id="linear-gradient-2" x1="603.4" y1="4041.3" x2="295.6" y2="3293" gradientTransform="translate(-298.8 -3290.3)" gradientUnits="userSpaceOnUse">
      <stop offset="0" stop-color="#a6fffd"/>
      <stop offset="0" stop-color="#84eeec"/>
      <stop offset="0" stop-color="#61dcdb"/>
      <stop offset=".2" stop-color="#46cfce"/>
      <stop offset=".3" stop-color="#33c5c5"/>
      <stop offset=".4" stop-color="#27bfbf"/>
      <stop offset=".4" stop-color="#24bebe"/>
      <stop offset=".6" stop-color="#1a9fa3"/>
      <stop offset=".9" stop-color="#096572"/>
    </linearGradient>
    <linearGradient id="linear-gradient-3" x1="199.3" y1="793.2" x2="679.9" y2="1009.9" gradientTransform="translate(0 -491.2)" gradientUnits="userSpaceOnUse">
      <stop offset=".2" stop-color="#096572"/>
      <stop offset=".2" stop-color="#0c707c"/>
      <stop offset=".4" stop-color="#168f96"/>
      <stop offset=".6" stop-color="#24bebe"/>
      <stop offset=".7" stop-color="#1a9fa3"/>
      <stop offset=".9" stop-color="#096572"/>
    </linearGradient>
    <linearGradient id="linear-gradient-4" x1="200.1" y1="1154.6" x2="501.6" y2="584.9" gradientTransform="translate(0 -491.2)" gradientUnits="userSpaceOnUse">
      <stop offset="0" stop-color="#096572"/>
      <stop offset="0" stop-color="#12828b"/>
      <stop offset=".3" stop-color="#1ba3a6"/>
      <stop offset=".4" stop-color="#21b6b7"/>
      <stop offset=".5" stop-color="#24bebe"/>
      <stop offset=".6" stop-color="#3ccac9"/>
      <stop offset=".9" stop-color="#7be9e8"/>
      <stop offset="1" stop-color="#a6fffd"/>
    </linearGradient>
    <linearGradient id="linear-gradient-5" x1="1382.4" y1="-1955.2" x2="1931.7" y2="-1955.2" gradientTransform="translate(2593.5 -1214.1) rotate(90) scale(1 -1)" gradientUnits="userSpaceOnUse">
      <stop offset="0" stop-color="#bc8487"/>
      <stop offset=".8" stop-color="#e3b2b3"/>
      <stop offset="1" stop-color="#fff"/>
    </linearGradient>
    <linearGradient id="linear-gradient-6" x1="1047.3" y1="3958.1" x2="811.9" y2="3385.8" gradientTransform="translate(-298.8 -3290.3)" gradientUnits="userSpaceOnUse">
      <stop offset="0" stop-color="#a6fffd"/>
      <stop offset="0" stop-color="#84eeec"/>
      <stop offset="0" stop-color="#61dcdb"/>
      <stop offset=".2" stop-color="#46cfce"/>
      <stop offset=".3" stop-color="#33c5c5"/>
      <stop offset=".4" stop-color="#27bfbf"/>
      <stop offset=".4" stop-color="#24bebe"/>
      <stop offset=".6" stop-color="#1a9fa3"/>
      <stop offset=".9" stop-color="#096572"/>
    </linearGradient>
  </defs>
  <!-- Generator: Adobe Illustrator 28.6.0, SVG Export Plug-In . SVG Version: 1.2.0 Build 709)  -->
  <g>
    <g id="Layer_1">
      <g id="Layer_2">
        <g id="Layer_1-2">
          <g>
            <g>
              <path class="cls-6" d="M323.1,632.1c-.5,0-1.1,0-1.3-.5h0c-.3,0-.8-.3-1.1-.5h0l-.8-.8s-.5-.5-.5-.8v-.3h0l-.5-1.1-71.7-196.2h0l-4-11.2-90.4-252.7H0l166.3,460.6c.8,2.1,2.7,3.5,4.5,3.5h153-.8Z"/>
              <path class="cls-1" d="M323.1,632.1c-.5,0-1.1,0-1.3-.5h0c-.3,0-.8-.3-1.1-.5h0l-.8-.8s-.5-.5-.5-.8v-.3h0l-.5-1.1-71.7-196.2h0l-4-11.2-90.4-252.7H0l166.3,460.6c.8,2.1,2.7,3.5,4.5,3.5h153-.8Z"/>
            </g>
            <path class="cls-3" d="M552.8,431.9l-71.7,196.2c-1.1,2.7-3.2,4-5.3,4h-1.3c-.3,0-.8,0-1.1-.5,0,0-.5,0-.5-.3-.3,0-.5-.5-.8-.8l-.5-.8c-.5-.5-.5-1.1-.8-1.3h0l-70.4-195.1-76.2-211.1c1.6-1.3,3.5-2.1,5.6-2.1h144.2c1.1,0,2.1.5,2.9,1.1.8.5,1.3,1.6,1.6,2.4l74.6,208.4h-.3Z"/>
            <path class="cls-2" d="M476.3,220.8l-76.5,212.2-70.4,195.1h0s-.3.8-.8,1.3l-.5.8-.8.8s-.3,0-.5.3c-.3,0-.5.3-1.1.5h-1.3c-2.1,0-4.3-1.3-5.3-4l-71.7-196.2,73.6-205.5c.8-1.9,1.9-3.5,3.2-4.8,1.6-1.3,3.5-2.1,5.6-2.1h144.2c1.1,0,2.1.5,2.9,1.1h0l-.5.5Z"/>
            <g>
              <path class="cls-4" d="M646.9,168l-90.1,252.4-4,11.2-71.7,196.2s0,.3-.3.5v.5c0,.3-.5.5-.5.8l-.8.8c-.3,0-.8.5-1.1.8h0c-.3,0-.8.3-1.3.5h-.8,153c1.9,0,3.7-1.3,4.5-3.5l166.3-460.6h-152.7l-.5.3Z"/>
              <path class="cls-5" d="M646.9,168l-90.1,252.4-4,11.2-71.7,196.2s0,.3-.3.5v.5c0,.3-.5.5-.5.8l-.8.8c-.3,0-.8.5-1.1.8h0c-.3,0-.8.3-1.3.5h-.8,153c1.9,0,3.7-1.3,4.5-3.5l166.3-460.6h-152.7l-.5.3Z"/>
            </g>
          </g>
        </g>
      </g>
    </g>
  </g>
</svg>