<?xml version="1.0" encoding="UTF-8"?>
<svg xmlns="http://www.w3.org/2000/svg" version="1.1" xmlns:xlink="http://www.w3.org/1999/xlink" viewBox="0 0 300 300">
  <defs>
    <style>
      .cls-1 {
        fill: url(#linear-gradient-2);
      }

      .cls-2 {
        fill: #fff;
      }

      .cls-3 {
        fill: none;
      }

      .cls-4 {
        fill: url(#linear-gradient-4);
      }

      .cls-5 {
        fill: url(#linear-gradient-3);
      }

      .cls-6 {
        fill: url(#linear-gradient);
      }
    </style>
    <linearGradient id="linear-gradient" x1="198.8" y1="224.5" x2="82.6" y2="408.2" gradientTransform="translate(0 347.8) scale(1 -1)" gradientUnits="userSpaceOnUse">
      <stop offset="0" stop-color="#065e86"/>
      <stop offset="0" stop-color="#0b6484"/>
      <stop offset=".2" stop-color="#28897e"/>
      <stop offset=".2" stop-color="#3da37a"/>
      <stop offset=".3" stop-color="#4ab377"/>
      <stop offset=".4" stop-color="#4fb977"/>
      <stop offset=".5" stop-color="#33967c"/>
      <stop offset=".7" stop-color="#1a7781"/>
      <stop offset=".8" stop-color="#0b6484"/>
      <stop offset=".9" stop-color="#065e86"/>
    </linearGradient>
    <linearGradient id="linear-gradient-2" x1="140" y1="27.7" x2="19.1" y2="321.6" gradientTransform="translate(0 347.8) scale(1 -1)" gradientUnits="userSpaceOnUse">
      <stop offset=".2" stop-color="#4fb977"/>
      <stop offset=".3" stop-color="#4cb577"/>
      <stop offset=".3" stop-color="#43aa79"/>
      <stop offset=".4" stop-color="#35987c"/>
      <stop offset=".5" stop-color="#207f80"/>
      <stop offset=".5" stop-color="#065f85"/>
      <stop offset=".5" stop-color="#065e86"/>
      <stop offset=".6" stop-color="#32957c"/>
      <stop offset=".6" stop-color="#4fb977"/>
      <stop offset=".7" stop-color="#47b477"/>
      <stop offset=".8" stop-color="#32a979"/>
      <stop offset="1" stop-color="#10977c"/>
      <stop offset="1" stop-color="#0d957d"/>
    </linearGradient>
    <linearGradient id="linear-gradient-3" x1="101.6" y1="347.6" x2="101.6" y2="347.6" gradientTransform="translate(0 347.8) scale(1 -1)" gradientUnits="userSpaceOnUse">
      <stop offset="0" stop-color="#065e86"/>
      <stop offset=".1" stop-color="#167282"/>
      <stop offset=".4" stop-color="#3fa57a"/>
      <stop offset=".5" stop-color="#4fb977"/>
      <stop offset=".6" stop-color="#47b477"/>
      <stop offset=".8" stop-color="#32a979"/>
      <stop offset="1" stop-color="#10977c"/>
      <stop offset="1" stop-color="#0d957d"/>
    </linearGradient>
    <linearGradient id="linear-gradient-4" x1="-11695.6" y1="200.4" x2="-11341" y2="200.4" gradientTransform="translate(11664.6 347.8) scale(1 -1)" gradientUnits="userSpaceOnUse">
      <stop offset="0" stop-color="#fff"/>
      <stop offset="0" stop-color="#d6efdf"/>
      <stop offset=".2" stop-color="#addec0"/>
      <stop offset=".2" stop-color="#8bd1a5"/>
      <stop offset=".3" stop-color="#70c691"/>
      <stop offset=".4" stop-color="#5dbe82"/>
      <stop offset=".5" stop-color="#52ba79"/>
      <stop offset=".6" stop-color="#4fb977"/>
      <stop offset=".7" stop-color="#49b278"/>
      <stop offset=".8" stop-color="#3a9e7b"/>
      <stop offset=".9" stop-color="#207f80"/>
      <stop offset="1" stop-color="#065e86"/>
    </linearGradient>
  </defs>
  <!-- Generator: Adobe Illustrator 28.6.0, SVG Export Plug-In . SVG Version: 1.2.0 Build 709)  -->
  <g>
    <g id="Layer_2">
      <g id="Layer_1-2">
        <g>
          <path class="cls-6" d="M261.6,68h0c0,1-.5,1.9-1.5,2.3l-72.6,30.4c-.2,0-.5,0-.7,0l-78.6-32.2h0s-56.8-23.3-56.8-23.3c-.4-.2-.7-.7-.5-1.1l.9-3c0-.2.1-.3.3-.4L89.8,7.6l.2.5,7.1-4.9,1.3-.9,1.8-1.5.5-.4.3-.2h.4s.2,0,.2,0h0l65.2,26.9,93.3,38.6s0,0,0,0c0,0,0,0,0,0,0,0,.3.1.5.3,0,0,0,0,0,0l.2.2c0,0,.2.2.3.4,0,0,0,.2.1.2,0,.1.1.3.1.4,0,.2,0,.4,0,.6h0Z"/>
          <path class="cls-1" d="M101.6.2c-.6,0-1,.3-1.3.7,0,0,0,0,0,0,0,0,0,0,0,0-.4.5-.4,1.1-.5,1.4h0s-.4,79-.4,79h0s0,4.5,0,4.5v1.6s0,0,0,0v186.2l-60.8,26.3v-43.5c0-37.9-.3-164.7,0-213.7,0-2.2,1.1-4.2,3-5.3,9-5.7,18.3-11.5,27.5-17.3h0L100.6.3c.3-.2.6-.2.8-.1h0s0,0,0,0h0Z"/>
          <path class="cls-5" d="M101.7.2s0,0,0,0h0s0,0,0,0Z"/>
          <path class="cls-4" d="M261.6,68.4c0,0,0,.2,0,.3,0,0,0,.2,0,.2,0,0,0,0,0,0,0,0,0,.1,0,.2,0,.1-.2.3-.2.4-.2.2-.4.4-.6.5,0,0,0,0-.1,0,0,0,0,0,0,0-.1,0-.2.1-.3.1h0l-73,30.5h0s-4.2,1.7-4.2,1.7l-85.2,34.8-59.2,24.2v65.4l59.7-24.7,162.1-67c.8-.3,1.3-1.1,1.3-1.9v-65.2c0,.1,0,.2,0,.3h0Z"/>
          <path class="cls-3" d="M101.2,0h0"/>
          <path class="cls-2" d="M101.6.2h0s0,0,0,0h0s0,0,0,0Z"/>
        </g>
      </g>
    </g>
  </g>
</svg>