<?xml version="1.0" encoding="UTF-8"?>
<svg xmlns="http://www.w3.org/2000/svg" version="1.1" xmlns:xlink="http://www.w3.org/1999/xlink" viewBox="0 0 800 800">
  <defs>
    <style>
      .cls-1 {
        fill: url(#linear-gradient-2);
      }

      .cls-2 {
        fill: url(#linear-gradient-4);
      }

      .cls-3 {
        fill: url(#linear-gradient-3);
      }

      .cls-4 {
        fill: url(#linear-gradient);
      }
    </style>
    <linearGradient id="linear-gradient" x1="-16787.5" y1="-2938.2" x2="-16324.3" y2="-2938.2" gradientTransform="translate(3203.2 -15987.5) rotate(-90)" gradientUnits="userSpaceOnUse">
      <stop offset="0" stop-color="#8318d0"/>
      <stop offset="1" stop-color="#c279f6"/>
    </linearGradient>
    <linearGradient id="linear-gradient-2" x1="-15453.3" y1="-2795" x2="-15684.9" y2="-2429" gradientTransform="translate(3203.2 -14978.2) rotate(-90)" gradientUnits="userSpaceOnUse">
      <stop offset="0" stop-color="#8317d0"/>
      <stop offset="1" stop-color="#c67ff7"/>
    </linearGradient>
    <linearGradient id="linear-gradient-3" x1="1586.7" y1="-9992.5" x2="2049.9" y2="-9992.5" gradientTransform="translate(-9449.7 -1586.7) rotate(90)" gradientUnits="userSpaceOnUse">
      <stop offset="0" stop-color="#8318d0"/>
      <stop offset="1" stop-color="#c57df6"/>
    </linearGradient>
    <linearGradient id="linear-gradient-4" x1="2921" y1="-9849" x2="2689.4" y2="-9483" gradientTransform="translate(-9449.7 -2596) rotate(90)" gradientUnits="userSpaceOnUse">
      <stop offset="0" stop-color="#8216cf"/>
      <stop offset="1" stop-color="#c47bf6"/>
    </linearGradient>
  </defs>
  <!-- Generator: Adobe Illustrator 28.6.0, SVG Export Plug-In . SVG Version: 1.2.0 Build 709)  -->
  <g>
    <g id="Layer_1">
      <g id="Layer_2">
        <g id="Layer_1-2">
          <g>
            <path class="cls-4" d="M400,531.8l4.7-6.6,81.7-114.3s1.5-2.3,6.2-2.3h-174.3c-2.3,0-4.3.9-5.1,1.9L37.4,800h175.4l187.3-268h0l-.2-.2Z"/>
            <path class="cls-1" d="M492.6,408.7h0c-2.6,0-4.9.9-6.2,2.3l-81.7,114.3,86.6,123.7h175.6l-168.2-237.8h0l-.9-.9-.6-.4c-.2,0-.6-.2-.9-.4h-.6c-.4,0-.9-.2-1.3-.2h-1.5l-.4-.6Z"/>
          </g>
          <g>
            <path class="cls-3" d="M407.8,268l-4.7,6.6-81.7,114.3s-1.5,2.3-6.2,2.3h174.3c2.3,0,4.3-.9,5.1-1.9L770.4,0h-175.4l-187.1,268h0Z"/>
            <path class="cls-2" d="M315.2,391.3h-1.5c-.4,0-.9,0-1.3-.2h-.6c-.4,0-.6-.2-.9-.4l-.6-.4c-.4-.4-.9-.6-.9-.9h0l-168.6-238.2h175.6l86.6,123.7-81.7,114.3c-1.3,1.5-3.6,2.3-6.2,2.3h0v-.2Z"/>
          </g>
        </g>
      </g>
    </g>
  </g>
</svg>