<?xml version="1.0" encoding="UTF-8"?>
<svg xmlns="http://www.w3.org/2000/svg" version="1.1" xmlns:xlink="http://www.w3.org/1999/xlink" viewBox="0 0 3907.5 1123.2">
  <defs>
    <style>
      .cls-1 {
        fill: url(#linear-gradient-2);
      }

      .cls-2 {
        fill: #fff;
      }

      .cls-3 {
        fill: none;
      }

      .cls-4 {
        fill: url(#linear-gradient-4);
      }

      .cls-5 {
        fill: url(#linear-gradient-3);
      }

      .cls-6 {
        fill: #4fb977;
      }

      .cls-7 {
        fill: url(#linear-gradient);
      }
    </style>
    <linearGradient id="linear-gradient" x1="600.6" y1="662.4" x2="165.4" y2="1350.2" gradientTransform="translate(0 1124) scale(1 -1)" gradientUnits="userSpaceOnUse">
      <stop offset="0" stop-color="#065e86"/>
      <stop offset="0" stop-color="#0b6484"/>
      <stop offset=".2" stop-color="#28897e"/>
      <stop offset=".2" stop-color="#3da37a"/>
      <stop offset=".3" stop-color="#4ab377"/>
      <stop offset=".4" stop-color="#4fb977"/>
      <stop offset=".5" stop-color="#33967c"/>
      <stop offset=".7" stop-color="#1a7781"/>
      <stop offset=".8" stop-color="#0b6484"/>
      <stop offset=".9" stop-color="#065e86"/>
    </linearGradient>
    <linearGradient id="linear-gradient-2" x1="380.5" y1="-74.3" x2="-72.2" y2="1025.8" gradientTransform="translate(0 1124) scale(1 -1)" gradientUnits="userSpaceOnUse">
      <stop offset=".2" stop-color="#4fb977"/>
      <stop offset=".3" stop-color="#4cb577"/>
      <stop offset=".3" stop-color="#43aa79"/>
      <stop offset=".4" stop-color="#35987c"/>
      <stop offset=".5" stop-color="#207f80"/>
      <stop offset=".5" stop-color="#065f85"/>
      <stop offset=".5" stop-color="#065e86"/>
      <stop offset=".6" stop-color="#32957c"/>
      <stop offset=".6" stop-color="#4fb977"/>
      <stop offset=".7" stop-color="#47b477"/>
      <stop offset=".8" stop-color="#32a979"/>
      <stop offset="1" stop-color="#10977c"/>
      <stop offset="1" stop-color="#0d957d"/>
    </linearGradient>
    <linearGradient id="linear-gradient-3" x1="236.8" y1="1123.2" x2="236.7" y2="1123.3" gradientTransform="translate(0 1124) scale(1 -1)" gradientUnits="userSpaceOnUse">
      <stop offset="0" stop-color="#065e86"/>
      <stop offset=".1" stop-color="#167282"/>
      <stop offset=".4" stop-color="#3fa57a"/>
      <stop offset=".5" stop-color="#4fb977"/>
      <stop offset=".6" stop-color="#47b477"/>
      <stop offset=".8" stop-color="#32a979"/>
      <stop offset="1" stop-color="#10977c"/>
      <stop offset="1" stop-color="#0d957d"/>
    </linearGradient>
    <linearGradient id="linear-gradient-4" x1="-11924.4" y1="572" x2="-10596.6" y2="572" gradientTransform="translate(11664.6 1124) scale(1 -1)" gradientUnits="userSpaceOnUse">
      <stop offset="0" stop-color="#fff"/>
      <stop offset="0" stop-color="#d6efdf"/>
      <stop offset=".2" stop-color="#addec0"/>
      <stop offset=".2" stop-color="#8bd1a5"/>
      <stop offset=".3" stop-color="#70c691"/>
      <stop offset=".4" stop-color="#5dbe82"/>
      <stop offset=".5" stop-color="#52ba79"/>
      <stop offset=".6" stop-color="#4fb977"/>
      <stop offset=".7" stop-color="#49b278"/>
      <stop offset=".8" stop-color="#3a9e7b"/>
      <stop offset=".9" stop-color="#207f80"/>
      <stop offset="1" stop-color="#065e86"/>
    </linearGradient>
  </defs>
  <!-- Generator: Adobe Illustrator 28.6.0, SVG Export Plug-In . SVG Version: 1.2.0 Build 709)  -->
  <g>
    <g id="Layer_2">
      <g id="Layer_1-2">
        <g>
          <path class="cls-7" d="M835.8,254.6v.2c0,3.4-2,6.8-5.7,8.5l-272,113.7c-.8.4-1.8.4-2.7,0l-294.3-120.5h0S48.5,169.3,48.5,169.3c-1.7-.7-2.5-2.5-2-4.2l3.3-11.1c.2-.6.5-1.2,1-1.6L192.6,28.4l.8,1.7,26.5-18.5,4.9-3.3,6.6-5.6,1.9-1.4,1.2-.6h1.4c0-.1.8,0,.8,0h0l243.9,100.8,349.4,144.4c0,0,.2.1.2.1.2,0,.3.2.4.2.3.1,1,.5,1.7,1.1.1.1.2.2.3.3l.8.8c.3.3.7.8,1,1.3.2.3.3.6.4.9.2.5.5,1.1.6,1.7.2.6.3,1.3.3,2.1h0Z"/>
          <path class="cls-1" d="M236.6.7c-2.2.2-3.8,1.2-4.8,2.5,0,0-.1.2-.2.2,0,0,0,0-.1.2-1.3,1.9-1.6,4.2-1.7,5.1h0c0,0-1.7,295.8-1.7,295.8h0s0,17,0,17v5.9s0,0,0,0v697.2L.6,1123.2v-162.8c-.4-141.9-1.2-616.6,0-800.1,0-8.1,4.2-15.6,11.1-19.9,33.8-21.2,68.4-42.9,102.9-64.6h-.1L233,1.1c.9-.6,2.1-.8,3.2-.5h.4c0,0,0,0,.1.1h0Z"/>
          <path class="cls-5" d="M236.9.8c0,0-.1,0-.2,0h0c0,0,.1,0,.2,0Z"/>
          <path class="cls-4" d="M835.6,255.9c0,.4-.1.7-.2,1,0,.3-.2.6-.3.9,0,0,0,.1,0,.2-.1.3-.2.6-.4.8-.3.6-.6,1-.9,1.5-.7.9-1.4,1.5-2.1,2-.2.1-.3.2-.5.3,0,0,0,0-.1.1-.5.3-.9.5-1.1.6h0l-273.3,114.3h0s-15.7,6.4-15.7,6.4l-318.8,130.2L.6,604.5v244.7l223.3-92.3,606.9-250.9c2.9-1.2,4.8-4.1,4.8-7.2v-244c0,.4,0,.8-.1,1.2h0Z"/>
          <path class="cls-3" d="M235,0h0"/>
          <path class="cls-2" d="M236.7.7h0s0,0-.1,0h.1q0,0,0,0Z"/>
        </g>
        <g>
          <path class="cls-6" d="M1170.3,98.1h88.6l127.3,314.8h-83.6l-28.8-76h-122.8l-29.2,76h-80.5l129.1-314.8h0ZM1250.8,275.2l-37.8-100.7-38.7,100.7h76.4,0Z"/>
          <path class="cls-6" d="M1443.7,409.5c-19.2-5.2-35.8-13-49.9-23.2l34.6-49c15,9,28.6,15.5,40.9,19.6s24.4,6.1,36.4,6.1,21.5-1.7,28.6-5.2,10.6-8,10.6-13.7-1.9-8.2-5.8-11c-3.9-2.9-10-4.9-18.4-6.1l-47.2-7.2c-23.7-3.6-41.7-11.5-54.2-23.6-12.4-12.1-18.7-28-18.7-47.4s4.1-30.1,12.4-41.6c8.2-11.5,20-20.4,35.3-26.5s33.6-9.2,54.9-9.2,34.6,2.4,51.7,7.2c17.1,4.8,33,12,47.7,21.6l-34.6,46.8c-12.9-7.5-25.2-13-36.9-16.4-11.7-3.4-23.4-5.2-35.1-5.2s-16.8,1.6-22.5,4.7c-5.7,3.1-8.5,7.3-8.5,12.4s2.1,8.6,6.3,11.5,11.4,5,21.6,6.5l47.2,7.2c23.4,3.3,41.4,11,54.2,23.2,12.7,12.1,19.1,27.5,19.1,46.1s-4.7,29.4-13.9,41.4c-9.3,12-22,21.5-38,28.5-16,7-34.4,10.6-55.1,10.6s-43.3-2.6-62.5-7.9h0Z"/>
          <path class="cls-6" d="M1672.6,409.5c-19.2-5.2-35.8-13-49.9-23.2l34.6-49c15,9,28.6,15.5,40.9,19.6s24.4,6.1,36.4,6.1,21.5-1.7,28.6-5.2,10.6-8,10.6-13.7-1.9-8.2-5.8-11c-3.9-2.9-10-4.9-18.4-6.1l-47.2-7.2c-23.7-3.6-41.7-11.5-54.2-23.6-12.4-12.1-18.7-28-18.7-47.4s4.1-30.1,12.4-41.6c8.2-11.5,20-20.4,35.3-26.5s33.6-9.2,54.9-9.2,34.6,2.4,51.7,7.2c17.1,4.8,33,12,47.7,21.6l-34.6,46.8c-12.9-7.5-25.2-13-36.9-16.4-11.7-3.4-23.4-5.2-35.1-5.2s-16.8,1.6-22.5,4.7-8.5,7.3-8.5,12.4,2.1,8.6,6.3,11.5,11.4,5,21.6,6.5l47.2,7.2c23.4,3.3,41.4,11,54.2,23.2,12.7,12.1,19.1,27.5,19.1,46.1s-4.7,29.4-13.9,41.4c-9.3,12-22,21.5-38,28.5-16,7-34.4,10.6-55.1,10.6s-43.3-2.6-62.5-7.9h0Z"/>
          <path class="cls-6" d="M1878.1,141.2c-7.8-7.8-11.7-17.2-11.7-28.3s3.9-20.5,11.7-28.3c7.8-7.8,17.2-11.7,28.3-11.7s20.5,3.9,28.3,11.7c7.8,7.8,11.7,17.2,11.7,28.3s-3.9,20.5-11.7,28.3c-7.8,7.8-17.2,11.7-28.3,11.7s-20.5-3.9-28.3-11.7ZM1870,175h72.8v237.9h-72.8v-237.9h0Z"/>
          <path class="cls-6" d="M2019.3,409.5c-19.2-5.2-35.8-13-49.9-23.2l34.6-49c15,9,28.6,15.5,40.9,19.6,12.3,4,24.4,6.1,36.4,6.1s21.5-1.7,28.6-5.2,10.6-8,10.6-13.7-1.9-8.2-5.9-11c-3.9-2.9-10-4.9-18.4-6.1l-47.2-7.2c-23.7-3.6-41.7-11.5-54.2-23.6-12.4-12.1-18.7-28-18.7-47.4s4.1-30.1,12.4-41.6c8.2-11.5,20-20.4,35.3-26.5s33.6-9.2,54.9-9.2,34.6,2.4,51.7,7.2c17.1,4.8,33,12,47.7,21.6l-34.6,46.8c-12.9-7.5-25.2-13-36.9-16.4-11.7-3.4-23.4-5.2-35.1-5.2s-16.8,1.6-22.5,4.7-8.5,7.3-8.5,12.4,2.1,8.6,6.3,11.5c4.2,2.9,11.4,5,21.6,6.5l47.2,7.2c23.4,3.3,41.4,11,54.2,23.2s19.1,27.5,19.1,46.1-4.6,29.4-13.9,41.4-22,21.5-38,28.5c-16,7-34.4,10.6-55.1,10.6s-43.3-2.6-62.5-7.9h0Z"/>
          <path class="cls-6" d="M2267.7,396.9c-14.5-12.7-21.8-31.5-21.8-56.4v-104.8h-48.1v-60.7h48.1v-95.3l72.9,35.1v60.3h66.6v60.7h-66.6v90.4c0,10.5,2.3,17.9,7,22.3,4.6,4.3,12.8,6.5,24.5,6.5s11.5-.4,16.4-1.1c4.9-.8,10.4-2,16.4-3.8v58.9c-6.6,2.1-15,3.8-25.2,5.2s-18.7,2-25.6,2c-28.5,0-50-6.4-64.5-19.1h0Z"/>
          <path class="cls-6" d="M2444.9,407.5c-13-6.3-23.2-15-30.6-26.1s-11-23.8-11-38.2c0-22.8,8.6-40.4,25.9-52.8,17.2-12.4,41.3-18.7,72.2-18.7s36.6,2.2,54,6.7v-11.7c0-12-3.8-20.9-11.5-26.8-7.6-5.8-19-8.8-33.9-8.8s-19.7,1.5-31.2,4.5c-11.5,3-25.1,7.8-40.7,14.4l-26.1-53.5c19.5-8.7,38.3-15.2,56.4-19.6,18.1-4.4,36.4-6.5,54.6-6.5,33,0,58.6,7.9,76.9,23.6,18.3,15.7,27.4,37.9,27.4,66.3v152.4h-71.9v-14.4c-9.6,6.6-19.7,11.3-30.4,14.2-10.6,2.9-22.4,4.3-35.3,4.3s-31.7-3.1-44.7-9.4h0ZM2482.4,359.3c6.6,4.2,15.7,6.3,27.4,6.3s16.9-.9,24.5-2.7c7.6-1.8,14.6-4.6,20.9-8.5v-30.6c-6.9-1.8-13.9-3.1-21.1-4-7.2-.9-14.5-1.4-22-1.4-12.6,0-22.3,2-29.2,6.1-6.9,4-10.3,9.8-10.3,17.3s3.3,13.3,9.9,17.5h0Z"/>
          <path class="cls-6" d="M1070.4,637.7h165.9c20.7,0,39,4.4,55.1,13.3,16,8.8,28.7,20.9,38,36.2,9.3,15.3,13.9,32.8,13.9,52.6s-4.7,35.9-13.9,51c-9.3,15.1-22,27.1-38.2,35.8s-34.5,13-54.9,13h-88.6v112.9h-77.3v-314.8h0ZM1227.4,775.8c11.4,0,20.5-3.3,27.4-9.9,6.9-6.6,10.3-15.1,10.3-25.6s-3.4-19.6-10.3-26.3-16-10.1-27.4-10.1h-79.6v72h79.6Z"/>
          <path class="cls-6" d="M1412,940.6c-19.6-10.9-35.2-25.7-46.5-44.3-11.4-18.6-17.1-39.4-17.1-62.5s5.5-43.9,16.4-62.5c10.9-18.6,25.9-33.3,44.7-44.3,18.9-10.9,39.9-16.4,62.9-16.4s44.1,5.6,62.1,16.9c18,11.2,32.2,26.6,42.5,46.1,10.3,19.5,15.5,41.8,15.5,67v18h-169.5c3.3,7.5,7.7,14.1,13.3,19.8,5.6,5.7,12.2,10.1,20,13.3s16.2,4.7,25.2,4.7,18.9-1.6,27-4.7c8.1-3.2,15-7.6,20.7-13.3l48.1,42.7c-15,12.6-30.3,21.7-46.1,27.4-15.7,5.7-33.5,8.5-53.3,8.5s-46.2-5.5-65.9-16.4h0ZM1521,807.7c-2.4-7.8-6.1-14.5-11-20-4.9-5.5-10.7-9.9-17.3-13-6.6-3.2-13.8-4.7-21.6-4.7s-15.4,1.5-22,4.5c-6.6,3-12.2,7.3-16.9,12.8-4.7,5.5-8.2,12.4-10.6,20.5h99.4,0Z"/>
          <path class="cls-6" d="M1626.7,714.6h72.8v23.8c7.8-9.6,16.9-16.9,27.4-21.8,10.5-4.9,22.2-7.4,35.1-7.4,12.9.3,22,2.2,27.4,5.8v63.4c-4.8-2.4-10.2-4.2-16.2-5.4s-12.1-1.8-18.4-1.8c-11.4,0-22,2.6-31.7,7.9s-17.6,12.7-23.6,22.3v151.1h-72.8v-237.9h0Z"/>
          <path class="cls-6" d="M1858.7,775.3h-52.2v-60.7h52.2v-14.4c0-28.2,8.3-49.7,25-64.5s40.6-22.3,71.7-22.3,13.1.4,20.5,1.1,13.4,1.9,18.2,3.4v60.2c-5.7-1.2-10.7-2-15.1-2.5-4.3-.5-8.9-.7-13.7-.7-11.1,0-19.5,2.2-25.2,6.5-5.7,4.3-8.5,11-8.5,20v13h62.5v60.7h-62.5v177.2h-72.8v-177.2h0Z"/>
          <path class="cls-6" d="M2068.3,940.6c-19.5-10.9-34.9-25.7-46.3-44.3-11.4-18.6-17.1-39.4-17.1-62.5s5.7-44,17.1-62.7,26.8-33.6,46.3-44.5c19.5-10.9,41.4-16.4,65.6-16.4s46.2,5.5,65.6,16.4,34.9,25.8,46.3,44.5c11.4,18.7,17.1,39.7,17.1,62.7s-5.7,43.9-17.1,62.5c-11.4,18.6-26.8,33.3-46.3,44.3-19.5,10.9-41.4,16.4-65.6,16.4s-46.2-5.5-65.6-16.4ZM2163.6,885.9c8.7-5.4,15.6-12.7,20.7-21.8,5.1-9.1,7.6-19.3,7.6-30.3s-2.6-21.7-7.6-30.8c-5.1-9.1-12.1-16.4-20.9-21.8-8.8-5.4-18.7-8.1-29.4-8.1s-20.6,2.7-29.4,8.1c-8.8,5.4-15.8,12.7-20.9,21.8-5.1,9.1-7.6,19.4-7.6,30.8s2.6,21.2,7.6,30.3c5.1,9.1,12.1,16.4,20.9,21.8,8.8,5.4,18.7,8.1,29.4,8.1s21-2.7,29.7-8.1Z"/>
          <path class="cls-6" d="M2297.2,714.6h72.9v23.8c7.8-9.6,16.9-16.9,27.4-21.8,10.5-4.9,22.2-7.4,35.1-7.4,12.9.3,22,2.2,27.4,5.8v63.4c-4.8-2.4-10.2-4.2-16.2-5.4s-12.1-1.8-18.4-1.8c-11.4,0-22,2.6-31.7,7.9s-17.6,12.7-23.6,22.3v151.1h-72.9v-237.9h0Z"/>
          <path class="cls-6" d="M2491.4,714.6h72.9v15.3c16.8-13.2,36.6-19.8,59.4-19.8s28.5,2.8,40.5,8.5c12,5.7,22,13.8,30.1,24.3,9.6-10.5,21-18.6,34.2-24.3s27.6-8.5,43.2-8.5,33.9,4,47.7,12.1c13.8,8.1,24.7,19.3,32.6,33.7,7.9,14.4,11.9,31,11.9,49.9v146.6h-72.9v-136.7c0-13.2-3.5-23.7-10.6-31.5-7-7.8-16.4-11.7-28.1-11.7s-15.4,1.5-22,4.5c-6.6,3-12.3,7.5-17.1,13.5.3,2.4.5,4.9.7,7.4.1,2.5.2,5.2.2,7.9v146.6h-72.9v-136.7c0-13.2-3.5-23.7-10.6-31.5-7.1-7.8-16.4-11.7-28.1-11.7s-15.4,1.4-21.8,4.3c-6.4,2.8-11.9,7.1-16.4,12.8v162.8h-72.9v-237.9h0Z"/>
          <path class="cls-6" d="M2938.2,947.1c-13-6.3-23.2-15-30.6-26.1s-11-23.8-11-38.2c0-22.8,8.6-40.4,25.9-52.8,17.2-12.4,41.3-18.7,72.2-18.7s36.6,2.2,54,6.8v-11.7c0-12-3.8-20.9-11.5-26.8-7.6-5.8-19-8.8-33.9-8.8s-19.7,1.5-31.2,4.5c-11.5,3-25.1,7.8-40.7,14.4l-26.1-53.5c19.5-8.7,38.3-15.2,56.4-19.6,18.1-4.3,36.4-6.5,54.6-6.5,33,0,58.6,7.9,76.9,23.6,18.3,15.7,27.4,37.8,27.4,66.3v152.4h-71.9v-14.4c-9.6,6.6-19.7,11.3-30.4,14.2-10.6,2.8-22.4,4.3-35.3,4.3s-31.7-3.2-44.7-9.4h0ZM2975.8,899c6.6,4.2,15.7,6.3,27.4,6.3s16.9-.9,24.5-2.7,14.6-4.7,20.9-8.5v-30.6c-6.9-1.8-13.9-3.2-21.1-4-7.2-.9-14.5-1.3-22-1.3-12.6,0-22.3,2-29.2,6.1-6.9,4-10.3,9.8-10.3,17.3s3.3,13.3,9.9,17.5h0Z"/>
          <path class="cls-6" d="M3163.7,714.6h72.9v16.2c18-13.8,39.3-20.7,63.9-20.7s35,4,49.2,12.1c14.2,8.1,25.4,19.3,33.5,33.7,8.1,14.4,12.1,31,12.1,49.9v146.6h-72.8v-136.7c0-13.2-3.9-23.7-11.7-31.5-7.8-7.8-18.3-11.7-31.5-11.7s-17.5,1.7-24.5,5c-7,3.3-13.1,7.9-18.2,13.9v161h-72.9v-237.9h0Z"/>
          <path class="cls-6" d="M3489.5,940.8c-19-10.8-34.1-25.5-45.2-44.3-11.1-18.7-16.6-39.7-16.6-62.7s5.6-44.4,16.6-63c11.1-18.6,26.2-33.3,45.2-44.3,19-10.9,40.4-16.4,64.1-16.4s38.1,3.8,55.8,11.5c17.7,7.6,32.7,18.5,45,32.6l-44.5,46.3c-8.4-9.6-16.9-16.6-25.6-20.9-8.7-4.3-18.3-6.5-28.8-6.5s-19.9,2.6-28.3,7.9c-8.4,5.2-15,12.4-19.8,21.6s-7.2,19.6-7.2,31.2,2.5,21.7,7.4,30.8,11.8,16.3,20.5,21.6c8.7,5.2,18.4,7.9,29.2,7.9s19-2.1,27.4-6.3c8.4-4.2,16.5-10.6,24.3-19.3l43.2,45c-12,13.8-26.7,24.5-44.1,32.2-17.4,7.6-35.5,11.5-54.4,11.5s-45-5.4-64.1-16.2h0Z"/>
          <path class="cls-6" d="M3726.9,940.6c-19.6-10.9-35.1-25.7-46.5-44.3-11.4-18.6-17.1-39.4-17.1-62.5s5.5-43.9,16.4-62.5c10.9-18.6,25.9-33.3,44.7-44.3,18.9-10.9,39.9-16.4,62.9-16.4s44.1,5.6,62.1,16.9c18,11.2,32.1,26.6,42.5,46.1,10.3,19.5,15.5,41.8,15.5,67v18h-169.5c3.3,7.5,7.7,14.1,13.3,19.8,5.6,5.7,12.2,10.1,20,13.3s16.2,4.7,25.2,4.7,18.9-1.6,27-4.7c8.1-3.2,15-7.6,20.7-13.3l48.1,42.7c-15,12.6-30.4,21.7-46.1,27.4-15.7,5.7-33.5,8.5-53.3,8.5s-46.2-5.5-65.9-16.4h0ZM3836,807.7c-2.4-7.8-6.1-14.5-11-20s-10.7-9.9-17.3-13c-6.6-3.2-13.8-4.7-21.6-4.7s-15.4,1.5-22,4.5c-6.6,3-12.2,7.3-16.9,12.8-4.6,5.5-8.2,12.4-10.6,20.5h99.4,0Z"/>
        </g>
      </g>
    </g>
  </g>
</svg>