<?xml version="1.0" encoding="UTF-8"?>
<svg xmlns="http://www.w3.org/2000/svg" version="1.1" xmlns:xlink="http://www.w3.org/1999/xlink" viewBox="0 0 200 46.2">
  <defs>
    <style>
      .cls-1 {
        fill: #fff;
      }

      .cls-2 {
        fill: none;
      }

      .cls-3 {
        fill: url(#linear-gradient);
      }
    </style>
    <linearGradient id="linear-gradient" x1="0" y1="23.1" x2="200" y2="23.1" gradientUnits="userSpaceOnUse">
      <stop offset="0" stop-color="#d95c6e"/>
      <stop offset="0" stop-color="#3c77ca"/>
    </linearGradient>
  </defs>
  <!-- Generator: Adobe Illustrator 28.6.0, SVG Export Plug-In . SVG Version: 1.2.0 Build 709)  -->
  <g>
    <g id="Layer_1">
      <rect class="cls-2" x="8.6" y="53.1" width="200" height="45.1"/>
      <path class="cls-3" d="M194.8,25.1l-1.1.3c3.2,1.2,3,11-3.4,11.7h0c0,.1-.1.1-.1.1-55.9,2.8-111.8,5.6-167.7,8.4-7.7.4-13.7-2.6-12.4-9.4.8-3,3.7-4.1,6.6-4.3-8.2-.3-2.8-.2-11-.6-7.6-.4-7.7-12.8,0-12.8h6.5c-6-2.1-5.7-12.3,1.5-12.5,43.4-1.3,84.9-2.8,127.4-4.1,1.9,0,3.8-.1,5.8-.2,1.2,0,2.5,0,3.8-.1.1,0,.2,0,.4,0,.3,0,.5,0,.8,0h0c1,0,2,0,3,0,.2,0,.3,0,.5,0,.1,0,.3,0,.4,0s.2,0,.3,0c.5,0,1.1,0,1.6,0h0c0,0,.2,0,.2,0,.6,0,1.1,0,1.7,0,.2,0,.5,0,.7,0,1.4,0,2.7,0,4.1-.1.4,0,.9,0,1.3,0,1,0,2.1,0,3.1,0,.1,0,.2,0,.3,0,.4,0,.7,0,1.1,0,.1,0,.2,0,.3,0,5.1-.2,10.3-.3,15.5-.5,1.2,0,2.2.3,2.9.9h0c.9.7,1.5,1.9,1.6,3.2.1,1.1,0,2.3-.3,3.5-.5,1.7-1.5,3.3-2.8,4.6-.6.6-1.3,1-2.2,1.4l9-1.2c7.5-.2,7.7,11.2.6,12.2Z"/>
      <path class="cls-1" d="M147.8,2.9s0,0,0,0c0-.4.2-.7.4-.6.2,0,.2.3,0,.6-.1.3,0,.6.2.7.6.3,1-.5.5-1.1-.2-.3.1-.2.7,0,1.2.6,1.9.6,2.5.3.2-.1.5,0,.7.3.2.4.3.3.2-.2-.2-1.1,1-2,1.4-1,.2.5.8.5,1.9.1,1.7-.7,2.4-.6,2.6.3.2.6,1.2.5,1.3-.2,0-.3,0-.5-.2-.6-.2,0-.2-.6-.1-1.2.1-.8.2-.9.5-.3.2.4.3,1,.2,1.3-.3,1.3.5,1.2,1,0l.5-1.4.5,1.6c.2.9.5,1.3.5,1,0-.3.3-.5.6-.4.9.4,1.1-.2.6-1.6-.5-1.6-.2-1.5.4,0,.5,1.2,1.9,2.1,2.8,1.6.3-.2.4-.4.3-.5-.2-.1-.4-.6-.4-1.1,0-.6,0-.7.4-.3.3.4.4.4.4-.1,0-.1-.2-.2-.2-.4-.2-.4-.3-.7,0-.7,0,0,.2.1.3.3,0-.3.2-.5.3-.5.3,0,.4.3.2,1.1,0,.1,0,.2,0,.3.1.3.1.5,0,.4,0,0,0,0,0,0-.1,1.3,0,1.9.6,1.6.3-.1,1.2-.2,1.9,0,.7.1,1.5,0,1.7-.4.2-.3.6-.4.8-.1.2.2.5.2.7,0,.2-.4.3-.3.4.1.1.4.4.5,1,.3.6-.3.9-.2,1.1.4.2.6.3.6.4,0,0-.4.3-.6.6-.4.3.1,1.5.2,2.6,0,1.2,0,2.8,0,3.6.2.8.2,1.5,0,1.5-.3,0-.4.5-.5,1.4-.1,1.6.6,3.5.8,3.7.5.1-.1,0-.3-.4-.5-.3-.1-.8-.9-1-1.6-.4-1.1-.3-1.3,0-1.4.3,0,.4.2.2.7-.2.6-.1.7.2.5.3-.2.3,0,.2.2-.5.9,1.4,1.8,2.9,1.9-.2-1.7-.8-3.2-1.7-4.2h0c-.4,0-.8-.2-1.1-.2-.4,0-1.3-.1-2-.2-.6,0-1.6-.1-2.1-.1h-.9c0,0,.7,1,.7,1,.5.6.5.9.2.7-.3-.1-.7-.7-.8-1.2-.2-.7-.4-.9-.7-.7-.2.2-1.1.2-2,0-.9-.2-1.9,0-2.3.2-.4.3-1,.3-1.3.1-1-.7-1.4-.6-1.2.3.1.6,0,.5-.3-.2-.3-.7-.5-.8-.7-.4-.2.3-.4.4-.6.1-.4-.5-1.3.1-1.6,1.2-.2.6-.2.5-.2-.3,0-.7,0-1-.5-.9-.3,0-.8,0-1.1-.2,0,0,0,0,0,0-.2,0-.3,0-.3,0,0,0-.1.2,0,.3.2,1-.6,1.2-.8.2,0-.2-.1-.4-.2-.5,0-.1-.2-.1-.3,0,0,0,0,0,0,0-.2.3-.7.3-1.2.2-.5-.1-1.1-.2-1.4-.1-.1,0-.3,0-.5,0-.2,0-.4-.1-.5-.2-.4-.2-.6-.1-.8.2-.1.3-.1.9,0,1.5.2.7.2,1.1-.1,1.5-.3.3-.4.2-.3-.4.2-2.2-1.8-2.3-2.4,0-.3,1.2-.4,1.3-.7.5-.2-.6-.3-1.3-.2-1.8.1-.5,0-.8-.4-1.1,0,0,0,0-.1,0-.3-.1-.5,0-.6,0-.3.3-.2.9.3,1.3.3.3.2.4-.4.4-.7,0-.8-.2-.7-.7.1-.4,0-.7-.4-.8-.2,0-.3,0-.5,0,0,.1-.1.2-.3.4,0-.2.2-.3.3-.4,0,0,0-.2,0-.2,0,0,0,0,0,0,0,0-.2,0-.3,0h0c-.3,0-.8.4-.9.6.2.1.4.2.5.2,0,0,.2,0,.3-.2,0,0,0,0,.1-.1,0,.2-.2.3-.4.3-.3.1-.5.2-.5,0,0,0,0-.1,0-.2,0,0-.2-.1-.3-.2-.2-.2-.4-.3-.5-.4-.2-.1-.3-.1-.3,0,0,0,0,.2,0,.4.2.7.1.7-.3,0,0-.1-.1-.3-.2-.3-.2-.3-.3-.3-.5,0,0,.1-.2.3-.3.6-.3.7-.7,1.3-1,1.4-.4,0-.4,0,0-.5.4-.5.3-.7-.8-1.1-.4-.2-.7-.2-1-.2,0,0,0,0,0,0-.2,0-.3,0-.3.1,0,.2-.2.2-.5-.1t0,0c-.3-.3-.4-.3-.3,0,0,0,0,0,0,0,.2.9-2,1.1-2.9.2-.1-.1-.4-.2-.9-.2-.4,0-.8,0-1.3,0,.6,1.6.7,3.5.3,5.2ZM171.2-.9c.4.3.7.4.8.2.1-.3.3-.4.5-.3.2,0,0,.5-.2.8-.6.8-1.4.6-1.6-.5-.1-.6,0-.6.5-.2ZM155.9.5c.9-.3,1.2-.2.9.4-.1.3-.6.4-.9.2-.6-.3-.6-.4,0-.6Z"/>
      <path class="cls-1" d="M10,48.7c.5,0,1,0,1.3,0,.5,0,.8-.1.9-.2.9-.8,3-.7,2.9.2,0,0,0,0,0,0,0,.4,0,.4.3,0t0,0c.2-.3.5-.3.5-.1,0,.1.1.1.3.1,0,0,0,0,0,0,.2,0,.6,0,1-.3,1-.4,1.2-.6.8-1.1-.4-.5-.4-.6,0-.5.3,0,.7.7,1,1.3,0,.3.2.4.3.6.2.4.3.3.5,0,0,0,0-.2.2-.3.4-.8.4-.8.3,0,0,.2,0,.3,0,.4,0,.2.1.1.3,0,.1,0,.3-.2.5-.4,0,0,.2-.2.3-.2,0,0,0-.2,0-.2,0-.2.3-.1.5,0,.2,0,.3,0,.4.3,0,0,0,0-.1-.1,0,0-.2-.1-.3-.2-.1,0-.3,0-.5.2.1.3.5.5.9.6h0c0,0,.2,0,.3,0,0,0,0,0,0,0,0,0,0,0,0-.2-.1,0-.3-.2-.3-.4.2.1.3.3.3.4.2,0,.3.1.5,0,.4-.1.5-.4.4-.8-.2-.5,0-.7.6-.7.6,0,.7,0,.4.4-.5.4-.5,1.1-.3,1.4.1.1.3.2.6,0,0,0,0,0,.1,0,.4-.2.5-.6.4-1.1-.1-.5,0-1.2.2-1.8.3-.8.4-.7.8.5.6,2.2,2.6,2.1,2.4-.1,0-.7,0-.8.3-.4.3.3.3.8.1,1.5-.2.6-.2,1.1,0,1.5.1.4.4.5.8.2.1-.1.3-.2.5-.2.2,0,.4,0,.5,0,.3,0,.9,0,1.4-.2.5-.1,1.1,0,1.2.2,0,0,0,0,0,0,.1.2.2.1.3,0,0-.1.1-.3.2-.5.2-1,1-.8.8.2,0,.2,0,.3,0,.3,0,0,.2,0,.3,0,0,0,0,0,0,0,.3-.2.8-.2,1.1-.2.4,0,.5-.2.4-.9,0-.8,0-.9.2-.3.4,1,1.3,1.7,1.7,1.2.2-.2.5-.2.6.1.2.4.4.3.7-.5.3-.7.4-.8.3-.2-.2.8.2.9,1.2.2.3-.2.9-.2,1.3.1.4.3,1.4.3,2.3.1.9-.2,1.7-.2,2,0,.3.2.5,0,.7-.7.2-.5.5-1.1.8-1.2.3-.1.3.1-.2.7l-.7,1h.9c.5,0,1.4,0,2.1-.1.6-.1,1.5-.2,2-.3.3,0,.7-.1,1.1-.2h0c.9-1,1.5-2.5,1.7-4.2-1.5,0-3.3,1-2.8,1.9.2.3,0,.4-.2.2-.3-.2-.4,0-.2.5.2.6.1.8-.2.7-.4,0-.4-.3-.1-1.4.2-.7.7-1.4,1-1.6.3-.2.5-.4.4-.5-.3-.3-2.1,0-3.7.6-.8.3-1.4.3-1.4-.1,0-.4-.6-.5-1.5-.3-.8.2-2.4.3-3.6.2-1.2,0-2.4,0-2.6.1-.3.1-.5,0-.6-.4,0-.5-.1-.5-.4.1-.2.6-.5.7-1.1.4-.6-.2-.9-.2-1,.3,0,.5-.2.5-.4.2-.2-.3-.5-.3-.7,0-.2.2-.6.2-.8-.1-.2-.3-1-.5-1.7-.4-.7.1-1.6,0-1.9,0-.5-.2-.7.3-.6,1.6,0,0,0,0,0,0,.1,0,.1.1,0,.4,0,.1,0,.2,0,.3.1.8,0,1.1-.2,1.1-.2,0-.3-.2-.3-.5-.1.1-.2.2-.3.3-.2,0-.1-.2,0-.7,0-.1.1-.2.2-.4,0-.5,0-.5-.4-.1-.3.4-.4.3-.4-.3,0-.5.2-1,.4-1.1.2-.1,0-.3-.3-.5-.9-.5-2.3.4-2.8,1.6-.5,1.6-.9,1.6-.4,0,.4-1.4.2-1.9-.7-1.5-.3.1-.6,0-.6-.4,0-.3-.3,0-.5,1l-.4,1.6-.6-1.4c-.5-1.3-1.3-1.3-1,0,0,.3,0,.9-.2,1.3-.2.6-.4.5-.5-.3,0-.6,0-1.1.1-1.2.2,0,.3-.3.2-.6,0-.7-1.1-.8-1.3-.2-.2.9-1,.9-2.6.3-1.1-.4-1.7-.4-1.9.2-.4,1-1.6,0-1.4-1,0-.5,0-.6-.2-.2-.2.3-.5.4-.7.3-.6-.4-1.2-.3-2.5.3-.6.3-.9.3-.7,0,.4-.6,0-1.4-.6-1.1-.2.1-.3.4-.2.7.1.3.1.5,0,.6-.2,0-.4-.2-.4-.6,0,0,0,0,0,0,.4,1.6.3,3.6-.2,5.2ZM33.2,46.7c.2-1.1.9-1.3,1.6-.5.3.4.4.8.2.8-.2,0-.4,0-.5-.3-.1-.3-.5-.2-.8.2-.4.4-.6.4-.5-.2ZM18.3,45.1c.4-.2.8-.1.9.2.3.6,0,.7-.9.4-.6-.2-.6-.3,0-.6Z"/>
      <path class="cls-1" d="M228.9,36.9s0,0,0,0c0,.4-.2.7-.4.6-.2,0-.2-.4,0-.6.1-.3,0-.6-.2-.7-.6-.3-1,.5-.6,1.1.2.3-.1.2-.7,0-1.2-.6-1.9-.7-2.5-.3-.2.1-.5,0-.7-.3-.2-.4-.3-.3-.2.2.2,1.1-1,2-1.4,1-.2-.5-.8-.5-1.9-.2-1.7.6-2.4.5-2.6-.3-.2-.6-1.2-.5-1.3.2,0,.3,0,.5.2.6.2,0,.2.6.1,1.2-.1.8-.3.8-.5.3-.2-.4-.3-1-.2-1.3.3-1.3-.5-1.2-1,0l-.6,1.4-.4-1.6c-.2-.9-.5-1.3-.5-1,0,.3-.3.5-.6.4-.8-.4-1.1.1-.7,1.5.5,1.6.2,1.5-.4,0-.4-1.3-1.9-2.1-2.8-1.6-.3.2-.5.4-.3.5.2.1.4.6.4,1.1,0,.6,0,.7-.4.3-.3-.4-.4-.4-.4.1,0,.1.2.2.2.4.2.4.2.7,0,.7,0,0-.2-.1-.3-.3,0,.3-.2.5-.3.5-.3,0-.4-.3-.2-1.1,0-.1,0-.2,0-.3-.1-.3-.1-.5,0-.4,0,0,0,0,0,0,.1-1.3,0-1.9-.6-1.6-.3.1-1.2.2-1.9,0-.7-.1-1.5,0-1.7.4-.2.3-.6.4-.8.1-.2-.2-.5-.2-.7,0-.2.4-.3.3-.4-.2,0-.5-.4-.5-1-.3-.6.3-.9.2-1.1-.4-.2-.6-.3-.6-.4-.1,0,.4-.3.6-.6.4-.3-.1-1.5-.2-2.6-.1-1.2,0-2.8,0-3.6-.2-.8-.2-1.5,0-1.5.3,0,.4-.5.4-1.4.1-1.6-.6-3.4-.9-3.7-.6-.1.1,0,.3.4.5.3.2.8.9,1,1.6.3,1.1.3,1.3-.1,1.4-.3,0-.4-.2-.2-.7.2-.6.2-.7-.2-.5-.3.2-.3,0-.2-.2.5-.9-1.3-1.8-2.8-1.9.2,1.7.7,3.2,1.7,4.2h0c.4,0,.8.2,1.1.2.4,0,1.3.2,2,.3.6,0,1.6.2,2.1.1h.9s-.7-1-.7-1c-.4-.6-.5-.9-.2-.7.3.1.6.7.8,1.2.2.7.4.9.7.7.2-.2,1.1-.2,2,0,.9.2,1.9.1,2.3-.1.4-.3,1-.3,1.3-.1,1,.7,1.3.6,1.2-.2-.1-.6,0-.5.3.2.3.7.5.8.7.5.2-.3.4-.3.6-.1.4.5,1.3-.1,1.7-1.2.2-.6.2-.5.2.3,0,.7,0,1,.4.9.3,0,.8,0,1.1.2,0,0,0,0,0,0,.2,0,.3,0,.3,0,0,0,.1-.2,0-.3-.2-1,.6-1.1.8-.2,0,.2.1.4.2.5,0,.1.2.1.3,0,0,0,0,0,0,0,.2-.3.7-.3,1.2-.2.5.2,1.1.2,1.4.2.1,0,.3,0,.5,0,.2,0,.4.1.5.2.4.3.6.1.8-.2.1-.3.1-.9,0-1.5-.2-.7-.2-1.1.1-1.5.3-.3.4-.2.3.4-.2,2.2,1.8,2.3,2.4.1.3-1.2.4-1.3.8-.5.2.6.3,1.3.2,1.8-.1.5,0,.8.4,1.1,0,0,0,0,.1,0,.3.1.5,0,.6,0,.3-.3.2-.9-.3-1.4-.3-.3-.2-.4.4-.4.7,0,.8.3.6.7-.1.4,0,.7.4.8.2,0,.3,0,.5,0,0-.1.1-.2.3-.4,0,.2-.2.3-.3.4,0,0,0,.2,0,.2,0,0,0,0,0,0,0,0,.2,0,.3,0h0c.3,0,.8-.3.9-.6-.2-.1-.4-.2-.5-.2,0,0-.2,0-.3.2,0,0,0,0-.1.1,0-.2.2-.3.4-.3.3-.1.5-.2.5,0,0,0,0,.1,0,.2,0,0,.2.1.3.2.2.2.4.3.5.4.2.1.3.2.3,0,0,0,0-.2,0-.4-.1-.7,0-.7.3,0,0,.1.1.3.2.3.2.3.3.3.5,0,0-.1.2-.3.3-.6.3-.7.7-1.3,1-1.3.4,0,.4,0,0,.5-.4.5-.3.7.8,1.1.4.2.7.3,1,.3,0,0,0,0,0,0,.2,0,.3,0,.3-.1,0-.2.2-.2.5.1t0,0c.3.4.4.3.3,0,0,0,0,0,0,0-.2-.9,2-1,2.9-.2.1.1.4.2.9.2.4,0,.8,0,1.3,0-.6-1.6-.7-3.6-.2-5.2ZM205.4,40.4c-.3-.4-.7-.4-.8-.2-.1.3-.4.4-.5.3-.2,0,0-.5.2-.8.7-.8,1.4-.5,1.6.5.1.6,0,.6-.5.2ZM220.8,39.2c-.9.3-1.2.2-.9-.4.1-.3.6-.4.9-.2.6.3.6.4,0,.6Z"/>
      <path class="cls-1" d="M17.4,1.4s0,0,0,0c0,.4-.2.7-.4.6-.2,0-.2-.3-.1-.6.1-.3,0-.6-.3-.7-.6-.3-1,.6-.5,1.2.2.2-.1.2-.7,0-1.2-.5-1.9-.5-2.5-.1-.2.1-.5,0-.7-.3-.2-.3-.3-.3-.1.2.3,1.1-.9,2-1.4,1.1-.3-.5-.8-.5-1.9,0-1.6.7-2.4.7-2.7-.1-.2-.6-1.2-.4-1.3.3,0,.3,0,.5.3.6.2,0,.3.6.2,1.2,0,.8-.2.9-.5.3-.2-.4-.3-1-.3-1.3.2-1.3-.6-1.2-1,.1l-.5,1.4-.6-1.6c-.3-.9-.5-1.3-.6-.9,0,.3-.3.5-.6.4-.9-.3-1.1.2-.6,1.6.6,1.5.3,1.5-.4,0C0,3.7-1.5,2.9-2.3,3.5c-.3.2-.4.4-.2.5.2,0,.4.6.5,1.1,0,.6,0,.7-.3.3-.3-.4-.4-.3-.4.1,0,.1.2.2.2.3.2.4.3.7.1.7,0,0-.2-.1-.3-.3,0,.3-.1.5-.3.6-.3,0-.4-.3-.3-1.1,0-.1,0-.2,0-.3-.1-.3-.2-.5,0-.4,0,0,0,0,0,0,0-1.3-.2-1.8-.7-1.6-.3.2-1.2.3-1.9.2-.7,0-1.5.1-1.7.5-.2.3-.6.4-.8.2-.2-.2-.5-.2-.7,0-.2.4-.3.4-.4-.1-.1-.4-.4-.5-1-.2-.6.3-.9.2-1.2-.3-.2-.6-.3-.6-.4,0,0,.4-.3.6-.5.5-.3-.1-1.5,0-2.6,0-1.1.1-2.8.1-3.6,0-.9-.1-1.5,0-1.5.4,0,.4-.5.5-1.4.2-1.7-.5-3.5-.7-3.7-.3-.1.1.1.3.5.5.3.1.8.8,1.1,1.5.4,1,.4,1.3,0,1.4-.3,0-.4-.1-.3-.7.2-.6.1-.7-.2-.5-.3.2-.3.1-.2-.2.4-.9-1.5-1.7-3-1.7.3,1.7,1,3.1,2,4.1h0c.4,0,.8.1,1.1.1.4,0,1.3,0,2,.1.6,0,1.6,0,2.1,0h.9c0-.1-.8-1-.8-1-.5-.6-.6-.8-.2-.7.3,0,.7.6.9,1.2.2.7.5.9.7.6.2-.2,1.1-.3,1.9-.2.9.1,1.9,0,2.3-.3.4-.3,1-.4,1.3-.2,1.1.6,1.4.5,1.2-.3-.1-.6,0-.5.3.2.3.7.5.8.7.4.1-.3.4-.4.6-.2.5.5,1.3-.2,1.6-1.3.2-.6.2-.5.2.3,0,.7.2,1,.5.9.3,0,.8,0,1.1,0,0,0,0,0,0,0,.2,0,.3,0,.3,0,0,0,0-.2,0-.3-.3-.9.6-1.2.8-.2,0,.2.1.4.2.5,0,.1.2.1.3,0,0,0,0,0,0,0,.1-.3.7-.4,1.2-.3.5.1,1.1.1,1.4,0,.1,0,.3,0,.5,0,.2,0,.4,0,.5.2.4.2.6,0,.7-.3.1-.3,0-.9-.1-1.5-.3-.7-.2-1.1,0-1.5.3-.4.4-.3.4.4,0,2.2,1.9,2.2,2.4,0,.2-1.2.3-1.3.7-.5.2.5.4,1.3.3,1.7-.1.5,0,.8.5,1,0,0,0,0,.1,0,.3.1.5,0,.6-.1.2-.3.1-.9-.4-1.3-.4-.3-.2-.4.4-.4.7,0,.8.2.7.7-.1.4,0,.7.4.8.2,0,.3,0,.5-.1,0-.1.1-.2.3-.4,0,.2-.2.3-.3.4,0,0,0,.2,0,.2,0,0,0,0,0,0,0,0,.2,0,.2,0h0c.3,0,.7-.4.8-.7-.2-.1-.4-.2-.5-.2,0,0-.2,0-.2.2,0,0,0,0-.1.1,0-.2.2-.3.4-.3.3-.2.5-.2.5,0,0,0,0,.1,0,.2,0,0,.2.1.3.2.2.2.4.3.5.3.2.1.3.1.3,0,0,0,0-.2,0-.4-.2-.7-.1-.7.3,0,0,.1.1.3.2.3.2.3.3.3.5,0,0-.1.1-.3.2-.6.2-.7.6-1.3.9-1.4.4,0,.4,0,0,.5-.3.5-.2.7.9,1.1.4.1.7.2,1,.2,0,0,0,0,0,0,.2,0,.3,0,.3-.2,0-.2.2-.2.5,0t0,0c.3.3.4.3.3,0,0,0,0,0,0,0-.2-.9,1.9-1.2,2.8-.4.1,0,.4.1.9.2.4,0,.8,0,1.3,0-.7-1.6-.9-3.5-.6-5.2ZM-5.8,6.5c-.4-.3-.8-.4-.9-.1-.1.3-.3.4-.5.3-.2,0,0-.5.2-.8.6-.8,1.4-.6,1.6.4.2.6,0,.6-.5.2ZM9.5,4.2c-.9.4-1.2.3-.9-.4.1-.3.5-.4.9-.2.7.3.7.3,0,.6Z"/>
    </g>
  </g>
</svg>