<?xml version="1.0" encoding="UTF-8"?>
<svg xmlns="http://www.w3.org/2000/svg" version="1.1" xmlns:xlink="http://www.w3.org/1999/xlink" viewBox="0 0 200 46.2">
  <defs>
    <style>
      .cls-1 {
        fill: none;
      }

      .cls-2 {
        fill: url(#linear-gradient);
      }

      .cls-3 {
        clip-path: url(#clippath);
      }
    </style>
    <clipPath id="clippath">
      <rect class="cls-1" y=".5" width="200" height="45.1"/>
    </clipPath>
    <linearGradient id="linear-gradient" x1="0" y1="24.8" x2="199.9" y2="24.8" gradientTransform="translate(0 48) scale(1 -1)" gradientUnits="userSpaceOnUse">
      <stop offset="0" stop-color="#d95c6e"/>
      <stop offset="0" stop-color="#3c77ca"/>
    </linearGradient>
  </defs>
  <!-- Generator: Adobe Illustrator 28.6.0, SVG Export Plug-In . SVG Version: 1.2.0 Build 709)  -->
  <g>
    <g id="Layer_1">
      <g id="Layer_1-2" data-name="Layer_1">
        <g class="cls-3">
          <path class="cls-2" d="M190.3,37.1c5.6-.3,7.1-7.2,4.4-10.7v-.8c7-1,7-12.9-.5-12.7h-2.4c4.9-2.7,4.1-12.3-2.6-12.1-58.5,1.7-117,3.4-175.5,5.2-7.2.2-7.5,10.4-1.5,12.5h-6.5c-7.7,0-7.6,12.4,0,12.8,8.2.4,16.4.8,24.6,1.1-2.6,0-5.2.3-7.8.4-7.6.4-7.7,13.2,0,12.8,55.9-2.8,111.8-5.6,167.7-8.4h.1Z"/>
        </g>
      </g>
    </g>
  </g>
</svg>