<?xml version="1.0" encoding="UTF-8"?>
<svg xmlns="http://www.w3.org/2000/svg" version="1.1" viewBox="0 0 200 46.2">
  <defs>
    <style>
      .cls-1 {
        fill: #fff;
      }

      .cls-2 {
        fill: #5355ce;
      }
    </style>
  </defs>
  <!-- Generator: Adobe Illustrator 28.6.0, SVG Export Plug-In . SVG Version: 1.2.0 Build 709)  -->
  <g>
    <g id="Layer_1">
      <g id="Layer_1-2" data-name="Layer_1">
        <g id="Layer_1-2">
          <g id="Layer_1-2-2" data-name="Layer_1-2">
            <path class="cls-2" d="M19.2,45.3c0,0,0,.1,0,.2-.5,0-.9,0-1.3-.2,0,0,.2-.1.4-.2.4-.2.8,0,.9.2Z"/>
            <path class="cls-2" d="M194.8,25.5v-.4l-1.1.3c3.2,1.2,3,11-3.4,11.7h0c-.4,0-.8,0-1.2,0-1.5-.5-3-.7-3.3-.5-.1,0,0,.3.4.5,0,0,0,0,.1,0-.3,0-.6,0-.9,0-.5-.2-1.2-.4-1.8-.4,0,.2,0,.4,0,.5-42.8,2.1-85.6,4.3-128.4,6.4,0-.1,0-.2,0-.4-.6,0-1.3.2-1.9.5-.2,0-.5,0-.7,0,0,0,.1-.1.2-.2.3-.2.5-.4.4-.5-.3-.3-2.1,0-3.7.6-.8.3-1.4.3-1.4,0s-.6-.5-1.5-.3c-.8.2-2.4.3-3.6.2h-2.6c-.3,0-.5,0-.6-.4,0-.3-.1-.3-.4,0-.2.6-.5.7-1.1.4-.6-.2-.9-.2-1,.3,0,.5-.2.5-.4.2-.2-.3-.5-.3-.7,0-.2.2-.6.2-.8,0-.2-.2-1-.5-1.7-.4-.7,0-1.6,0-1.9,0-.4-.2-.7.2-.6,1.2-.4,0-.9,0-1.3,0,0-.3.2-.5.3-.5.2,0,0-.3-.3-.5-.8-.4-2,.2-2.5,1.1-.2,0-.4,0-.5,0,.2-1.1,0-1.4-.8-1.1-.3,0-.6,0-.6-.4s-.3,0-.5,1l-.2.6c-.2,0-.4,0-.7,0l-.2-.4c-.5-1.3-1.3-1.3-1,0,0,.1,0,.3,0,.5-.2,0-.3,0-.5,0,0,0-.1,0-.2,0,0-.4,0-.6,0-.7.2,0,.3-.3.2-.6,0-.7-1.1-.8-1.3-.2-.2.9-1,.9-2.6.3-1.1-.4-1.7-.4-1.9.2-.4,1-1.6,0-1.4-1,0-.5,0-.6-.2-.2-.2.3-.5.4-.7.3-.4-.3-.9-.3-1.5,0-2.3-1.5-3.5-4-2.9-7.4.8-3,3.7-4.1,6.6-4.3-8.2-.3-2.8-.2-11-.6-7.6-.4-7.7-12.8,0-12.8h6.5c-4.9-1.7-5.6-8.7-1.9-11.4,0,0,0,0,0,0,.4,0,.7.2,1,.2s.3,0,.3-.2.2-.2.5,0c.3.3.4.3.3,0,0,0,0,0,0-.1,0-.8,2-1,2.8-.3.1,0,.4,0,.9.2h1.3c-.1-.3-.3-.7-.4-1,42.2-1.3,82.6-2.7,124-4,1.9,0,3.8,0,5.8-.2.4,0,.8,0,1.2,0,0,.2,0,.5,0,.7,0,0,.1,0,.2,0,.2,0,.2.3,0,.6-.1.3,0,.6.2.7.6.3,1-.5.5-1.1-.2-.3,0-.2.7,0,1.2.6,1.9.6,2.5.3.2,0,.5,0,.7.3.2.4.3.3.2-.2-.1-.7.3-1.3.7-1.4h.3c.2,0,.3.2.4.4.4,1,.8.5,1.9,0,1.7-.7,2.4-.6,2.6.3.2.6,1.2.5,1.3-.2,0-.3,0-.5-.2-.6h.6c-.2,1,.5,1,1,0,.4,0,.7,0,1.1,0h0c.2.9.5,1.3.5,1s.3-.5.6-.4c.7.3,1,0,.8-.7h.8c.6.7,1.6,1.1,2.2.7.3-.2.4-.4.3-.5,0,0-.1-.1-.2-.2h1.2c0,.7.2,1,.6.8.3,0,1.2-.2,1.9,0,.7,0,1.5,0,1.7-.4.2-.3.6-.4.8,0,.2.2.5.2.7,0,.2-.4.3-.3.4,0,0,.4.4.5,1,.3.6-.3.9-.2,1.1.4.2.6.3.6.4,0,0-.4.3-.6.6-.4.3,0,1.5.2,2.6,0,1.2,0,2.8,0,3.6.2.8.2,1.5,0,1.5-.3s.5-.5,1.4,0c.8.3,1.8.5,2.5.6.5.7.8,1.6.9,2.5,0,1.1,0,2.3-.3,3.5-.5,1.7-1.5,3.3-2.8,4.6-.6.6-1.3,1-2.2,1.4l9-1.2c7.5-.2,7.7,11.2.6,12.2Z"/>
            <path class="cls-1" d="M147.8,2.9h.1c0-.1,0-.4.1-.6-.1,0-.2.3-.2.6Z"/>
          </g>
        </g>
      </g>
    </g>
  </g>
</svg>