<?xml version="1.0" encoding="UTF-8"?>
<svg xmlns="http://www.w3.org/2000/svg" version="1.1" xmlns:xlink="http://www.w3.org/1999/xlink" viewBox="0 0 800 800">
  <defs>
    <style>
      .cls-1 {
        fill: url(#linear-gradient-2);
      }

      .cls-2 {
        fill: url(#linear-gradient-4);
      }

      .cls-3 {
        fill: url(#linear-gradient-3);
      }

      .cls-4 {
        fill: url(#linear-gradient);
      }
    </style>
    <linearGradient id="linear-gradient" x1="183.2" y1="710.6" x2="868.1" y2="710.6" gradientTransform="translate(0 800.9) scale(1 -1)" gradientUnits="userSpaceOnUse">
      <stop offset="0" stop-color="#363ca3"/>
      <stop offset="0" stop-color="#3e43b0"/>
      <stop offset=".2" stop-color="#4a4dc0"/>
      <stop offset=".3" stop-color="#5053ca"/>
      <stop offset=".4" stop-color="#5355ce"/>
      <stop offset=".6" stop-color="#676ad8"/>
      <stop offset=".9" stop-color="#9ca0f2"/>
      <stop offset="1" stop-color="#b6baff"/>
    </linearGradient>
    <linearGradient id="linear-gradient-2" x1="225.9" y1="402.7" x2="758.5" y2="402.7" gradientTransform="translate(0 800.9) scale(1 -1)" gradientUnits="userSpaceOnUse">
      <stop offset="0" stop-color="#363ca3"/>
      <stop offset="0" stop-color="#373da4"/>
      <stop offset="0" stop-color="#4347b7"/>
      <stop offset=".2" stop-color="#4c4fc4"/>
      <stop offset=".2" stop-color="#5153cb"/>
      <stop offset=".5" stop-color="#5355ce"/>
      <stop offset=".8" stop-color="#8689e7"/>
      <stop offset="1" stop-color="#b6baff"/>
    </linearGradient>
    <linearGradient id="linear-gradient-3" x1="212.9" y1="798.3" x2="212.9" y2="13.4" gradientTransform="translate(0 800.9) scale(1 -1)" gradientUnits="userSpaceOnUse">
      <stop offset="0" stop-color="#b6baff"/>
      <stop offset="0" stop-color="#b0b4fc"/>
      <stop offset=".2" stop-color="#888be8"/>
      <stop offset=".3" stop-color="#6a6dd9"/>
      <stop offset=".4" stop-color="#595bd1"/>
      <stop offset=".5" stop-color="#5355ce"/>
      <stop offset=".6" stop-color="#4549b9"/>
      <stop offset=".8" stop-color="#363ca3"/>
    </linearGradient>
    <linearGradient id="linear-gradient-4" x1="194.4" y1="14" x2="666.2" y2="213.7" gradientTransform="translate(0 800.9) scale(1 -1)" gradientUnits="userSpaceOnUse">
      <stop offset="0" stop-color="#b6baff"/>
      <stop offset=".2" stop-color="#8c90ea"/>
      <stop offset=".3" stop-color="#6d6fdb"/>
      <stop offset=".4" stop-color="#595cd1"/>
      <stop offset=".5" stop-color="#5355ce"/>
      <stop offset=".7" stop-color="#4649ba"/>
      <stop offset=".9" stop-color="#363ca3"/>
    </linearGradient>
  </defs>
  <!-- Generator: Adobe Illustrator 28.6.0, SVG Export Plug-In . SVG Version: 1.2.0 Build 709)  -->
  <g>
    <g id="Layer_2">
      <g id="Layer_1-2">
        <g>
          <path class="cls-4" d="M678.4,2.6v175.3H126.5L297.5,7c2.8-2.8,6.5-4.3,10.4-4.3h370.5Z"/>
          <rect class="cls-1" x="292.4" y="310.5" width="251.5" height="175.3"/>
          <path class="cls-3" d="M306.7,2.7c-12.2,1.2-12.3,19.6-12.3,19.6v765.2l-171-171c-2.8-2.8-4.3-6.5-4.3-10.4V191.4c0-3.9,1.6-7.7,4.3-10.4L294.4,10l4.1-4c3.1-2.5,6.4-3.2,8.1-3.3Z"/>
          <path class="cls-2" d="M680.9,622v175.3h-370.5c-3.9,0-7.7-1.6-10.4-4.3l-176.2-176.2c-1.8-1.7-2.8-3.6-2.8-3.6-1.4-2.4-1.7-4.9-1.7-4.9-.2-1.1-.2-3-.2-3v-3c0,16.4,19.7,19.6,19.7,19.6h542.1,0Z"/>
        </g>
      </g>
    </g>
  </g>
</svg>