<?xml version="1.0" encoding="UTF-8"?>
<svg xmlns="http://www.w3.org/2000/svg" version="1.1" xmlns:xlink="http://www.w3.org/1999/xlink" viewBox="0 0 100 100">
  <defs>
    <style>
      .cls-1 {
        fill: url(#linear-gradient-2);
      }

      .cls-2 {
        fill: url(#linear-gradient-4);
      }

      .cls-3 {
        fill: url(#linear-gradient-3);
      }

      .cls-4 {
        fill: url(#linear-gradient);
      }
    </style>
    <linearGradient id="linear-gradient" x1="-13184.5" y1="613.4" x2="-13105.8" y2="613.4" gradientTransform="translate(-13088.4 -536) rotate(-180) scale(1 -1)" gradientUnits="userSpaceOnUse">
      <stop offset="0" stop-color="#dd7c85"/>
      <stop offset=".8" stop-color="#e97d83"/>
      <stop offset=".8" stop-color="#efa2a6"/>
      <stop offset=".9" stop-color="#f7d4d6"/>
      <stop offset=".9" stop-color="#fdf3f3"/>
      <stop offset="1" stop-color="#fff"/>
    </linearGradient>
    <linearGradient id="linear-gradient-2" x1="-12121.4" y1="602.9" x2="-12151.1" y2="556.1" gradientTransform="translate(-12079.1 -536) rotate(-180) scale(1 -1)" gradientUnits="userSpaceOnUse">
      <stop offset="0" stop-color="#dd7c85"/>
      <stop offset=".4" stop-color="#e37c83"/>
      <stop offset="1" stop-color="#e97d83"/>
    </linearGradient>
    <linearGradient id="linear-gradient-3" x1="-774.6" y1="575.9" x2="-695.9" y2="575.9" gradientTransform="translate(778.5 -536)" gradientUnits="userSpaceOnUse">
      <stop offset="0" stop-color="#c66d76"/>
      <stop offset=".8" stop-color="#e97d83"/>
      <stop offset="1" stop-color="#fff"/>
    </linearGradient>
    <linearGradient id="linear-gradient-4" x1="288.4" y1="565.4" x2="258.8" y2="518.6" gradientTransform="translate(-230.8 -536)" gradientUnits="userSpaceOnUse">
      <stop offset="0" stop-color="#c66d76"/>
      <stop offset=".2" stop-color="#d3737b"/>
      <stop offset=".7" stop-color="#e37a80"/>
      <stop offset="1" stop-color="#e97d83"/>
    </linearGradient>
  </defs>
  <!-- Generator: Adobe Illustrator 28.6.0, SVG Export Plug-In . SVG Version: 1.2.0 Build 709)  -->
  <g>
    <g id="Layer_1">
      <g id="Layer_2">
        <g id="Layer_1-2">
          <g>
            <path class="cls-4" d="M50.5,64l-1.1-.5-19.4-8.1s-.4-.2-.4-.6v17.3c0,.2.1.4.4.5l66.2,27.4v-17.4l-45.6-18.6h0Z"/>
            <path class="cls-1" d="M29.6,54.8h0c0,.2.2.5.4.6l19.4,8.1,21-8.6v-17.4l-40.4,16.7h0s0,0-.1,0h0c0,0,0,.1,0,.2h0c0,0,0,.2,0,.2v.2h0Z"/>
            <path class="cls-3" d="M3.9,45.1v17.4l66.2-27.4c.2,0,.4-.3.4-.5v-17.3c0,.4-.4.6-.4.6l-19.4,8.1-1.1.5L3.9,45.1Z"/>
            <path class="cls-2" d="M70.4,17.3h0c0,.2-.2.5-.4.6l-19.4,8.1-21-8.6V0l40.4,16.7h0s0,0,.2,0h0c0,0,0,.2,0,.2h0c0,0,0,.2,0,.2v.2h0Z"/>
          </g>
        </g>
      </g>
    </g>
  </g>
</svg>