<?xml version="1.0" encoding="UTF-8"?>
<svg xmlns="http://www.w3.org/2000/svg" version="1.1" xmlns:xlink="http://www.w3.org/1999/xlink" viewBox="0 0 240 254.8">
  <defs>
    <style>
      .cls-1 {
        fill: url(#linear-gradient-2);
      }

      .cls-2 {
        fill: url(#linear-gradient-4);
      }

      .cls-3 {
        fill: url(#linear-gradient-3);
      }

      .cls-4 {
        fill: url(#linear-gradient);
      }
    </style>
    <linearGradient id="linear-gradient" x1="-9940.8" y1="733.2" x2="-9740.2" y2="733.2" gradientTransform="translate(-9703.3 -536) rotate(-180) scale(1 -1)" gradientUnits="userSpaceOnUse">
      <stop offset="0" stop-color="#bc8487"/>
      <stop offset=".8" stop-color="#e3b2b3"/>
      <stop offset=".8" stop-color="#efd4d4"/>
      <stop offset=".9" stop-color="#faf3f3"/>
      <stop offset="1" stop-color="#fff"/>
    </linearGradient>
    <linearGradient id="linear-gradient-2" x1="-8794.5" y1="706.3" x2="-8870" y2="587.1" gradientTransform="translate(-8694 -536) rotate(-180) scale(1 -1)" gradientUnits="userSpaceOnUse">
      <stop offset="0" stop-color="#bc8487"/>
      <stop offset=".4" stop-color="#d09c9e"/>
      <stop offset=".7" stop-color="#deacad"/>
      <stop offset="1" stop-color="#e3b2b3"/>
    </linearGradient>
    <linearGradient id="linear-gradient-3" x1="-776" y1="637.7" x2="-575.4" y2="637.7" gradientTransform="translate(778.5 -536)" gradientUnits="userSpaceOnUse">
      <stop offset="0" stop-color="#bc8487"/>
      <stop offset=".8" stop-color="#e3b2b3"/>
      <stop offset="1" stop-color="#fff"/>
    </linearGradient>
    <linearGradient id="linear-gradient-4" x1="370.2" y1="610.8" x2="294.8" y2="491.6" gradientTransform="translate(-230.8 -536)" gradientUnits="userSpaceOnUse">
      <stop offset="0" stop-color="#bc8487"/>
      <stop offset=".4" stop-color="#d09c9e"/>
      <stop offset=".7" stop-color="#deacad"/>
      <stop offset="1" stop-color="#e3b2b3"/>
    </linearGradient>
  </defs>
  <!-- Generator: Adobe Illustrator 28.6.0, SVG Export Plug-In . SVG Version: 1.2.0 Build 709)  -->
  <g>
    <g id="Layer_1">
      <g id="Layer_2">
        <g id="Layer_1-2">
          <g>
            <path class="cls-4" d="M121.3,163l-2.8-1.2-49.5-20.7s-1-.4-1-1.5v44.2c0,.6.3,1.1.9,1.3l168.6,69.7v-44.4l-116.1-47.4h0Z"/>
            <path class="cls-1" d="M67.9,139.6h0c0,.6.4,1.3,1,1.6l49.5,20.7,53.5-21.9v-44.4l-103,42.6h0s-.2.1-.3.2l-.2.2s0,.1-.2.2v.2s0,.2,0,.3v.4h-.2Z"/>
            <path class="cls-3" d="M2.5,114.9v44.4l168.6-69.7c.5-.2.9-.7.9-1.3v-44.2c0,1.1-1,1.5-1,1.5l-49.5,20.7-2.8,1.2L2.5,114.9Z"/>
            <path class="cls-2" d="M171.9,44.1h0c0,.6-.4,1.3-1,1.6l-49.5,20.7-53.5-21.9V0l103,42.6h0s.2,0,.4.2l.2.2s.1.2.2.2v.2s0,.2.1.3v.4h.1Z"/>
          </g>
        </g>
      </g>
    </g>
  </g>
</svg>