<?xml version="1.0" encoding="UTF-8"?>
<svg xmlns="http://www.w3.org/2000/svg" version="1.1" xmlns:xlink="http://www.w3.org/1999/xlink" viewBox="0 0 1352.9 1467.5">
  <defs>
    <style>
      .cls-1 {
        fill: url(#linear-gradient-2);
      }

      .cls-2 {
        fill: url(#linear-gradient-4);
      }

      .cls-3 {
        fill: url(#linear-gradient-3);
      }

      .cls-4 {
        fill: url(#linear-gradient);
      }
    </style>
    <linearGradient id="linear-gradient" x1="-10430.5" y1="332.1" x2="-9274.9" y2="332.1" gradientTransform="translate(-9077.6 1468) rotate(-180)" gradientUnits="userSpaceOnUse">
      <stop offset="0" stop-color="#bc8487"/>
      <stop offset=".8" stop-color="#e3b2b3"/>
      <stop offset=".8" stop-color="#efd4d4"/>
      <stop offset=".9" stop-color="#faf3f3"/>
      <stop offset="1" stop-color="#fff"/>
    </linearGradient>
    <linearGradient id="linear-gradient-2" x1="-8632.5" y1="487.2" x2="-9066.9" y2="1173.8" gradientTransform="translate(-8068.2 1468) rotate(-180)" gradientUnits="userSpaceOnUse">
      <stop offset="0" stop-color="#bc8487"/>
      <stop offset=".4" stop-color="#d09c9e"/>
      <stop offset=".7" stop-color="#deacad"/>
      <stop offset="1" stop-color="#e3b2b3"/>
    </linearGradient>
    <linearGradient id="linear-gradient-3" x1="-778.5" y1="882" x2="377" y2="882" gradientTransform="translate(778.5 1468) scale(1 -1)" gradientUnits="userSpaceOnUse">
      <stop offset="0" stop-color="#bc8487"/>
      <stop offset=".8" stop-color="#e3b2b3"/>
      <stop offset="1" stop-color="#fff"/>
    </linearGradient>
    <linearGradient id="linear-gradient-4" x1="1019.4" y1="1037" x2="585" y2="1723.7" gradientTransform="translate(-230.8 1468) scale(1 -1)" xlink:href="#linear-gradient-2"/>
  </defs>
  <!-- Generator: Adobe Illustrator 28.6.0, SVG Export Plug-In . SVG Version: 1.2.0 Build 709)  -->
  <g>
    <g id="Layer_2">
      <g id="Layer_1-2">
        <g>
          <path class="cls-4" d="M684.2,938.8l-16.4-6.7-284.9-119.1s-5.6-2.3-6-8.8v254.4c0,3.3,2,6.2,5,7.5l970.9,401.4v-255.7l-668.7-273h0Z"/>
          <path class="cls-1" d="M377,804v.2c0,3.6,2.1,7.1,6,8.8l284.9,119.1,308.2-126.2v-256l-593.1,245.2c0,0-.2,0-.2,0-.2,0-.2.2-.4.2-.4.2-1.1.6-2,1.3l-1,1c-.4.4-.7.9-1,1.4-.2.2-.4.6-.4,1-.2.5-.5,1.1-.6,1.7-.2.7-.3,1.4-.3,2.3h0Z"/>
          <path class="cls-3" d="M0,662v255.7l970.9-401.4c3-1.3,5-4.3,5-7.5v-254.4c-.4,6.6-6,8.8-6,8.8l-284.9,119.1-16.4,6.7L0,662Z"/>
          <path class="cls-2" d="M975.9,254.1v.2c0,3.6-2.1,7.1-6,8.8l-284.9,119.1-308.2-126.2V0l593.1,245.2s.2,0,.2,0c.2,0,.2.2.4.2.4.2,1.1.6,2,1.3l1,1c.4.4.7.9,1,1.4.2.2.4.6.4,1,.2.5.5,1.1.6,1.7.2.7.3,1.4.3,2.3h0Z"/>
        </g>
      </g>
    </g>
  </g>
</svg>