<?xml version="1.0" encoding="UTF-8"?>
<svg xmlns="http://www.w3.org/2000/svg" version="1.1" viewBox="0 0 922.8 922.8">
  <defs>
    <style>
      .cls-1 {
        fill: #1b38c9;
      }

      .cls-2 {
        fill: #e1ad19;
      }
    </style>
  </defs>
  <!-- Generator: Adobe Illustrator 28.6.0, SVG Export Plug-In . SVG Version: 1.2.0 Build 709)  -->
  <g>
    <g id="Layer_2">
      <g id="Layer_1-2">
        <path class="cls-1" d="M742.5,211.6H175.9c-17.9,0-32.4-14.5-32.4-32.4h0c0-17.9,14.5-32.4,32.4-32.4h565.5c93.4,0,175,70.5,181.1,163.8,6.6,102.2-74.3,187.1-175.1,187.1H175.9c-17.9,0-32.4-14.5-32.4-32.4h0c0-17.9,14.5-32.4,32.4-32.4h571.5c64.6,0,116.5-55.7,110.1-121.6-5.6-57.5-57.3-99.5-115-99.5h0Z"/>
        <path class="cls-1" d="M779.3,305.8c.7,18.5-15.4,33.7-33.9,33.7H180.4c-57.8,0-109.4,42.1-115,99.6-6.5,65.9,45.4,121.6,110.1,121.6h235.6c17.9,0,32.4,14.5,32.4,32.4h0c0,17.9-14.5,32.4-32.4,32.4h-235.6c-100.8,0-181.7-84.9-175.1-187.1,6-93.3,87.6-163.8,181-163.8h565.5c9,0,17.1,3.6,22.9,9.5,5.6,5.6,9.2,13.1,9.5,21.6h0Z"/>
        <path class="cls-2" d="M650.9,497.7v259.2c0,14.4-15.6,23.8-28.2,16.7-14-7.9-32.8-14.9-55.8-15.1-23.7-.1-43.1,7-57.4,15.1-12.6,7.1-28.1-2.3-28.1-16.7v-259.2h169.5Z"/>
      </g>
    </g>
  </g>
</svg>