<?xml version="1.0" encoding="UTF-8"?>
<svg xmlns="http://www.w3.org/2000/svg" version="1.1" xmlns:xlink="http://www.w3.org/1999/xlink" viewBox="0 0 922.8 922.8">
  <defs>
    <style>
      .cls-1 {
        fill: url(#linear-gradient-2);
      }

      .cls-2 {
        fill: url(#linear-gradient-4);
      }

      .cls-3 {
        fill: url(#linear-gradient-3);
      }

      .cls-4 {
        fill: url(#linear-gradient);
      }
    </style>
    <linearGradient id="linear-gradient" x1="68.8" y1="461.1" x2="1283" y2="461.1" gradientTransform="translate(0 922) scale(1 -1)" gradientUnits="userSpaceOnUse">
      <stop offset="0" stop-color="#17acb2"/>
      <stop offset=".8" stop-color="#0a7794"/>
      <stop offset=".8" stop-color="#9a5c8a"/>
      <stop offset=".9" stop-color="#c5a1bc"/>
      <stop offset=".9" stop-color="#e4d4e0"/>
      <stop offset=".9" stop-color="#f7f3f6"/>
      <stop offset="1" stop-color="#fff"/>
    </linearGradient>
    <linearGradient id="linear-gradient-2" x1="559.8" y1="257.2" x2="761.5" y2="257.2" gradientTransform="translate(0 922) scale(1 -1)" gradientUnits="userSpaceOnUse">
      <stop offset="0" stop-color="#17acb2"/>
      <stop offset=".8" stop-color="#0a7794"/>
      <stop offset=".8" stop-color="#9a5c8a"/>
      <stop offset=".9" stop-color="#c5a1bc"/>
      <stop offset=".9" stop-color="#e4d4e0"/>
      <stop offset=".9" stop-color="#f7f3f6"/>
      <stop offset="1" stop-color="#fff"/>
    </linearGradient>
    <linearGradient id="linear-gradient-3" x1="246.8" y1="257.2" x2="419.8" y2="257.2" gradientTransform="translate(0 922) scale(1 -1)" gradientUnits="userSpaceOnUse">
      <stop offset="0" stop-color="#17acb2"/>
      <stop offset=".8" stop-color="#0a7794"/>
      <stop offset=".8" stop-color="#9a5c8a"/>
      <stop offset=".9" stop-color="#c5a1bc"/>
      <stop offset=".9" stop-color="#e4d4e0"/>
      <stop offset=".9" stop-color="#f7f3f6"/>
      <stop offset="1" stop-color="#fff"/>
    </linearGradient>
    <linearGradient id="linear-gradient-4" x1="387.6" y1="257.2" x2="614.7" y2="257.2" gradientTransform="translate(0 922) scale(1 -1)" gradientUnits="userSpaceOnUse">
      <stop offset="0" stop-color="#17acb2"/>
      <stop offset=".8" stop-color="#0a7794"/>
      <stop offset=".8" stop-color="#9a5c8a"/>
      <stop offset=".9" stop-color="#c5a1bc"/>
      <stop offset=".9" stop-color="#e4d4e0"/>
      <stop offset=".9" stop-color="#f7f3f6"/>
      <stop offset="1" stop-color="#fff"/>
    </linearGradient>
  </defs>
  <!-- Generator: Adobe Illustrator 28.6.0, SVG Export Plug-In . SVG Version: 1.2.0 Build 709)  -->
  <g>
    <g id="Layer_2">
      <g id="Layer_1-2">
        <path class="cls-4" d="M834.9,716l-221.5-371.6V56.7h26.8c14.8,0,26.8-12,26.8-26.8s-12-26.8-26.8-26.8h-357.7c-14.8,0-26.8,12-26.8,26.8s12,26.8,26.8,26.8h26.8v287.7l-221.5,371.6c-25,42-25.6,92.5-1.4,134.9,24.2,42.5,67.8,67.9,116.6,67.9h516.5c48.9,0,92.5-25.4,116.6-67.9,24.2-42.5,23.6-93-1.4-134.9h0ZM559.8,56.7v53.7h-80.5c-14.8,0-26.8,12-26.8,26.8s12,26.8,26.8,26.8h80.5v53.7h-44.7c-14.8,0-26.8,12-26.8,26.8s12,26.8,26.8,26.8h44.7v53.7h-196.7V56.7h196.7ZM789.7,824.4c-14.5,25.5-40.7,40.7-70,40.7H203.2c-29.3,0-55.5-15.2-70-40.7-14.5-25.5-14.2-55.8.8-81l217.4-364.8h219.9l217.4,364.8c15,25.2,15.3,55.5.8,81h0Z"/>
        <g>
          <path class="cls-1" d="M605.6,583.2c-10.5-10.5-27.5-10.5-37.9,0-10.5,10.5-10.5,27.5,0,37.9l43.6,43.6-43.6,43.6c-10.5,10.5-10.5,27.5,0,37.9,5.2,5.2,12.1,7.9,19,7.9s13.7-2.6,19-7.9l62.6-62.6c10.5-10.5,10.5-27.5,0-37.9l-62.6-62.6h0Z"/>
          <path class="cls-3" d="M355.2,583.2c-10.5-10.5-27.5-10.5-37.9,0l-62.6,62.6c-10.5,10.5-10.5,27.5,0,37.9l62.6,62.6c5.2,5.2,12.1,7.9,19,7.9s13.7-2.6,19-7.9c10.5-10.5,10.5-27.5,0-37.9l-43.6-43.6,43.6-43.6c10.5-10.5,10.5-27.5,0-37.9h0Z"/>
          <path class="cls-2" d="M517.8,514.5c-13.9-5.2-29.3,1.8-34.5,15.7l-93.9,250.4c-5.2,13.9,1.8,29.3,15.7,34.5,3.1,1.2,6.3,1.7,9.4,1.7,10.9,0,21.1-6.6,25.1-17.4l93.9-250.4c5.2-13.9-1.8-29.3-15.7-34.5h0Z"/>
        </g>
      </g>
    </g>
  </g>
</svg>