<?xml version="1.0" encoding="UTF-8"?>
<svg id="Layer_2" data-name="Layer 2" xmlns="http://www.w3.org/2000/svg" xmlns:xlink="http://www.w3.org/1999/xlink" viewBox="0 0 1254.06 375.77">
  <defs>
    <style>
      .cls-1 {
        fill: url(#linear-gradient-2);
      }

      .cls-2 {
        fill: url(#linear-gradient-4);
      }

      .cls-3 {
        fill: url(#linear-gradient-3);
      }

      .cls-4 {
        fill: #c278f6;
      }

      .cls-5 {
        fill: url(#linear-gradient);
      }
    </style>
    <linearGradient id="linear-gradient" x1="-15675.41" y1="-2884.63" x2="-15457.76" y2="-2884.63" gradientTransform="translate(3901.31 -15299.64) rotate(-90)" gradientUnits="userSpaceOnUse">
      <stop offset="0" stop-color="#8318d0"/>
      <stop offset=".96" stop-color="#c279f6"/>
    </linearGradient>
    <linearGradient id="linear-gradient-2" x1="-14513.38" y1="-2817.31" x2="-14622.15" y2="-2645.42" gradientTransform="translate(3901.31 -14290.26) rotate(-90)" gradientUnits="userSpaceOnUse">
      <stop offset="0" stop-color="#8317d0"/>
      <stop offset=".97" stop-color="#c67ff7"/>
    </linearGradient>
    <linearGradient id="linear-gradient-3" x1="1870.78" y1="-10322.86" x2="2088.41" y2="-10322.86" gradientTransform="translate(-9175.65 -1870.78) rotate(90)" gradientUnits="userSpaceOnUse">
      <stop offset="0" stop-color="#8318d0"/>
      <stop offset=".97" stop-color="#c57df6"/>
    </linearGradient>
    <linearGradient id="linear-gradient-4" x1="3032.81" y1="-10255.54" x2="2924.03" y2="-10083.62" gradientTransform="translate(-9175.65 -2880.15) rotate(90)" gradientUnits="userSpaceOnUse">
      <stop offset="0" stop-color="#8216cf"/>
      <stop offset=".97" stop-color="#c47bf6"/>
    </linearGradient>
  </defs>
  <g id="Layer_1-2" data-name="Layer 1">
    <g>
      <path class="cls-5" d="M1080.14,249.84l2.15-3.08,38.37-53.66s.72-1.06,2.86-1.13h-81.94c-1.06,0-2,.38-2.43.94l-129.31,182.86h82.37l87.95-125.94h-.02Z"/>
      <path class="cls-1" d="M1123.57,191.96h-.06c-1.15.02-2.28.39-2.86,1.13l-38.37,53.66,40.66,58.05h82.48l-78.99-111.7s-.04-.03-.04-.04c-.04-.03-.06-.04-.06-.07-.06-.07-.2-.22-.43-.38l-.33-.2c-.11-.07-.28-.13-.45-.2-.09-.03-.2-.07-.32-.08-.17-.04-.37-.1-.56-.12-.22-.03-.45-.05-.72-.05h.04Z"/>
    </g>
    <g>
      <path class="cls-3" d="M1083.76,125.94l-2.15,3.08-38.37,53.66s-.74,1.06-2.86,1.13h81.94c1.06,0,2-.37,2.43-.94L1254.06,0h-82.37s-87.93,125.94-87.93,125.94Z"/>
      <path class="cls-2" d="M1040.34,183.81c-.28,0-.5-.02-.72-.05-.19-.02-.39-.08-.56-.12-.11-.01-.22-.04-.32-.08-.17-.07-.33-.13-.45-.2l-.33-.2c-.22-.16-.37-.31-.43-.38,0-.02-.02-.03-.06-.07,0-.01-.04-.04-.04-.04l-78.99-111.7h82.5s40.66,58.05,40.66,58.05l-38.37,53.66c-.58.74-1.71,1.11-2.86,1.13h-.06s.02,0,.02,0Z"/>
    </g>
    <g>
      <path class="cls-4" d="M76.06,76.35h52.21l75,185.51h-49.29l-16.96-44.79h-72.35l-17.23,44.79H0L76.06,76.35ZM123.5,180.77l-22.26-59.36-22.79,59.36h45.05Z"/>
      <path class="cls-4" d="M237.18,259.87c-11.31-3.09-21.11-7.64-29.42-13.65l20.41-28.89c8.83,5.3,16.87,9.14,24.12,11.53,7.24,2.38,14.4,3.58,21.47,3.58s12.68-1.02,16.83-3.05c4.15-2.03,6.23-4.73,6.23-8.08,0-2.65-1.15-4.81-3.45-6.49s-5.92-2.87-10.87-3.58l-27.83-4.24c-13.96-2.12-24.6-6.76-31.93-13.91s-11-16.47-11-27.96c0-9.54,2.43-17.71,7.29-24.51,4.86-6.8,11.79-12.01,20.8-15.64,9.01-3.62,19.79-5.43,32.33-5.43,10.25,0,20.41,1.41,30.48,4.24,10.07,2.83,19.43,7.07,28.09,12.72l-20.41,27.56c-7.6-4.42-14.84-7.64-21.73-9.67-6.89-2.03-13.78-3.05-20.67-3.05-5.48,0-9.89.93-13.25,2.78-3.36,1.86-5.04,4.28-5.04,7.29,0,2.83,1.24,5.08,3.71,6.76,2.47,1.68,6.71,2.96,12.72,3.84l27.83,4.24c13.78,1.94,24.43,6.49,31.93,13.65s11.26,16.21,11.26,27.16c0,9.19-2.74,17.31-8.22,24.38-5.48,7.07-12.94,12.68-22.39,16.83-9.45,4.15-20.27,6.23-32.46,6.23-13.25,0-25.53-1.55-36.84-4.64Z"/>
      <path class="cls-4" d="M372.07,259.87c-11.31-3.09-21.11-7.64-29.42-13.65l20.41-28.89c8.83,5.3,16.87,9.14,24.12,11.53,7.24,2.38,14.4,3.58,21.47,3.58s12.68-1.02,16.83-3.05c4.15-2.03,6.23-4.73,6.23-8.08,0-2.65-1.15-4.81-3.45-6.49s-5.92-2.87-10.87-3.58l-27.83-4.24c-13.96-2.12-24.6-6.76-31.93-13.91s-11-16.47-11-27.96c0-9.54,2.43-17.71,7.29-24.51,4.86-6.8,11.79-12.01,20.8-15.64,9.01-3.62,19.79-5.43,32.33-5.43,10.25,0,20.41,1.41,30.48,4.24,10.07,2.83,19.43,7.07,28.09,12.72l-20.41,27.56c-7.6-4.42-14.84-7.64-21.73-9.67-6.89-2.03-13.78-3.05-20.67-3.05-5.48,0-9.89.93-13.25,2.78-3.36,1.86-5.04,4.28-5.04,7.29,0,2.83,1.24,5.08,3.71,6.76,2.47,1.68,6.71,2.96,12.72,3.84l27.83,4.24c13.78,1.94,24.43,6.49,31.93,13.65s11.26,16.21,11.26,27.16c0,9.19-2.74,17.31-8.22,24.38-5.48,7.07-12.94,12.68-22.39,16.83-9.45,4.15-20.27,6.23-32.46,6.23-13.25,0-25.53-1.55-36.84-4.64Z"/>
      <path class="cls-4" d="M493.17,101.79c-4.59-4.59-6.89-10.16-6.89-16.7s2.3-12.1,6.89-16.7,10.16-6.89,16.7-6.89,12.1,2.3,16.7,6.89,6.89,10.16,6.89,16.7-2.3,12.1-6.89,16.7c-4.59,4.59-10.16,6.89-16.7,6.89s-12.1-2.3-16.7-6.89ZM488.4,121.67h42.93v140.19h-42.93V121.67Z"/>
      <path class="cls-4" d="M576.38,259.87c-11.31-3.09-21.11-7.64-29.42-13.65l20.41-28.89c8.83,5.3,16.87,9.14,24.12,11.53,7.24,2.38,14.4,3.58,21.47,3.58s12.68-1.02,16.83-3.05c4.15-2.03,6.23-4.73,6.23-8.08,0-2.65-1.15-4.81-3.45-6.49s-5.92-2.87-10.87-3.58l-27.83-4.24c-13.96-2.12-24.6-6.76-31.93-13.91s-11-16.47-11-27.96c0-9.54,2.43-17.71,7.29-24.51s11.79-12.01,20.8-15.64,19.79-5.43,32.33-5.43c10.25,0,20.41,1.41,30.48,4.24,10.07,2.83,19.43,7.07,28.09,12.72l-20.41,27.56c-7.6-4.42-14.84-7.64-21.73-9.67-6.89-2.03-13.78-3.05-20.67-3.05-5.48,0-9.89.93-13.25,2.78s-5.04,4.28-5.04,7.29c0,2.83,1.24,5.08,3.71,6.76s6.71,2.96,12.72,3.84l27.83,4.24c13.78,1.94,24.43,6.49,31.93,13.65s11.26,16.21,11.26,27.16c0,9.19-2.74,17.31-8.22,24.38s-12.94,12.68-22.39,16.83c-9.45,4.15-20.27,6.23-32.46,6.23-13.25,0-25.53-1.55-36.84-4.64Z"/>
      <path class="cls-4" d="M722.8,252.45c-8.57-7.51-12.85-18.59-12.85-33.26v-61.75h-28.36v-35.78h28.36v-56.18l42.93,20.67v35.51h39.22v35.78h-39.22v53.27c0,6.18,1.37,10.56,4.11,13.12,2.74,2.56,7.55,3.84,14.44,3.84,3.53,0,6.76-.22,9.67-.66s6.14-1.19,9.67-2.25v34.72c-3.89,1.24-8.83,2.25-14.84,3.05-6.01.8-11.04,1.19-15.11,1.19-16.78,0-29.46-3.75-38.03-11.26Z"/>
      <path class="cls-4" d="M827.21,258.68c-7.69-3.71-13.69-8.83-18.02-15.37-4.33-6.54-6.49-14.05-6.49-22.53,0-13.43,5.08-23.81,15.24-31.14,10.16-7.33,24.34-11,42.54-11,10.95,0,21.55,1.33,31.8,3.98v-6.89c0-7.07-2.25-12.32-6.76-15.77s-11.17-5.17-20.01-5.17c-5.48,0-11.62.88-18.42,2.65-6.8,1.77-14.8,4.59-23.98,8.48l-15.37-31.54c11.48-5.12,22.57-8.97,33.26-11.53,10.69-2.56,21.42-3.84,32.2-3.84,19.43,0,34.54,4.64,45.32,13.91s16.17,22.31,16.17,39.09v89.84h-42.4v-8.48c-5.65,3.89-11.62,6.67-17.89,8.35-6.27,1.68-13.21,2.52-20.8,2.52-9.89,0-18.68-1.85-26.37-5.57ZM849.34,230.32c3.89,2.47,9.28,3.71,16.17,3.71,5.12,0,9.94-.53,14.44-1.59,4.51-1.06,8.61-2.74,12.32-5.04v-18.02c-4.06-1.06-8.22-1.86-12.46-2.39-4.24-.53-8.57-.79-12.99-.79-7.42,0-13.16,1.19-17.23,3.58-4.06,2.38-6.1,5.79-6.1,10.2s1.94,7.86,5.83,10.33Z"/>
    </g>
  </g>
</svg>