<?xml version="1.0" encoding="UTF-8"?>
<svg xmlns="http://www.w3.org/2000/svg" version="1.1" xmlns:xlink="http://www.w3.org/1999/xlink" viewBox="0 0 922.8 922.8">
  <defs>
    <style>
      .cls-1 {
        fill: #fff;
      }

      .cls-2 {
        fill: #db00b2;
      }

      .cls-3 {
        fill: url(#linear-gradient);
      }
    </style>
    <linearGradient id="linear-gradient" x1="0" y1="518.5" x2="1064.7" y2="518.5" gradientTransform="translate(0 922) scale(1 -1)" gradientUnits="userSpaceOnUse">
      <stop offset="0" stop-color="#5b3b53"/>
      <stop offset=".8" stop-color="#7d2d69"/>
      <stop offset=".8" stop-color="#9a5c8a"/>
      <stop offset=".9" stop-color="#c5a1bc"/>
      <stop offset=".9" stop-color="#e4d4e0"/>
      <stop offset=".9" stop-color="#f7f3f6"/>
      <stop offset="1" stop-color="#fff"/>
    </linearGradient>
  </defs>
  <!-- Generator: Adobe Illustrator 28.6.0, SVG Export Plug-In . SVG Version: 1.2.0 Build 709)  -->
  <g>
    <g id="Layer_2">
      <g id="Layer_1-2">
        <path class="cls-3" d="M633.9,461.5c0,.3-.1.6-.2.8-.5,2-1,4-1.5,5.9s-1.1,3.9-1.7,5.8c0,.2-.2.5-.3.8-.6,1.9-1.2,3.8-1.9,5.8-.6,1.9-1.3,3.8-2,5.7-23.3,63.5-73.2,114.1-137.6,138.3-1.9.7-3.8,1.4-5.7,2.1-1.9.7-3.8,1.3-5.7,1.9-.3.1-.6.2-.8.3-1.9.6-3.9,1.2-5.8,1.8-1.9.6-3.9,1.1-5.8,1.6-.3,0-.6.2-.8.2l54.4,156.4c.3,0,.6-.2.8-.2,1.9-.6,3.8-1.1,5.8-1.7s3.9-1.2,5.8-1.9c.3,0,.6-.2.8-.3,1.9-.6,3.8-1.2,5.7-2,1.9-.6,3.8-1.3,5.7-2,19.4-7.1,38.3-15.8,56.5-26,2.8-1.5,5.5-3.1,8.3-4.7,2.9-1.7,5.7-3.4,8.5-5.1.4-.2.8-.5,1.2-.8,2.9-1.8,5.8-3.6,8.6-5.5,2.9-1.9,5.8-3.9,8.8-5.9.4-.3.9-.6,1.3-.9,3.3-2.3,6.5-4.6,9.7-7.1.2-.2.4-.3.6-.5,1.7-1.2,3.3-2.5,4.9-3.7s3.2-2.5,4.8-3.8c.2-.2.4-.3.7-.5,1.6-1.2,3.1-2.5,4.7-3.9,1.6-1.2,3.1-2.5,4.6-3.9,14.7-12.5,28.6-26.1,41.4-40.8,1.3-1.5,2.7-3,4-4.6,1.3-1.5,2.6-3.1,3.9-4.7.2-.2.4-.4.6-.7,1.3-1.6,2.6-3.1,3.8-4.7,1.3-1.6,2.5-3.2,3.8-4.8.2-.2.4-.5.5-.7,2.1-2.6,4-5.3,6-7.9.3-.4.6-.8.8-1.2,2.1-2.8,4-5.6,6-8.5,1.9-2.7,3.8-5.5,5.6-8.4.3-.4.5-.8.8-1.2,1.8-2.7,3.5-5.4,5.2-8.2,1.7-2.7,3.2-5.3,4.8-8.1,10.7-18.4,20-37.7,27.7-58,.7-1.9,1.4-3.8,2.1-5.7.7-1.9,1.4-3.8,2-5.7.2-.2.2-.5.3-.8.7-1.9,1.3-3.8,2-5.8.6-1.9,1.2-3.8,1.8-5.8.2-.3.2-.6.3-.8l-155.4-60h0ZM806.6,392.7C800.7,170.6,613.2,1.8,401.2,2.9,184.9,4-9.9,184.5.4,422.9c9.2,213,190.5,384.2,401.3,381.1,35.4,1.2,70.8-2.9,105-11.8l-54.6-157c-15.7,3.2-32.1,4.9-48.9,5-129.8.7-234.3-101.9-237.4-232-3.2-135,111.9-242.6,234.5-239.5,126.4-4.4,238.5,97.6,240.5,231.8.2,16.8-1.2,33.1-4.2,49l156.2,60.3c10.1-36.7,15-75.9,13.9-117.1h0Z"/>
        <g>
          <g>
            <polygon class="cls-1" points="380.5 371.1 386.2 387.6 392 404.1 397.7 420.6 403.5 437.1 409.2 453.7 414.9 470.2 420.7 486.7 426.4 503.2 432.2 519.7 437.9 536.3 443.6 552.8 449.4 569.3 455.1 585.8 460.9 602.4 466.6 618.9 472.3 635.4 478.1 651.9 483.8 668.4 489.6 685 495.3 701.5 501.1 718 506.8 734.5 512.5 751.1 518.3 767.6 524 784.1 529.8 800.6 535.5 817.2 541.2 833.7 547 850.2 552.7 866.7 558.5 883.2 564.2 899.8 566.5 893.7 568.8 887.7 571.2 881.7 573.5 875.7 575.8 869.6 578.1 863.6 580.4 857.6 582.7 851.6 585 845.5 587.4 839.5 589.7 833.5 592 827.5 594.3 821.4 596.6 815.4 598.9 809.4 601.2 803.4 603.5 797.3 605.9 791.3 608.2 785.3 610.5 779.2 612.8 773.2 615.1 767.2 617.4 761.2 619.7 755.1 622 749.1 624.4 743.1 626.7 737.1 629 731 631.3 725 633.6 719 635.9 713 638.2 706.9 644 712.9 649.8 719 655.6 725 661.4 731 667.3 737 673.1 743 678.9 749 684.7 755 690.5 761 696.3 767 702.1 773 707.9 779 713.7 785 719.5 791 725.3 797 731.1 803 736.9 809 742.7 815 748.5 821 754.3 827 760.1 833 765.9 839 771.7 845 777.5 851 783.3 857 789.1 863 794.9 869 800.7 875 806.5 881 812.3 887.1 818.1 893.1 823.9 899.1 826.1 897 828.3 894.9 830.4 892.8 832.6 890.7 834.7 888.6 836.9 886.5 839.1 884.4 841.2 882.4 843.4 880.3 845.5 878.2 847.7 876.1 849.9 874 852 871.9 854.2 869.8 856.4 867.7 858.5 865.6 860.7 863.6 862.8 861.5 865 859.4 867.2 857.3 869.3 855.2 871.5 853.1 873.6 851 875.8 848.9 878 846.8 880.1 844.7 882.3 842.7 884.5 840.6 886.6 838.5 888.8 836.4 890.9 834.3 893.1 832.2 887.3 826.2 881.5 820.2 875.7 814.2 869.9 808.2 864.1 802.2 858.3 796.2 852.5 790.2 846.7 784.2 840.9 778.2 835.1 772.2 829.3 766.2 823.5 760.2 817.7 754.2 811.9 748.2 806.1 742.2 800.3 736.2 794.5 730.1 788.6 724.1 782.8 718.1 777 712.1 771.2 706.1 765.4 700.1 759.6 694.1 753.8 688.1 748 682.1 742.2 676.1 736.4 670.1 730.6 664.1 724.8 658.1 719 652.1 713.2 646.1 707.4 640.1 713.5 638 719.6 635.9 725.7 633.8 731.8 631.7 737.9 629.6 744 627.5 750.1 625.3 756.2 623.2 762.3 621.1 768.4 619 774.5 616.9 780.6 614.8 786.7 612.7 792.8 610.6 798.9 608.5 805 606.4 811.1 604.3 817.2 602.2 823.3 600.1 829.4 598 835.5 595.8 841.6 593.7 847.7 591.6 853.8 589.5 859.9 587.4 866 585.3 872.1 583.2 878.2 581.1 884.3 579 890.4 576.9 896.5 574.8 902.6 572.7 886.3 566.4 870 560.1 853.7 553.8 837.4 547.5 821.1 541.2 804.7 534.9 788.4 528.6 772.1 522.3 755.8 516 739.5 509.7 723.1 503.4 706.8 497.1 690.5 490.8 674.2 484.5 657.9 478.2 641.6 471.9 625.2 465.6 608.9 459.3 592.6 453 576.3 446.7 560 440.4 543.7 434.1 527.3 427.8 511 421.4 494.7 415.1 478.4 408.8 462.1 402.5 445.8 396.2 429.4 389.9 413.1 383.7 396.8 377.4 380.5 371.1"/>
            <path class="cls-2" d="M718.3,642.7l12.6-4.4,189.3-65.4-131.2-50.7-155.3-60-263.3-101.6,94.3,271.5,54.4,156.4,44.7,128.7,70.9-184.7,5.7-14.7,6,6.3,177.3,183.4,77.9-75.2-178-184.2-5.3-5.5h0ZM617.5,744.2l-53,137.9-33.7-97.1-54.3-156.2-86-247.5,240,92.7,154.8,59.8,99.7,38.5-142.4,49.2-46.1,16,19.6,20.2,168.5,174.4-60.4,58.5-167.9-173.8-20.1-20.8-18.5,48.3h0Z"/>
          </g>
          <path d="M730.1,639.6l192.7-66.5-133.5-51.5-155.4-60-264.9-102.3,95,273.3,54.4,156.4,45.5,131,72.3-188.2c3.3-2.3,6.5-4.6,9.7-7.1l177.9,184.1,79.1-76.5-178.7-184.9c2.1-2.6,4-5.3,6-7.9h0ZM713.7,665.3l6,6.2,6,6.1,6,6.2,5.9,6.2,6,6.2,6,6.2,5.9,6.2,6,6.1,6,6.2,6,6.2,5.9,6.2,6,6.2,6,6.2,5.9,6.1,6,6.2,6,6.2,6,6.2,5.9,6.2,6,6.2,6,6.1,5.9,6.2,6,6.2,6,6.2,6,6.2,5.9,6.2,6,6.1,6,6.2-1.6,1.5-3.1,3.1-1.6,1.5-1.6,1.5-3.1,3.1-1.6,1.5-1.6,1.5-1.6,1.5-3.1,3.1-1.6,1.5-3.1,3.1-1.6,1.5-1.6,1.5-4.7,4.6-1.6,1.5-1.6,1.5-3.1,3.1-1.6,1.5-1.6,1.5-1.6,1.5-1.6,1.5-1.6,1.5-1.6,1.5-1.6,1.5-1.6,1.5-6-6.2-5.9-6.2-6-6.2-6-6.1-5.9-6.2-6-6.2-6-6.2-6-6.2-5.9-6.2-6-6.1-6-6.2-5.9-6.2-6-6.2-6-6.2-6-6.2-5.9-6.1-6-6.2-6-6.2-5.9-6.2-6-6.2-6-6.2-6-6.1-5.9-6.2-6-6.2-6-6.2-5.9-6.2-6-6.2-1.7-1.8-4.2-4.4-6-6.2-5.9-6.2-6-6.2-6-6.2-2.1,5.6-2.1,5.6-2.1,5.6-2.1,5.6-2.1,5.6-2.1,5.6-2.1,5.6-2.2,5.6-2.1,5.6-2.1,5.6-2.1,5.6-2.1,5.4v.2c0,0-2.2,5.6-2.2,5.6l-2.1,5.6-2.1,5.6-2.1,5.6-2.1,5.6-2.2,5.6-2.1,5.6-2.1,5.6-2.1,5.6-2.1,5.6-2.1,5.6-2.1,5.6-2.1,5.6-2.1,5.6-2.2,5.6-2.1,5.6-2.1,5.6-2.1,5.6-2.1,5.6-2.1,5.6-20.3-58.6-5.1-14.6-2.1-6-3-8.7-5.1-14.7-15.3-44-5.1-14.6-10.2-29.3-5.1-14.7-5.1-14.7-5.1-14.6-.3-.9-4.8-13.7-10.2-29.3-5.1-14.7-5.1-14.6-5.1-14.7-5.1-14.7-15.3-44-5.1-14.6-5.1-14.7-5.1-14.7-10.2-29.3-5.1-14.6,28.9,11.1,14.5,5.6,28.9,11.1,14.5,5.6,14.5,5.6,14.5,5.6,14.5,5.6,14.5,5.6,14.5,5.6,14.5,5.6,14.5,5.6,14.5,5.6,14.5,5.6,9.4,3.6,5.1,1.9,14.5,5.6,14.5,5.6,14.5,5.6,14.5,5.6,14.5,5.6,14.5,5.6,14.5,5.6,14.5,5.6,14.5,5.6,14.5,5.6,5,1.9,9.5,3.6,14.5,5.6,14.5,5.6,14.5,5.6,14.5,5.6,14.5,5.6-5.7,1.9-5.7,2-5.7,1.9-5.7,1.9-5.7,2-5.7,1.9-5.7,2-5.7,1.9-5.7,1.9-5.7,2-11.3,3.9-5.7,2-5.7,1.9-5.7,1.9-5.7,2-5.7,1.9-5.7,1.9-5.7,2-5.7,1.9-3.2,1.1-2.4.8-5.7,1.9-5.7,1.9-5.7,2-5.7,1.9-5.7,1.9-5.7,2-5.7,1.9-5.7,1.9-5.7,2-5.7,1.9-5.7,2,6,6.1,5.9,6.2,6,6.2,6,6.2,3.8,3.9,2.2,2.3h0Z"/>
        </g>
      </g>
    </g>
  </g>
</svg>