<?xml version="1.0" encoding="UTF-8"?>
<svg xmlns="http://www.w3.org/2000/svg" version="1.1" xmlns:xlink="http://www.w3.org/1999/xlink" viewBox="0 0 922.8 922.8">
  <defs>
    <style>
      .cls-1 {
        fill: url(#linear-gradient-4);
      }

      .cls-2 {
        fill: url(#linear-gradient-3);
      }

      .cls-3 {
        fill: url(#linear-gradient-5);
      }

      .cls-4 {
        fill: url(#linear-gradient-2);
      }

      .cls-4, .cls-5 {
        fill-rule: evenodd;
      }

      .cls-6 {
        fill: url(#linear-gradient-6);
      }

      .cls-5 {
        fill: url(#linear-gradient);
      }
    </style>
    <linearGradient id="linear-gradient" x1="246.3" y1="447.7" x2="655.6" y2="447.7" gradientTransform="translate(0 922) scale(1 -1)" gradientUnits="userSpaceOnUse">
      <stop offset="0" stop-color="#d61c5b"/>
      <stop offset=".8" stop-color="#8f1834"/>
      <stop offset=".8" stop-color="#9a5c8a"/>
      <stop offset=".9" stop-color="#c5a1bc"/>
      <stop offset=".9" stop-color="#e4d4e0"/>
      <stop offset=".9" stop-color="#f7f3f6"/>
      <stop offset="1" stop-color="#fff"/>
    </linearGradient>
    <linearGradient id="linear-gradient-2" x1="37.3" y1="573.2" x2="1241.7" y2="174.2" gradientTransform="translate(0 922) scale(1 -1)" gradientUnits="userSpaceOnUse">
      <stop offset="0" stop-color="#d61c5b"/>
      <stop offset=".8" stop-color="#8f1834"/>
      <stop offset=".8" stop-color="#9a5c8a"/>
      <stop offset=".9" stop-color="#c5a1bc"/>
      <stop offset=".9" stop-color="#e4d4e0"/>
      <stop offset=".9" stop-color="#f7f3f6"/>
      <stop offset="1" stop-color="#fff"/>
    </linearGradient>
    <linearGradient id="linear-gradient-3" x1="-11466.9" y1="10337" x2="-11297.1" y2="10337" gradientTransform="translate(-10969.7 -9811.3) rotate(-180) scale(1 -1)" gradientUnits="userSpaceOnUse">
      <stop offset="0" stop-color="#bfbfbf"/>
      <stop offset=".8" stop-color="#fff"/>
      <stop offset="1" stop-color="#eaeaea"/>
    </linearGradient>
    <linearGradient id="linear-gradient-4" x1="-10341.7" y1="10314.2" x2="-10405.5" y2="10213.3" gradientTransform="translate(-9960.3 -9811.3) rotate(-180) scale(1 -1)" gradientUnits="userSpaceOnUse">
      <stop offset="0" stop-color="#bfbfbf"/>
      <stop offset=".2" stop-color="#cfcfcf"/>
      <stop offset=".5" stop-color="#e9e9e9"/>
      <stop offset=".8" stop-color="#f9f9f9"/>
      <stop offset="1" stop-color="#fff"/>
    </linearGradient>
    <linearGradient id="linear-gradient-5" x1="-480.1" y1="10256.2" x2="-310.3" y2="10256.2" gradientTransform="translate(778.5 -9811.3)" gradientUnits="userSpaceOnUse">
      <stop offset="0" stop-color="#bfbfbf"/>
      <stop offset=".8" stop-color="#fff"/>
      <stop offset="1" stop-color="#eaeaea"/>
    </linearGradient>
    <linearGradient id="linear-gradient-6" x1="645.1" y1="10233.4" x2="581.3" y2="10132.6" gradientTransform="translate(-230.8 -9811.3)" gradientUnits="userSpaceOnUse">
      <stop offset="0" stop-color="#bfbfbf"/>
      <stop offset=".2" stop-color="#cfcfcf"/>
      <stop offset=".5" stop-color="#e9e9e9"/>
      <stop offset=".8" stop-color="#f9f9f9"/>
      <stop offset="1" stop-color="#fff"/>
    </linearGradient>
  </defs>
  <!-- Generator: Adobe Illustrator 28.6.0, SVG Export Plug-In . SVG Version: 1.2.0 Build 709)  -->
  <g>
    <g id="Layer_2">
      <g id="Layer_1-2">
        <g id="Layer_1-3">
          <g id="_448708752">
            <path id="_448710072" class="cls-5" d="M397.8,322.8c-83.5,0-151.5,68-151.5,151.5s68,151.5,151.5,151.5,151.5-68,151.5-151.5-68-151.5-151.5-151.5ZM397.8,322.8c-83.5,0-151.5,68-151.5,151.5s68,151.5,151.5,151.5,151.5-68,151.5-151.5-68-151.5-151.5-151.5ZM397.8,322.8c-83.5,0-151.5,68-151.5,151.5s68,151.5,151.5,151.5,151.5-68,151.5-151.5-68-151.5-151.5-151.5ZM397.8,322.8c-83.5,0-151.5,68-151.5,151.5s68,151.5,151.5,151.5,151.5-68,151.5-151.5-68-151.5-151.5-151.5ZM397.8,322.8c-83.5,0-151.5,68-151.5,151.5s68,151.5,151.5,151.5,151.5-68,151.5-151.5-68-151.5-151.5-151.5Z"/>
            <path class="cls-4" d="M835.5,697.5c-25.4,0-48.3,10.9-64.3,28.3l-177.3-102.3c31.6-41.4,50.4-93.1,50.4-149.2s-.4-17-1.3-25.3l139.9-37.5c7,9.2,18.1,15.1,30.5,15.1,21.2,0,38.5-17.3,38.5-38.5s-17.3-38.5-38.5-38.5-35.2,14.2-38,32.7l-137.3,36.8c-13.7-59.7-49.2-111.3-97.6-145.8l72.7-113.7c7.6,2.8,15.7,4.3,23.9,4.3,23.5,0,45.1-11.8,57.7-31.6,20.3-31.8,11-74.3-20.8-94.6-11-7.1-23.8-10.8-36.8-10.8-23.5,0-45.1,11.8-57.7,31.6-17.4,27.2-13.1,62.2,8.5,84.5h0s-73.1,114.3-73.1,114.3c-34.8-18.9-74.7-29.6-117-29.6s-108.9,19.2-150.5,51.4l-83.6-104.2c8.3-10.1,13.5-22.4,15-35.8,2-18.2-3.2-36.1-14.6-50.3-13.1-16.3-32.6-25.7-53.5-25.7s-30.7,5.4-42.8,15.1c-29.4,23.6-34.2,66.8-10.6,96.3,13.1,16.3,32.6,25.7,53.4,25.7s20.2-2.3,29.4-6.7l84.6,105.5c-36.4,35.9-61.6,83.1-70.1,135.8l-70-5.6c-4.7-16.9-19.5-30-38-31.5-23.7-1.9-44.5,16.1-46.3,39.4-1.9,23.6,15.8,44.4,39.4,46.3,1.2.1,2.3.1,3.5.1,16.8,0,31.7-9.9,38.7-24.4l69.8,5.6c-.1,3.1-.2,6.2-.2,9.3,0,77,35.5,145.8,90.9,191l-91,102.5c-10.2-5.9-21.9-9-33.9-9-19.5,0-38.1,8.3-51.1,22.8-12.2,13.6-18.4,31.2-17.3,49.4,1,18.3,9.1,35,22.7,47.2,12.6,11.3,28.8,17.4,45.6,17.4s38.1-8.3,51-22.8c12.2-13.6,18.4-31.2,17.3-49.4-.7-12.9-4.9-25.1-12.2-35.4l93.4-105.2c37.9,23.9,82.8,37.8,130.9,37.8,68.9,0,131.2-28.4,176-74.1l181,104.5c-4.3,10.4-6.7,21.7-6.7,33.6,0,48.2,39.2,87.4,87.4,87.4s87.4-39.2,87.4-87.4-39.2-87.4-87.4-87.4h0ZM397.8,645.9c-94.6,0-171.6-77-171.6-171.6s77-171.6,171.6-171.6,171.6,77,171.6,171.6-77,171.6-171.6,171.6h0Z"/>
          </g>
        </g>
        <g id="Layer_1-2-2" data-name="Layer_1-2">
          <g>
            <path class="cls-2" d="M399,496.7l-2.4-1-41.8-17.5s-.8-.3-.9-1.3v37.4c0,.5.3.9.7,1.1l142.6,59v-37.6l-98.2-40.1h0Z"/>
            <path class="cls-1" d="M353.8,476.9h0c0,.5.3,1.1.9,1.3l41.8,17.5,45.3-18.5v-37.6l-87.1,36h0s0,0,0,0c0,0-.2,0-.3.2l-.2.2s-.1.1-.2.2c0,0,0,0,0,.1,0,0,0,.2,0,.3,0,.1,0,.2,0,.3h0Z"/>
            <path class="cls-3" d="M298.4,456.1v37.6l142.6-59c.4-.2.7-.6.7-1.1v-37.4c0,1-.9,1.3-.9,1.3l-41.8,17.5-2.4,1-98.2,40.1h0Z"/>
            <path class="cls-6" d="M441.8,396.1h0c0,.5-.3,1.1-.9,1.3l-41.8,17.5-45.3-18.5v-37.6l87.1,36h0s0,0,0,0c0,0,.2,0,.3.2l.2.2s.1.1.2.2c0,0,0,0,0,.1,0,0,0,.2,0,.3,0,.1,0,.2,0,.3h0Z"/>
          </g>
        </g>
      </g>
    </g>
  </g>
</svg>