<?xml version="1.0" encoding="UTF-8"?>
<svg xmlns="http://www.w3.org/2000/svg" version="1.1" xmlns:xlink="http://www.w3.org/1999/xlink" viewBox="0 0 922.8 922.8">
  <defs>
    <style>
      .cls-1 {
        fill: url(#linear-gradient-2);
      }

      .cls-2 {
        fill: url(#linear-gradient);
        fill-rule: evenodd;
      }
    </style>
    <linearGradient id="linear-gradient" x1="97.2" y1="441.8" x2="1030.2" y2="441.8" gradientTransform="translate(0 922) scale(1 -1)" gradientUnits="userSpaceOnUse">
      <stop offset="0" stop-color="#0070d6"/>
      <stop offset=".8" stop-color="#00448e"/>
      <stop offset="1" stop-color="#fff"/>
    </linearGradient>
    <linearGradient id="linear-gradient-2" x1="65.1" y1="564.9" x2="970.4" y2="564.9" gradientTransform="translate(0 922) scale(1 -1)" gradientUnits="userSpaceOnUse">
      <stop offset="0" stop-color="#0070d6"/>
      <stop offset=".8" stop-color="#00448e"/>
      <stop offset="1" stop-color="#fff"/>
    </linearGradient>
  </defs>
  <!-- Generator: Adobe Illustrator 28.6.0, SVG Export Plug-In . SVG Version: 1.2.0 Build 709)  -->
  <g>
    <g id="Layer_2">
      <g id="Layer_1-2">
        <path class="cls-2" d="M841.5,911.7c-8.7,7.4-19.6,11.1-30.3,11.1s-26.3-5.4-35.5-16.3l-198.1-253.7c-16.8,9.1-34.4,17-52.9,23.3-16.1,3.1-22-7.2-22-15.9s.4-45.9.4-89.9-10.2-50.5-22-60.7c72.7-8.3,148.5-35.9,148.5-161.8s-12.2-65.1-33.3-87.7c3.3-8.3,14.6-41.8-3.3-86.9,0,0-27.4-8.7-89.3,33.8-25.9-7.2-53.8-10.9-81.4-10.9s-54.7,3.7-81.2,10.9c-61.8-42.5-89.3-33.8-89.3-33.8-17.8,45.1-6.5,78.6-3.3,86.9-20.5,22.6-33.5,52-33.5,87.7,0,125.9,76,154.2,148.1,161.8-9.1,8.1-17.6,22.6-20.5,44-18.7,8.5-65.5,22.6-94.7-27.2,0,0-17.2-31.6-50.1-33.5,0,0-31.8,0-2.2,20,0,0,21.6,9.8,36.1,47.7,0,0,19,58.6,109.3,39,0,27.2.6,53.1.6,60.7s-6.1,19-22.2,15.9c-129.1-43.6-222.3-166.1-222.3-310.9S242.7,37.5,422.3,37.5s325.3,146.5,324.9,327.7c0,100.6-45.1,190.5-116.1,250.6l215.3,230.2c16.8,19.6,14.6,49-5,65.8h0Z"/>
        <path class="cls-1" d="M422.2,707.6c-193.2,0-350.4-157.2-350.4-350.4S228.9,6.7,422.2,6.7s350.4,157.2,350.4,350.5-23.4,143.5-63.1,200.3c2.2.9,4.1,2,5.7,3.4,40.4-57.8,64-128,64-203.7C779.2,160.2,619,0,422.1,0S65.1,160.2,65.1,357.1s160.2,357.1,357.1,357.1,63.8-4.4,93.6-12.6c-1.9-1.6-3.5-3.5-4.7-5.6-28.4,7.5-58.2,11.5-89,11.5h0Z"/>
      </g>
    </g>
  </g>
</svg>