<?xml version="1.0" encoding="UTF-8"?>
<svg id="Layer_2" data-name="Layer 2" xmlns="http://www.w3.org/2000/svg" xmlns:xlink="http://www.w3.org/1999/xlink" viewBox="0 0 1254.06 376.38">
  <defs>
    <style>
      .cls-1 {
        fill: url(#linear-gradient-2);
      }

      .cls-2 {
        fill: url(#linear-gradient-4);
      }

      .cls-3 {
        fill: url(#linear-gradient-3);
      }

      .cls-4 {
        fill: #c278f6;
      }

      .cls-5 {
        fill: url(#linear-gradient);
      }
    </style>
    <linearGradient id="linear-gradient" x1="-15675.41" y1="-2884.63" x2="-15457.76" y2="-2884.63" gradientTransform="translate(3901.31 -15299.64) rotate(-90)" gradientUnits="userSpaceOnUse">
      <stop offset="0" stop-color="#8318d0"/>
      <stop offset=".96" stop-color="#c279f6"/>
    </linearGradient>
    <linearGradient id="linear-gradient-2" x1="-14513.38" y1="-2817.31" x2="-14622.15" y2="-2645.42" gradientTransform="translate(3901.31 -14290.26) rotate(-90)" gradientUnits="userSpaceOnUse">
      <stop offset="0" stop-color="#8317d0"/>
      <stop offset=".97" stop-color="#c67ff7"/>
    </linearGradient>
    <linearGradient id="linear-gradient-3" x1="1870.78" y1="-10322.86" x2="2088.41" y2="-10322.86" gradientTransform="translate(-9175.65 -1870.78) rotate(90)" gradientUnits="userSpaceOnUse">
      <stop offset="0" stop-color="#8318d0"/>
      <stop offset=".97" stop-color="#c57df6"/>
    </linearGradient>
    <linearGradient id="linear-gradient-4" x1="3032.81" y1="-10255.54" x2="2924.03" y2="-10083.62" gradientTransform="translate(-9175.65 -2880.15) rotate(90)" gradientUnits="userSpaceOnUse">
      <stop offset="0" stop-color="#8216cf"/>
      <stop offset=".97" stop-color="#c47bf6"/>
    </linearGradient>
  </defs>
  <g id="Layer_1-2" data-name="Layer 1">
    <g>
      <path class="cls-5" d="M1080.14,249.84l2.15-3.08,38.37-53.66s.72-1.06,2.86-1.13h-81.94c-1.06,0-2,.38-2.43.94l-129.31,182.86h82.37l87.95-125.94h-.02Z"/>
      <path class="cls-1" d="M1123.57,191.96h-.06c-1.15.02-2.28.39-2.86,1.13l-38.37,53.66,40.66,58.05h82.48l-78.99-111.7s-.04-.03-.04-.04c-.04-.03-.06-.04-.06-.07-.06-.07-.2-.22-.43-.38l-.33-.2c-.11-.07-.28-.13-.45-.2-.09-.03-.2-.07-.32-.08-.17-.04-.37-.1-.56-.12-.22-.03-.45-.05-.72-.05h.04Z"/>
    </g>
    <g>
      <path class="cls-3" d="M1083.76,125.94l-2.15,3.08-38.37,53.66s-.74,1.06-2.86,1.13h81.94c1.06,0,2-.37,2.43-.94L1254.06,0h-82.37s-87.93,125.94-87.93,125.94Z"/>
      <path class="cls-2" d="M1040.34,183.81c-.28,0-.5-.02-.72-.05-.19-.02-.39-.08-.56-.12-.11-.01-.22-.04-.32-.08-.17-.07-.33-.13-.45-.2l-.33-.2c-.22-.16-.37-.31-.43-.38,0-.02-.02-.03-.06-.07,0-.01-.04-.04-.04-.04l-78.99-111.7h82.5s40.66,58.05,40.66,58.05l-38.37,53.66c-.58.74-1.71,1.11-2.86,1.13h-.06s.02,0,.02,0Z"/>
    </g>
    <g>
      <path class="cls-4" d="M76.06,76.35h52.21l75,185.51h-49.29l-16.96-44.79h-72.35l-17.23,44.79H0L76.06,76.35ZM123.5,180.77l-22.26-59.36-22.79,59.36h45.05Z"/>
      <path class="cls-4" d="M237.18,259.87c-11.31-3.09-21.11-7.64-29.42-13.65l20.41-28.89c8.83,5.3,16.87,9.14,24.12,11.53,7.24,2.38,14.4,3.58,21.47,3.58s12.68-1.02,16.83-3.05c4.15-2.03,6.23-4.73,6.23-8.08,0-2.65-1.15-4.81-3.45-6.49s-5.92-2.87-10.87-3.58l-27.83-4.24c-13.96-2.12-24.6-6.76-31.93-13.91s-11-16.47-11-27.96c0-9.54,2.43-17.71,7.29-24.51,4.86-6.8,11.79-12.01,20.8-15.64,9.01-3.62,19.79-5.43,32.33-5.43,10.25,0,20.41,1.41,30.48,4.24,10.07,2.83,19.43,7.07,28.09,12.72l-20.41,27.56c-7.6-4.42-14.84-7.64-21.73-9.67-6.89-2.03-13.78-3.05-20.67-3.05-5.48,0-9.89.93-13.25,2.78-3.36,1.86-5.04,4.28-5.04,7.29,0,2.83,1.24,5.08,3.71,6.76,2.47,1.68,6.71,2.96,12.72,3.84l27.83,4.24c13.78,1.94,24.43,6.49,31.93,13.65s11.26,16.21,11.26,27.16c0,9.19-2.74,17.31-8.22,24.38-5.48,7.07-12.94,12.68-22.39,16.83-9.45,4.15-20.27,6.23-32.46,6.23-13.25,0-25.53-1.55-36.84-4.64Z"/>
      <path class="cls-4" d="M372.07,259.87c-11.31-3.09-21.11-7.64-29.42-13.65l20.41-28.89c8.83,5.3,16.87,9.14,24.12,11.53,7.24,2.38,14.4,3.58,21.47,3.58s12.68-1.02,16.83-3.05c4.15-2.03,6.23-4.73,6.23-8.08,0-2.65-1.15-4.81-3.45-6.49s-5.92-2.87-10.87-3.58l-27.83-4.24c-13.96-2.12-24.6-6.76-31.93-13.91s-11-16.47-11-27.96c0-9.54,2.43-17.71,7.29-24.51,4.86-6.8,11.79-12.01,20.8-15.64,9.01-3.62,19.79-5.43,32.33-5.43,10.25,0,20.41,1.41,30.48,4.24,10.07,2.83,19.43,7.07,28.09,12.72l-20.41,27.56c-7.6-4.42-14.84-7.64-21.73-9.67-6.89-2.03-13.78-3.05-20.67-3.05-5.48,0-9.89.93-13.25,2.78-3.36,1.86-5.04,4.28-5.04,7.29,0,2.83,1.24,5.08,3.71,6.76,2.47,1.68,6.71,2.96,12.72,3.84l27.83,4.24c13.78,1.94,24.43,6.49,31.93,13.65s11.26,16.21,11.26,27.16c0,9.19-2.74,17.31-8.22,24.38-5.48,7.07-12.94,12.68-22.39,16.83-9.45,4.15-20.27,6.23-32.46,6.23-13.25,0-25.53-1.55-36.84-4.64Z"/>
      <path class="cls-4" d="M493.17,101.79c-4.59-4.59-6.89-10.16-6.89-16.7s2.3-12.1,6.89-16.7,10.16-6.89,16.7-6.89,12.1,2.3,16.7,6.89,6.89,10.16,6.89,16.7-2.3,12.1-6.89,16.7c-4.59,4.59-10.16,6.89-16.7,6.89s-12.1-2.3-16.7-6.89ZM488.4,121.67h42.93v140.19h-42.93V121.67Z"/>
      <path class="cls-4" d="M576.38,259.87c-11.31-3.09-21.11-7.64-29.42-13.65l20.41-28.89c8.83,5.3,16.87,9.14,24.12,11.53,7.24,2.38,14.4,3.58,21.47,3.58s12.68-1.02,16.83-3.05c4.15-2.03,6.23-4.73,6.23-8.08,0-2.65-1.15-4.81-3.45-6.49s-5.92-2.87-10.87-3.58l-27.83-4.24c-13.96-2.12-24.6-6.76-31.93-13.91s-11-16.47-11-27.96c0-9.54,2.43-17.71,7.29-24.51s11.79-12.01,20.8-15.64,19.79-5.43,32.33-5.43c10.25,0,20.41,1.41,30.48,4.24,10.07,2.83,19.43,7.07,28.09,12.72l-20.41,27.56c-7.6-4.42-14.84-7.64-21.73-9.67-6.89-2.03-13.78-3.05-20.67-3.05-5.48,0-9.89.93-13.25,2.78s-5.04,4.28-5.04,7.29c0,2.83,1.24,5.08,3.71,6.76s6.71,2.96,12.72,3.84l27.83,4.24c13.78,1.94,24.43,6.49,31.93,13.65s11.26,16.21,11.26,27.16c0,9.19-2.74,17.31-8.22,24.38s-12.94,12.68-22.39,16.83c-9.45,4.15-20.27,6.23-32.46,6.23-13.25,0-25.53-1.55-36.84-4.64Z"/>
      <path class="cls-4" d="M722.8,252.45c-8.57-7.51-12.85-18.59-12.85-33.26v-61.75h-28.36v-35.78h28.36v-56.18l42.93,20.67v35.51h39.22v35.78h-39.22v53.27c0,6.18,1.37,10.56,4.11,13.12,2.74,2.56,7.55,3.84,14.44,3.84,3.53,0,6.76-.22,9.67-.66s6.14-1.19,9.67-2.25v34.72c-3.89,1.24-8.83,2.25-14.84,3.05-6.01.8-11.04,1.19-15.11,1.19-16.78,0-29.46-3.75-38.03-11.26Z"/>
      <path class="cls-4" d="M827.21,258.68c-7.69-3.71-13.69-8.83-18.02-15.37-4.33-6.54-6.49-14.05-6.49-22.53,0-13.43,5.08-23.81,15.24-31.14,10.16-7.33,24.34-11,42.54-11,10.95,0,21.55,1.33,31.8,3.98v-6.89c0-7.07-2.25-12.32-6.76-15.77s-11.17-5.17-20.01-5.17c-5.48,0-11.62.88-18.42,2.65-6.8,1.77-14.8,4.59-23.98,8.48l-15.37-31.54c11.48-5.12,22.57-8.97,33.26-11.53,10.69-2.56,21.42-3.84,32.2-3.84,19.43,0,34.54,4.64,45.32,13.91s16.17,22.31,16.17,39.09v89.84h-42.4v-8.48c-5.65,3.89-11.62,6.67-17.89,8.35-6.27,1.68-13.21,2.52-20.8,2.52-9.89,0-18.68-1.85-26.37-5.57ZM849.34,230.32c3.89,2.47,9.28,3.71,16.17,3.71,5.12,0,9.94-.53,14.44-1.59,4.51-1.06,8.61-2.74,12.32-5.04v-18.02c-4.06-1.06-8.22-1.86-12.46-2.39-4.24-.53-8.57-.79-12.99-.79-7.42,0-13.16,1.19-17.23,3.58-4.06,2.38-6.1,5.79-6.1,10.2s1.94,7.86,5.83,10.33Z"/>
    </g>
    <g>
      <path class="cls-4" d="M1065.86,373.73c-3.12-1.77-5.58-4.18-7.4-7.25s-2.72-6.49-2.72-10.27.91-7.26,2.72-10.31c1.82-3.04,4.28-5.46,7.4-7.25s6.61-2.69,10.49-2.69c3.19,0,6.23.62,9.13,1.88,2.9,1.25,5.35,3.03,7.36,5.34l-7.29,7.58c-1.37-1.57-2.77-2.71-4.2-3.42-1.42-.71-2.99-1.07-4.71-1.07s-3.26.43-4.64,1.29c-1.37.86-2.45,2.04-3.24,3.53-.79,1.5-1.18,3.2-1.18,5.12s.41,3.54,1.21,5.04c.81,1.5,1.93,2.68,3.35,3.53,1.42.86,3.02,1.29,4.78,1.29,1.62,0,3.12-.34,4.49-1.03s2.7-1.74,3.97-3.16l7.07,7.36c-1.96,2.26-4.37,4.01-7.21,5.26-2.85,1.25-5.81,1.88-8.91,1.88-3.88,0-7.37-.88-10.49-2.65Z"/>
      <path class="cls-4" d="M1097.17,324.12l11.92-2.58v17.81c2.94-2.26,6.43-3.38,10.45-3.38,3.04,0,5.73.66,8.06,1.99,2.33,1.33,4.16,3.17,5.48,5.52,1.33,2.36,1.99,5.08,1.99,8.17v24h-11.92v-22.38c0-2.16-.64-3.88-1.91-5.15-1.28-1.28-2.99-1.91-5.15-1.91-1.52,0-2.86.27-4.01.81-1.15.54-2.15,1.3-2.98,2.28v26.35h-11.92v-51.53Z"/>
      <path class="cls-4" d="M1147.26,374.76c-2.13-1.03-3.8-2.45-5.01-4.27s-1.8-3.9-1.8-6.26c0-3.73,1.41-6.61,4.23-8.65,2.82-2.04,6.76-3.05,11.81-3.05,3.04,0,5.99.37,8.83,1.11v-1.91c0-1.96-.63-3.42-1.88-4.38s-3.1-1.44-5.56-1.44c-1.52,0-3.23.25-5.12.74-1.89.49-4.11,1.28-6.66,2.36l-4.27-8.76c3.19-1.42,6.27-2.49,9.24-3.2s5.95-1.07,8.94-1.07c5.4,0,9.59,1.29,12.59,3.86s4.49,6.2,4.49,10.86v24.95h-11.78v-2.36c-1.57,1.08-3.23,1.85-4.97,2.32-1.74.47-3.67.7-5.78.7-2.75,0-5.19-.51-7.32-1.54ZM1153.41,366.88c1.08.69,2.58,1.03,4.49,1.03,1.42,0,2.76-.15,4.01-.44,1.25-.29,2.39-.76,3.42-1.4v-5.01c-1.13-.29-2.28-.52-3.46-.66s-2.38-.22-3.61-.22c-2.06,0-3.66.33-4.78.99-1.13.66-1.69,1.61-1.69,2.83s.54,2.18,1.62,2.87Z"/>
      <path class="cls-4" d="M1192.16,373.03c-2.38-2.08-3.57-5.16-3.57-9.24v-17.15h-7.88v-9.94h7.88v-15.61l11.92,5.74v9.87h10.89v9.94h-10.89v14.8c0,1.72.38,2.93,1.14,3.64s2.1,1.07,4.01,1.07c.98,0,1.88-.06,2.69-.19.81-.12,1.71-.33,2.69-.62v9.64c-1.08.34-2.45.62-4.12.85-1.67.22-3.07.33-4.2.33-4.66,0-8.18-1.04-10.56-3.13Z"/>
    </g>
  </g>
</svg>