<?xml version="1.0" encoding="UTF-8"?>
<svg xmlns="http://www.w3.org/2000/svg" version="1.1" xmlns:xlink="http://www.w3.org/1999/xlink" viewBox="0 0 922.8 922.8">
  <defs>
    <style>
      .cls-1 {
        fill: url(#linear-gradient-2);
      }

      .cls-2 {
        fill: #fff;
      }

      .cls-3 {
        fill: url(#linear-gradient-4);
      }

      .cls-4 {
        fill: url(#linear-gradient-3);
      }

      .cls-5 {
        fill: url(#linear-gradient-5);
      }

      .cls-6 {
        fill: url(#linear-gradient-6);
      }

      .cls-7 {
        fill: url(#linear-gradient);
      }
    </style>
    <linearGradient id="linear-gradient" x1="276.3" y1="510" x2="1139.3" y2="510" gradientTransform="translate(0 922) scale(1 -1)" gradientUnits="userSpaceOnUse">
      <stop offset="0" stop-color="#0070d6"/>
      <stop offset=".2" stop-color="#005db8"/>
      <stop offset=".4" stop-color="#004fa0"/>
      <stop offset=".6" stop-color="#004692"/>
      <stop offset=".8" stop-color="#00448e"/>
      <stop offset=".8" stop-color="#9a5c8a"/>
      <stop offset=".9" stop-color="#c5a1bc"/>
      <stop offset=".9" stop-color="#e4d4e0"/>
      <stop offset=".9" stop-color="#f7f3f6"/>
      <stop offset="1" stop-color="#fff"/>
    </linearGradient>
    <linearGradient id="linear-gradient-2" x1="0" y1="411.2" x2="805" y2="411.2" gradientTransform="translate(0 922) scale(1 -1)" gradientUnits="userSpaceOnUse">
      <stop offset="0" stop-color="#0070d6"/>
      <stop offset=".2" stop-color="#005db8"/>
      <stop offset=".4" stop-color="#004fa0"/>
      <stop offset=".6" stop-color="#004692"/>
      <stop offset=".8" stop-color="#00448e"/>
      <stop offset=".8" stop-color="#9a5c8a"/>
      <stop offset=".9" stop-color="#c5a1bc"/>
      <stop offset=".9" stop-color="#e4d4e0"/>
      <stop offset=".9" stop-color="#f7f3f6"/>
      <stop offset="1" stop-color="#fff"/>
    </linearGradient>
    <linearGradient id="linear-gradient-3" x1="-11101.3" y1="3721.3" x2="-10776.7" y2="3721.3" gradientTransform="translate(-10326.5 -3253.1) rotate(-180) scale(1 -1)" gradientUnits="userSpaceOnUse">
      <stop offset="0" stop-color="#bfbfbf"/>
      <stop offset=".8" stop-color="#fff"/>
      <stop offset="1" stop-color="#eaeaea"/>
    </linearGradient>
    <linearGradient id="linear-gradient-4" x1="-9870.4" y1="3677.7" x2="-9992.4" y2="3484.9" gradientTransform="translate(-9317.1 -3253.1) rotate(-180) scale(1 -1)" gradientUnits="userSpaceOnUse">
      <stop offset="0" stop-color="#bfbfbf"/>
      <stop offset=".2" stop-color="#cfcfcf"/>
      <stop offset=".5" stop-color="#e9e9e9"/>
      <stop offset=".8" stop-color="#f9f9f9"/>
      <stop offset="1" stop-color="#fff"/>
    </linearGradient>
    <linearGradient id="linear-gradient-5" x1="-383.7" y1="3566.8" x2="-59.1" y2="3566.8" gradientTransform="translate(778.5 -3253.1)" gradientUnits="userSpaceOnUse">
      <stop offset="0" stop-color="#bfbfbf"/>
      <stop offset=".8" stop-color="#fff"/>
      <stop offset="1" stop-color="#eaeaea"/>
    </linearGradient>
    <linearGradient id="linear-gradient-6" x1="847.2" y1="3523.3" x2="725.1" y2="3330.4" gradientTransform="translate(-230.8 -3253.1)" gradientUnits="userSpaceOnUse">
      <stop offset="0" stop-color="#bfbfbf"/>
      <stop offset=".2" stop-color="#cfcfcf"/>
      <stop offset=".5" stop-color="#e9e9e9"/>
      <stop offset=".8" stop-color="#f9f9f9"/>
      <stop offset="1" stop-color="#fff"/>
    </linearGradient>
  </defs>
  <!-- Generator: Adobe Illustrator 28.6.0, SVG Export Plug-In . SVG Version: 1.2.0 Build 709)  -->
  <g>
    <g id="Layer_2">
      <g id="Layer_1-2">
        <g>
          <path class="cls-7" d="M827.9,86.5h-505.2c-52.4,0-94.6,42.5-94.6,94.9v337.5c0,52.4,42.2,94.9,94.6,94.9h345.4l98.2,123.6v-123.6h61.6c52.4,0,94.9-42.5,94.9-94.9V181.4c0-52.4-42.5-94.9-94.9-94.9h0Z"/>
          <path class="cls-1" d="M650.6,697.9c-14.5,9.6-32,14.8-50.4,14.8H254.8l-98.2,123.6v-123.6h-62c-52.1,0-94.6-42.5-94.6-94.9v-337.8c0-52.1,42.5-94.6,94.9-94.6h67.2v333.5c0,88.7,71.9,160.8,160.5,160.8h313.8l14.2,18.1h0Z"/>
          <g id="Layer_1-2-2" data-name="Layer_1-2">
            <g>
              <path class="cls-4" d="M587,412.8l-4.6-1.9-80-33.5s-1.6-.6-1.7-2.5v71.4c0,.9.6,1.8,1.4,2.1l272.7,112.8v-71.8l-187.8-76.7h0Z"/>
              <path class="cls-3" d="M500.7,374.9h0c0,1,.6,2,1.7,2.5l80,33.5,86.6-35.5v-71.9l-166.6,68.9s0,0,0,0c0,0,0,0,0,0,0,0-.3.2-.6.4l-.3.3c0,0-.2.2-.3.4,0,0,0,.2-.1.3,0,.1-.2.3-.2.5,0,.2,0,.4,0,.6h0Z"/>
              <path class="cls-5" d="M394.8,335v71.8l272.7-112.8c.9-.4,1.4-1.2,1.4-2.1v-71.4c0,1.9-1.7,2.5-1.7,2.5l-80,33.5-4.6,1.9-187.8,76.7h0Z"/>
              <path class="cls-6" d="M668.9,220.5h0c0,1-.6,2-1.7,2.5l-80,33.5-86.6-35.5v-71.9l166.6,68.9s0,0,0,0c0,0,0,0,0,0,0,0,.3.2.6.4l.3.3c0,0,.2.2.3.4,0,0,0,.2.1.3,0,.1.2.3.2.5,0,.2,0,.4,0,.6h0Z"/>
            </g>
          </g>
          <circle class="cls-2" cx="773.1" cy="136.8" r="12.3"/>
          <circle class="cls-2" cx="809.6" cy="136.8" r="12.3"/>
          <circle class="cls-2" cx="846.1" cy="136.8" r="12.3"/>
        </g>
      </g>
    </g>
  </g>
</svg>