<?xml version="1.0" encoding="UTF-8"?>
<svg id="Layer_2" data-name="Layer 2" xmlns="http://www.w3.org/2000/svg" xmlns:xlink="http://www.w3.org/1999/xlink" viewBox="0 0 918.71 918.71">
  <defs>
    <style>
      .cls-1 {
        fill: url(#linear-gradient-2);
      }

      .cls-2 {
        fill: #fff;
      }

      .cls-3 {
        fill: url(#linear-gradient-4);
      }

      .cls-4 {
        fill: url(#linear-gradient-3);
      }

      .cls-5 {
        fill: url(#linear-gradient);
      }
    </style>
    <linearGradient id="linear-gradient" x1="-5933.15" y1="6907.45" x2="-5324.49" y2="6907.45" gradientTransform="translate(-5117.52 -6236.3) rotate(-180) scale(1 -1)" gradientUnits="userSpaceOnUse">
      <stop offset="0" stop-color="#bfbfbf"/>
      <stop offset=".81" stop-color="#fff"/>
      <stop offset=".97" stop-color="#eaeaea"/>
    </linearGradient>
    <linearGradient id="linear-gradient-2" x1="-4508.4" y1="6825.79" x2="-4737.23" y2="6464.14" gradientTransform="translate(-4108.15 -6236.3) rotate(-180) scale(1 -1)" gradientUnits="userSpaceOnUse">
      <stop offset="0" stop-color="#bfbfbf"/>
      <stop offset=".16" stop-color="#cfcfcf"/>
      <stop offset=".47" stop-color="#e9e9e9"/>
      <stop offset=".75" stop-color="#f9f9f9"/>
      <stop offset=".97" stop-color="#fff"/>
    </linearGradient>
    <linearGradient id="linear-gradient-3" x1="-675.49" y1="6617.82" x2="-66.83" y2="6617.82" gradientTransform="translate(778.53 -6236.3)" xlink:href="#linear-gradient"/>
    <linearGradient id="linear-gradient-4" x1="749.26" y1="6536.17" x2="520.44" y2="6174.52" gradientTransform="translate(-230.84 -6236.3)" xlink:href="#linear-gradient-2"/>
  </defs>
  <g id="Layer_1-2" data-name="Layer 1">
    <rect class="cls-2" x="615.76" y="247.5" width="113.51" height="18.92"/>
    <path class="cls-2" d="M614.36,41.52h51.15c30.12,0,48.34,17.51,48.34,43.43v.65c0,28.75-22.42,44.13-50.45,44.13h-20.98v37.14h-27.36V41.51h-.7ZM664.1,104.59c14.01,0,21.73-8.41,21.73-18.92v-.71c0-12.6-8.41-18.91-22.43-18.91h-20.98v38.54h21.68Z"/>
    <path class="cls-2" d="M725.06,104.57h0c0-35.74,26.62-65.17,65.17-65.17,23.83,0,37.84,7.72,49.75,19.62l-17.52,20.33c-9.81-9.11-19.62-14.02-32.23-14.02-21.02,0-36.42,17.52-36.42,39.25v-.75c0,21.73,14.72,39.29,36.42,39.29,14.01,0,23.13-5.61,32.93-14.72l17.52,17.52c-12.61,14.01-27.32,22.42-51.15,22.42-37.14.71-64.46-28.02-64.46-63.75"/>
    <rect y="0" width="918.71" height="918.71" rx="121.64" ry="121.64"/>
    <g>
      <path class="cls-5" d="M463.43,567.37l-8.63-3.52-150.05-62.74s-2.97-1.18-3.15-4.65v133.98c0,1.73,1.05,3.29,2.65,3.98l511.38,211.42v-134.66l-352.2-143.8h0Z"/>
      <path class="cls-1" d="M301.59,496.35v.09c.04,1.87,1.1,3.75,3.15,4.65l150.05,62.74,162.33-66.48v-134.84l-312.38,129.13s-.09.04-.14.04c-.09.04-.14.09-.18.09-.18.09-.6.32-1.05.68l-.54.54c-.18.18-.36.46-.54.73-.09.14-.18.32-.22.5-.14.27-.28.6-.32.92-.09.36-.14.73-.14,1.18h-.01v.03Z"/>
      <path class="cls-4" d="M103.04,421.55v134.66l511.38-211.42c1.6-.68,2.65-2.23,2.65-3.98v-133.98c-.18,3.47-3.15,4.65-3.15,4.65l-150.05,62.74-8.63,3.52L103.04,421.55Z"/>
      <path class="cls-3" d="M617.08,206.72v.09c-.04,1.87-1.1,3.75-3.15,4.65l-150.05,62.74-162.33-66.48V72.87l312.38,129.13s.09.04.14.04c.09.04.14.09.18.09.18.09.6.32,1.05.68l.54.54c.18.18.36.46.54.73.09.14.18.32.22.5.14.27.28.6.32.92.09.36.14.73.14,1.18h.01v.03Z"/>
    </g>
  </g>
</svg>