<?xml version="1.0" encoding="UTF-8"?>
<svg xmlns="http://www.w3.org/2000/svg" version="1.1" viewBox="0 0 500 500">
  <defs>
    <style>
      .cls-1 {
        fill: #dbdfe6;
      }

      .cls-2 {
        fill: #ebeef4;
      }

      .cls-3 {
        fill: #e97d83;
      }
    </style>
  </defs>
  <!-- Generator: Adobe Illustrator 28.6.0, SVG Export Plug-In . SVG Version: 1.2.0 Build 709)  -->
  <g>
    <g id="Layer_1">
      <g id="Search_Error">
        <g>
          <path class="cls-2" d="M11.1,25.2v35.2l326.9,42.4v-30.3L11.1,25.2ZM39.1,57.1c-3.9,0-7.1-4.5-7.1-10.1s3.2-10.1,7.1-10.1,7.1,4.5,7.1,10.1-3.2,10.1-7.1,10.1ZM65.2,60.9c-3.9,0-7.1-4.5-7.1-10.1s3.2-10.1,7.1-10.1,7.1,4.5,7.1,10.1-3.2,10.1-7.1,10.1ZM90.4,64.5c-3.9,0-7.1-4.5-7.1-10.1s3.2-10.1,7.1-10.1,7.1,4.5,7.1,10.1-3.2,10.1-7.1,10.1Z"/>
          <path class="cls-3" d="M313.4,410.3h109c.8,0,1.5.7,1.5,1.5v51.6c0,.8-.7,1.5-1.5,1.5h-109c-.8,0-1.5-.7-1.5-1.5v-51.6c0-.8.7-1.5,1.5-1.5Z"/>
          <path class="cls-1" d="M113.7,426c-.6-.1-1.3-.3-2.1-.4.7,0,1.4.2,2.1.4Z"/>
          <path class="cls-1" d="M118.5,373.7c-4.7-.9-11.7-1.3-17.5,1.2l4.9-7.8c2.7,3.3,7.8,5.3,12.7,6.6Z"/>
          <path class="cls-1" d="M120.9,374.2c-.8-.2-1.6-.3-2.4-.5.9.2,1.7.3,2.4.5Z"/>
          <path class="cls-1" d="M153.3,474.4H38.7l53.8-86c.5,3.2,3.8,7.3,9.9,9.3,3.8,1.2,7.4,1.7,11.2,2.5-4.4-.8-9.4-.4-13.1,1.8-4.4,2.5-7.3,7.8-6,12.7,1.2,4.5,5.4,7.5,9.8,8.9,2,.7,4.8,1.4,7.3,1.9-7.1-.9-14.4,5.3-12.6,11.7.9,3.5,4.2,5.8,7.7,7,3.4,1.1,30.8,4.9,42.5,6-4.6,8.3-3.2,17.1,4.3,24.2Z"/>
          <path class="cls-1" d="M348.3,432.5v41.9h-47l-88.9-49.1s8.2-57.5-35.5-67.3c-23.5-5.2-44.3-10.1-57.6-9.2,12.4-11.6,30.3-16.3,47.3-11.6l137.9,37.7c25.9,7.1,43.9,30.6,43.9,57.5Z"/>
          <path class="cls-1" d="M268.8,341.7c-4.1,11.3-7.4,25-10.6,36.5l-68.3-31.9c3.4-6.8,7.3-14.5,10.7-21.3l6.1,1.5c17.4,4.2-33.3-8.1,62.1,15.2Z"/>
          <g>
            <path d="M174.7,219.6c.8-.2,1.2-1,1-1.8-1.8-7.1-6-14.2-12.5-16.8-5-2.1-11.2-1.9-16.4.4-.7.3-1,1.1-.8,1.8,5.6,15.1,13.5,20.6,28.6,16.3ZM172.5,217.1c-5.8,1.5-11.1,1.6-15.7-2.1,3.5-2.5,5.8-6.5,5.9-11,4.9,2.3,8.2,7.9,9.8,13.1Z"/>
            <path d="M417.5,250.7c-15.8-21.5-13.5-49.8-17.5-74.9-3.2-20.4-8.8-49.7-30.4-58-9.8-3.7-20.7-2.3-30.1,2.5v-47.8c0-.7-.5-1.3-1.2-1.4L11.3,23.8c-.8-.1-1.7.5-1.7,1.4v162.4c-4.3,16.8-4.5,33.7,0,51.4v71.4c0,.8.6,1.5,1.5,1.5h54.5c21.4,12.3,47,19.1,74.4,17.9,1.2,6.1,2.7,14,3.9,19.9-17.3-3.1-40.7-6.1-41.6,11.4-.2,4.7,2.5,8.2,6.6,10.6-4.9.3-8.9,1.7-11.3,3.3-5,3.2-7.8,8.9-6.7,13.8.4,3.6,4.8,8.9,11.8,10.7-7.5,2.4-11.3,9.8-9.7,15.6,1.4,5.1,6.4,8.7,11.6,10.2-5.8,2.5-8.3,8-7.1,12.4.9,3.5,4.2,6.5,8.6,8,3.4,1.1,28.1,4.6,40.7,5.8-6.5,14.6,5.8,24.1,5.9,24.3.6.6,1.5.6,2,0,.6-.6.6-1.5,0-2.1l-.4-.4c-6.9-6.4-8.3-14.6-4-22.4.5-.9-.1-2.1-1.1-2.2-12.2-1.1-39-4.8-42.1-5.9-3.5-1.2-6-3.4-6.7-6-.8-2.9.9-6.5,4-8.2,5.1-3,7.8-1.4,9.1-1.3h.2s0,0,0,0l36.2,1.6h0c.8,0,1.4-.6,1.5-1.4,0-.8-.6-1.5-1.4-1.5l-36.1-1.6c-1.1-.2-4.6-.8-9.1-2.2-4.7-1.5-8-4.5-8.9-7.9-1.1-4,1.2-8.7,5.3-11,3.2-1.8,7.6-2.4,12.2-1.6,4.5,1,4.9.4,42.2,2.9,0,0,0,0,0,0,.8,0,1.4-.6,1.5-1.4,0-.8-.6-1.5-1.4-1.5-13.2-.8-39.1-2.3-41.8-2.9-3.9-.8-7.4-1.3-11-2.5-4.7-1.5-8-4.5-8.9-8l-1.4.4,1.4-.6c-1-4.4,2.1-8.7,5.4-10.7,5.1-3.3,12.9-3.4,18.8-2.3.8.2,1.7.4,2.5.5,0,0,0,0,0,0,.7,0-4-.4,38.5,4.2h.2c.7,0,1.4-.5,1.5-1.3,0-.8-.5-1.5-1.3-1.6-17.1-1.9-35.8-3.8-39.4-4.4-.2-.1-15.3-2.4-14.9-11.3.4-6.8,4.8-10.2,14-10.9,14.6-1,42,5.8,57.1,9.1,41.9,9.3,34.5,65.1,34.4,65.6,0,.6.2,1.2.7,1.5,95.4,52.6,89.6,49.6,90.3,49.6,1.5,0,2-2,.7-2.7l-88.7-48.9c.8-7.8,4.5-58.7-36.8-67.9-6.9-1.5-5-1.2-5.9-1.3-2.5-10.1-4.7-19.1-7.1-29.1,12.4-3,24.1-8,34.7-14.4h9.2c.7.2,1.3.4,2,.5l-3.3,14.1,2.8.7c.4-1.7,3.5-15,3.3-14.1,10.7,2.4,21.4,2.7,31.9,1.4.8,0,1.4-.8,1.3-1.6-.1-.8-.8-1.4-1.6-1.3-12.7,1.7-27.1.7-39.3-3.8,30.3-21,45.2-51,44.4-85.4,7.3,1.6,14.7,1.6,21.8.1-2.1,6.3-4.9,13.2-6.8,19.1,0,.2-.3,4,.3,4.4.6.5,1.6.4,2-.3,3.7-4.9,10.8-7.2,17.2-5.7,6.1,1.4,11.5,5.9,14.5,12,7.3,15.1-2,32.5-17.5,34.3-5.8.7-12.1-1.3-15.4-6.1-.5-.7-1.4-.8-2-.4-.6.5-.8,1.4-.4,2,2.7,3.9,7.2,6.4,12.4,7.2l-14.1,50.7s0,0,0,0l2.8.7,6.4-23c2.2-.5,8.3-2.2,16.1-5.7h51.2c.8,0,1.5-.7,1.5-1.5v-107.6c13.1,10.5,14.6,32.8,12.2,53.9-2.3,20.2-6,41.8,2.6,60.3,9.2,19.7,31.8,31.4,53.6,30.6,21.8-.7,42.2-12.5,56.7-28.8,14.4-16.3,23.3-36.9,29-57.9-22.4,17.7-59.1,12.8-76.1-10.2ZM12.6,309v-60.2c8.5,23.9,24.9,45.3,48.3,60.2H12.6ZM234.6,272.2c-16.1,28.2-48.2,48.8-83.8,53.7-35.4,4.8-72.7-5.5-99.8-27.6-26.4-21.5-42-53.6-41.7-86,.3-34,18.7-67.5,48-87.5,30.4-20.7,72.2-27.3,109.8-14.8,30.8,10.5,47.5,28.3,61.4,51.6,8.4,14.1,17.3,38,18,59,0,0,0,0,0,0,.7,18.6-3.4,36.4-11.9,51.5ZM336.6,309h-43.7c21-11,36.5-27.9,43.3-50,.1-.4.3-.8.4-1.2v51.2ZM318.4,170.8c4.8,4.7,6.7,11,7.5,15.6.4,1.9.6,4.4-.4,6.2-.8,1.3-2.9,2.2-4,1.2-2.3-2.2-.6-8.8-12-22.2-1.6-2.9,3.2-6.5,9-.8ZM336.6,224.3c-3.6-7.6-10.2-11.9-15.3-12.5.9-4.8,1-9.7.1-14.9,1.4.3,2,.1,2.7,0,4.9.5,9,1.9,12.5,3.9v23.5ZM336.6,121.9c-15.9,9.4-23.8,26.2-27.9,44-1,.7-1.8,1.4-2.2,2.2-18.4-19.5-56.8-37.6-89.5-28.6C160.5,75.1,43.1,92.5,12.6,178.1V26.9l324,46.9v48.1Z"/>
            <path d="M165.7,263.4c-4.8-.6-9.9,1.4-13,5.2-.5.6-.4,1.5.2,2.1.6.5,1.5.4,2.1-.2,2.5-3,6.5-4.6,10.4-4.1,6.7.9,11.2,6.9,14.9,12,.5.6,1.4.8,2,.3.6-.5.8-1.4.3-2-4.3-5.9-9.1-12.2-16.8-13.2Z"/>
            <path d="M156.9,131.1c-28.2-8.8-60.6-4.1-84.7,12.4-23.3,15.8-37.8,42.5-38.1,69.5-.4,49,42.7,90.9,98.1,90.9s95.9-36.1,89-91.8c-3.7-29.8-25.6-69.6-64.3-80.9ZM69,278.9c-20.2-16.5-32.2-41.1-32-65.9.2-26.1,14.3-51.8,36.8-67.1,25.6-17.4,63.9-22.1,94.5-7.1-9.6,10.6-11.7,24.2-7.5,36.6-18.2,22.2-32.1,49-31.3,77.2.5,17.2,7,33.8,18.3,47-28.5,4.6-57.8-3.7-78.8-20.7ZM151.1,299.1c-22.9-25.5-27.8-64.8,2.2-108.9.3.2.7.4,1.1.3,18.5-1.4,32.5,17.3,29.7,32.5-1.3,7.2-6.5,13.6-13.4,16.8-1.7.8-.6,3.5,1.2,2.7,7.7-3.5,13.5-10.8,15-18.9,3.1-16.8-11.8-36.8-31.8-36,2.9-4,6-8.1,9.5-12.2,6.1-4.9,13.2-8.8,20.7-11.2.4,0,.8,0,1.2.1-2.3,6.6-2.3,14,.2,21.2.3,1,1.6,1.3,2.3.6,1.2-1,2.5-2,3.8-3,5,13.1,13.2,23.3,25.6,30.1.3,2.8.5,5.5.5,8.3-1.5-.6-3.1-1.1-4.7-1.4-.8-.2-1.6.4-1.7,1.1-.2.8.4,1.6,1.1,1.7,1.8.4,3.6,1,5.2,1.8-.1,4.7-.7,9.3-1.6,13.8-1.6-1.6-3.4-2.9-5.5-3.7-4.9-2.1-11.2-1.9-16.4.4-.7.3-1,1.1-.8,1.8,3.3,8.8,8,16.5,17.3,17.6-.7,1.5-1.5,3-2.3,4.4h0c-11.4,20.1-33.6,35.1-58.6,40.1ZM213.2,251.7c-3-.2-5.6-1.1-7.8-3,3.5-2.4,5.8-6.4,5.9-11.1,1.6.7,3.3,1.9,5.2,4.2-.9,3.4-2,6.7-3.3,9.8Z"/>
          </g>
        </g>
      </g>
    </g>
  </g>
</svg>