<?xml version="1.0" encoding="UTF-8"?>
<svg xmlns="http://www.w3.org/2000/svg" version="1.1" viewBox="0 0 32 31.4">
  <defs>
    <style>
      .cls-1 {
        fill: #fff;
      }
    </style>
  </defs>
  <!-- Generator: Adobe Illustrator 28.6.0, SVG Export Plug-In . SVG Version: 1.2.0 Build 709)  -->
  <g>
    <g id="Layer_1">
      <g id="Layer_59">
        <g>
          <path class="cls-1" d="M10.1,31.4l.2-6.3H4C1.8,25.1,0,23.3,0,21.1V4C0,1.8,1.8,0,4,0h24c2.2,0,4,1.8,4,4v17.1c0,2.2-1.8,4-4,4h-7.7l-10.2,6.3ZM4,2c-1.1,0-2,.9-2,2v17.1c0,1.1.9,2,2,2h8.4l-.2,4.6,7.5-4.6h8.2c1.1,0,2-.9,2-2V4c0-1.1-.9-2-2-2H4Z"/>
          <path class="cls-1" d="M11,9h4v4h-4v-4Z"/>
          <path class="cls-1" d="M11.5,17v-2c.8,0,1.5-.7,1.5-1.5v-1.5h2v1.5c0,1.9-1.6,3.5-3.5,3.5Z"/>
          <path class="cls-1" d="M17,9h4v4h-4v-4Z"/>
          <path class="cls-1" d="M17.5,17v-2c.8,0,1.5-.7,1.5-1.5v-1.5h2v1.5c0,1.9-1.6,3.5-3.5,3.5Z"/>
        </g>
      </g>
    </g>
  </g>
</svg>