<?xml version="1.0" encoding="UTF-8"?>
<svg xmlns="http://www.w3.org/2000/svg" version="1.1" xmlns:xlink="http://www.w3.org/1999/xlink" viewBox="0 0 200 16.9">
  <defs>
    <style>
      .cls-1 {
        fill: url(#linear-gradient);
      }
    </style>
    <linearGradient id="linear-gradient" x1="0" y1="8.7" x2="200" y2="8.7" gradientUnits="userSpaceOnUse">
      <stop offset="0" stop-color="#d85c6f"/>
      <stop offset="1" stop-color="#3e77c9"/>
    </linearGradient>
  </defs>
  <!-- Generator: Adobe Illustrator 28.6.0, SVG Export Plug-In . SVG Version: 1.2.0 Build 709)  -->
  <g>
    <g id="Layer_1">
      <path class="cls-1" d="M100.8,5.7c2.2-.2,43.8-3.2,66.5-4.2,9.6-.4,19.2-.4,28.7-.4,1.4,0,3.7.9,4,1.7.3,1.2-.5,3.1-1.6,4-2.9,2.5-6.8,3.3-10.8,3.4-14.7.6-29.4,1.3-44.1,1.8-37.4,1.3-74.9,2.4-112.3,3.6-7.2.2-14.5.3-21.7.5-3.6.1-6.6-1-8.7-3.5-.8-1-.9-2.8-.4-4,.4-.8,2.2-1.5,3.4-1.6,31.8-1.1,93-3.1,94.6-3.2,2.3-.2.3,2,2.5,1.8h0Z"/>
    </g>
  </g>
</svg>