<?xml version="1.0" encoding="UTF-8"?>
<svg xmlns="http://www.w3.org/2000/svg" version="1.1" viewBox="0 0 200 21.4">
  <defs>
    <style>
      .cls-1 {
        fill: #74a9af;
        fill-rule: evenodd;
      }
    </style>
  </defs>
  <!-- Generator: Adobe Illustrator 28.6.0, SVG Export Plug-In . SVG Version: 1.2.0 Build 709)  -->
  <g>
    <g id="Layer_1">
      <g id="Layer_1-2" data-name="Layer_1">
        <g id="Layer_1-2">
          <path class="cls-1" d="M198.5,12.2c-.2.6-2.4,1.8-2.6,1.4,0-.2-.4-.3-.7-.1-.5.3-2.8.3-4.9,0-.7-.1-2.8-.2-4.6-.2h-9.8c-.4,0-.5-.1-.3-.4.2-.3,0-.2-.4.1-.4.4-.9.5-.9.3s-.4-.3-.7-.1c-.3.1-1.6.2-3,.2h-7.4c-5.7,0-10.7,0-14.9.3-2.3.1-4.5.2-4.7.2h-1.1c-1.4.2-10.2.7-11,.6-.5,0-1.1,0-1.4.1-1.1.5-5,.5-5.6,0-.7-.5-1-1.9-.4-1.7.2,0,.3,0,.3-.3-.2-.8,8.5-2,9.3-1.3.2.2.4.2.3,0,0-.5,14.9-1.6,15.2-1.2.2.2.4.2.6,0,.3-.3,10.2-.8,16.1-.8s3.5,0,5-.2h3.5c.5.2,1,.1,1.2,0,.2-.2.5-.2.8,0,.2.2.5.2.6,0,0-.2.3-.3.6,0,.2.2.6.3.7.1.2-.2,1.3-.2,2.5-.1,1.2,0,2.9.1,3.8,0,3.5-.1,6.4.1,6.7.5.2.3.3.2.2-.2,0-.3.1-.4.4-.2.3.3.6.3.6.1s.7-.3,1.4-.4c.7,0,2,.2,2.9.6,1.4.5,1.6.7,1.3,1.5-.1.5-.1.9,0,.8.2,0,.3,0,.2.3h.2,0ZM152.1,2.9c1.2-.2,1.5,0,1.1.4s-.7.3-1.1,0c-.5-.2-.5-.4,0-.5h0ZM157.3.8c.2,0,0,.3-.6.5-.5.2-.9.3-1,0-.1-.3,1-.7,1.5-.6h.1ZM166.8,2.2c.2,0,.6.4.8.8.2.3.3.6,0,.5-.2,0-.6-.4-.8-.7s-.2-.6,0-.5h0ZM170.8,2.5c.4.3.8.4,1,.2s.5-.3.7-.2c.2,0,0,.4-.3.6-.9.6-1.8.4-1.9-.5,0-.4,0-.5.6,0h-.1ZM142.7,3.8c.2,0,.2.3,0,.5-.2.2,0,.4.2.5.7.2,1.2-.4.7-.8-.2-.2.2-.2.9,0,1.4.5,2.2.6,2.9.3.3,0,.7,0,.8.3.2.3.3.2.2-.2-.2-.8,1.4-1.5,1.8-.7.2.4.9.4,2.3.2,2.1-.4,3-.3,3.2.3.1.5,1.4.4,1.6,0,0-.2,0-.4-.2-.5-.2,0-.2-.5,0-.9.2-.6.4-.6.6-.2.2.3.2.8.1,1-.5.9.5.9,1.3,0l.8-1,.4,1.2c.2.7.5,1,.5.7s.4-.4.8-.2c1,.3,1.3,0,.9-1.1-.5-1.2-.1-1.2.4,0,.5,1,2.1,1.7,3.2,1.3.4,0,.6-.3.4-.4-.2,0-.4-.5-.4-.8,0-.5.1-.5.5-.2s.5.3.5-.3.2-.7.5-.8c.3,0,.4.3.2.8-.5,1.4-.4,2,.4,1.8h2.3c.9,0,1.8,0,2.1-.2s.8-.2,1,0,.6.2.8,0c.3-.3.4-.2.5,0,0,.3.4.4,1.2.3.8-.2,1.1,0,1.3.3.2.4.3.5.4,0,0-.3.4-.4.7-.3s1.8.2,3.2.2,3.4,0,4.3.3c1,.2,1.8,0,1.8-.2,0-.3.7-.3,1.7,0,1.9.5,4.1.8,4.4.6.1,0,0-.3-.5-.4-.4,0-.9-.7-1.1-1.3-.3-.8-.3-1,.2-1s.5,0,.2.6c-.3.4-.3.5.2.4.3,0,.4,0,.2.2-.9.9,3.8,2.1,5.1,1.3.6-.4.6-.6.2-1.7-.3-.9-.5-1.1-.6-.6s-.2.4-.3,0c0-.3-.3-.6-.4-.5h-1.5c-.7,0-1.7-.3-2.2-.3s-1.6-.2-2.3-.3-1.9-.2-2.5-.2h-1.1l.8.7c.5.5.6.7.2.6-.3,0-.7-.5-.9-1s-.4-.7-.8-.5c-.3.1-1.3.1-2.4,0-1-.2-2.3-.2-2.8,0s-1.2.2-1.6,0c-1.2-.6-1.6-.5-1.5.1,0,.3-.1.2-.3-.1-.3-.6-.5-.6-.8-.4-.2.2-.5.2-.8,0-.5-.4-1.6,0-2.1.8-.2.3-.3.2-.2-.2.1-.5,0-.8-.5-.7-.4,0-.9,0-1.3-.2-.4-.1-.7,0-.6.2.2.7-.8.8-1,.1-.1-.4-.3-.6-.5-.4s-.9.2-1.5,0c-.6-.1-1.4-.2-1.7-.2s-.9,0-1.2-.2c-.8-.4-1.3.3-1,1.3.2.6.1.9-.3,1.1-.4.2-.5.2-.4-.3.5-1.7-2-1.8-2.9-.2-.5.9-.6.9-.9.3-.2-.4-.2-1,0-1.3.2-.4,0-.7-.5-.9-1-.3-1.4.5-.5,1.1.4.2.2.3-.5.3s-1-.2-.7-.6c.2-.3,0-.5-.4-.6-.4,0-.8,0-1,.3s-.6.3-1.4-.2c-.9-.5-1.1-.5-.9,0,.1.6,0,.5-.3,0-.4-.7-.5-.6-1.1.2-.4.5-1,1-1.3,1-.3,0-.3-.1,0-.4.5-.4.4-.5-.9-.9-.8-.2-1.5-.3-1.5-.1s-.3.1-.6,0c-.3-.3-.5-.3-.4,0,.2.7-2.5.7-3.5,0-.4-.4-3.7-.5-7.4-.5-20.6.3-47.1,2.2-72.8,5.2-4.7.6-9.8,1.1-11.4,1.2-4.1.3-12.3,1.5-12.4,1.8,0,.2-.4.2-.7.1-.7-.2-10.6,1.5-11.6,2-.3.1-1.5.4-2.6.5s-6.7,1.3-12.5,2.7c-11.1,2.6-12.4,3.1-12.4,5.4s1.6,2.5,6.1,1.3c2.1-.6,7.1-1.7,11-2.5,4-.8,7.2-1.7,7.1-1.9,0-.2.2-.2.6,0s1.4.3,2.2,0c.9-.2,2.4-.5,3.5-.7,3.8-.6,5.4-.8,8.7-1.4,9.5-1.5,33.5-4.5,51.1-6.2,14.2-1.4,22.5-2,37.2-2.6,8.6-.4,13.4-.8,13.5-1.1,0-.3.3-.5.5-.4,0,0,0,.4,0,.4Z"/>
        </g>
      </g>
    </g>
  </g>
</svg>